<svg width="400" height="400" viewBox="0 0 400 400" fill="none" xmlns="http://www.w3.org/2000/svg">
<path d="M184.622 174.582L163.818 148.4L103.9 133.998L10 188.32L140.002 352.002L267.054 278.326L241.684 246.396" stroke="white" stroke-width="2" stroke-linecap="round" stroke-linejoin="round"/>
<path d="M130.438 167.642L97.626 137.588L103.9 133.96L130.438 167.642Z" fill="#0A7EA4"/>
<path d="M130.438 167.642L97.626 137.588L103.9 133.96L130.438 167.642Z" stroke="white" stroke-width="2" stroke-linecap="round" stroke-linejoin="round"/>
<path d="M188.01 252.016C172.52 243.09 163.476 227.984 163.658 213.91C152.673 211.458 141.17 213.098 131.308 218.522C111.272 230.122 107.908 255.796 123.822 275.794C139.736 295.828 168.882 302.634 188.918 290.994C194.612 287.811 199.277 283.068 202.367 277.323C205.456 271.578 206.84 265.071 206.356 258.566C199.891 257.526 193.672 255.306 188.01 252.016Z" fill="white"/>
<path d="M188.01 252.016C172.52 243.09 163.476 227.984 163.658 213.91C152.673 211.458 141.17 213.098 131.308 218.522C111.272 230.122 107.908 255.796 123.822 275.794C139.736 295.828 168.882 302.634 188.918 290.994C194.612 287.811 199.277 283.068 202.367 277.323C205.456 271.578 206.84 265.071 206.356 258.566C199.891 257.526 193.672 255.306 188.01 252.016Z" stroke="white" stroke-width="2" stroke-linecap="round" stroke-linejoin="round"/>
<path d="M163.78 148.324L130.438 167.642L103.9 133.96" stroke="white" stroke-width="2" stroke-linecap="round" stroke-linejoin="round"/>
<path d="M49.4658 201.02L105.3 168.7" stroke="white" stroke-width="2" stroke-linecap="round" stroke-linejoin="round"/>
<path d="M66.8921 223.022L153.762 172.742" stroke="white" stroke-width="2" stroke-linecap="round" stroke-linejoin="round"/>
<path d="M134.104 264.378L172.058 274.508L170.698 236.064" stroke="white" stroke-width="2" stroke-linecap="round" stroke-linejoin="round"/>
<path d="M176.14 184.728L167.56 199.472C157.806 216.33 166.96 239.872 188.01 252.016C206.866 262.932 232.01 262.254 243.844 243.322L252.268 228.71" stroke="white" stroke-width="2" stroke-linecap="round" stroke-linejoin="round"/>
<path d="M190.722 171.018C183.597 174.081 177.968 179.83 175.056 187.018C167.824 204.794 179.39 225.586 197.31 235.91C213.262 245.122 234.092 246.012 247.058 234.624C249.038 232.887 250.786 230.902 252.258 228.718" stroke="white" stroke-width="2" stroke-linecap="round" stroke-linejoin="round"/>
<path d="M305.084 112.11L295.708 128.29C292.232 134.338 284.86 137.512 276.618 137.512C252.498 137.512 232.76 112.668 241.728 97.14L251.064 80.96C246.83 88.332 249.288 97.404 253.976 104.248C267.614 124.164 296.684 126.568 305.084 112.11Z" stroke="white" stroke-width="2" stroke-linecap="round" stroke-linejoin="round"/>
<path d="M338.728 175.92C327.058 200.062 303.982 227.456 285.238 242.452C278.657 241.456 272.229 239.626 266.11 237.008C254.228 231.049 243.612 222.846 234.848 212.852L248.304 189.718C246.139 185.786 244.171 181.749 242.408 177.622C240.579 178.513 238.518 178.816 236.51 178.49C239.61 188.546 235.264 192.78 228.534 191.91C231.446 201.248 224.792 205.11 215.682 201.626C216.966 208.996 206.396 210.102 197.914 202.986C191.17 197.326 180.44 181.336 187.714 174.186C188.631 173.296 189.811 172.726 191.078 172.56C189.718 167.38 190.078 162.148 195.124 159.102C195.953 158.589 196.88 158.255 197.846 158.12C196.4 150.022 200.662 144.416 206.918 142.582C206.978 140.528 207.57 138.525 208.636 136.768C209.702 135.011 211.206 133.561 213 132.56C209.812 127.653 207.33 122.321 205.628 116.722C203.69 108.738 209.828 104.004 217.99 110.296C220.678 112.37 224.226 115.36 228.46 118.8C229.632 118.12 240.708 112.676 240.708 112.676C241.142 114.028 241.686 115.344 242.334 116.608C242.334 116.608 240.334 120.086 237.118 125.568C247.438 133.28 260.176 141.52 273.748 145.98L278.624 137.58C284.368 137.436 289.831 135.064 293.858 130.966C306.578 142.116 300.432 136.158 338.728 175.92Z" stroke="white" stroke-width="2" stroke-linecap="round" stroke-linejoin="round"/>
<path d="M297.864 118.726C279.3 128.176 250.112 111.192 248.948 90.562C248.286 78.846 257.748 71.738 270.148 71.738C284.778 71.738 300.246 81.728 305.494 95.138C309.242 104.7 307.032 114.058 297.864 118.726Z" fill="#0A7EA4"/>
<path d="M297.864 118.726C279.3 128.176 250.112 111.192 248.948 90.562C248.286 78.846 257.748 71.738 270.148 71.738C284.778 71.738 300.246 81.728 305.494 95.138C309.242 104.7 307.032 114.058 297.864 118.726Z" stroke="white" stroke-width="2" stroke-linecap="round" stroke-linejoin="round"/>
<path d="M266.148 237C263.426 243.844 262.972 248.8 265.278 250.722C268.378 253.294 275.862 249.89 285.278 242.444C278.731 241.294 272.32 239.47 266.148 237Z" fill="#0A7EA4"/>
<path d="M266.148 237C263.426 243.844 262.972 248.8 265.278 250.722C268.378 253.294 275.862 249.89 285.278 242.444C278.731 241.294 272.32 239.47 266.148 237Z" stroke="white" stroke-width="2" stroke-linecap="round" stroke-linejoin="round"/>
<path d="M326.442 163.144L338.728 175.92C347.094 157.66 340.97 153.376 326.442 163.144Z" fill="#0A7EA4"/>
<path d="M326.442 163.144L338.728 175.92C347.094 157.66 340.97 153.376 326.442 163.144Z" stroke="white" stroke-width="2" stroke-linecap="round" stroke-linejoin="round"/>
<path d="M252.236 228.692C251.44 229.936 250.542 231.112 249.552 232.208L234.848 212.852C240.034 218.765 245.866 224.079 252.236 228.692Z" fill="#0A7EA4"/>
<path d="M252.236 228.692C251.44 229.936 250.542 231.112 249.552 232.208L234.848 212.852C240.034 218.765 245.866 224.079 252.236 228.692Z" stroke="white" stroke-width="2" stroke-linecap="round" stroke-linejoin="round"/>
<path d="M365.416 201.588C365.429 202.262 365.308 202.932 365.059 203.558C364.81 204.184 364.439 204.755 363.967 205.236C363.495 205.717 362.932 206.1 362.31 206.361C361.689 206.621 361.022 206.756 360.348 206.756C359.674 206.755 359.007 206.621 358.385 206.36C357.764 206.099 357.201 205.716 356.729 205.235C356.257 204.753 355.886 204.183 355.638 203.556C355.389 202.93 355.268 202.26 355.282 201.586C355.308 200.26 355.854 198.996 356.802 198.068C357.749 197.139 359.023 196.619 360.35 196.62C361.676 196.62 362.95 197.14 363.897 198.069C364.845 198.998 365.39 200.262 365.416 201.588Z" fill="#0A7EA4"/>
<path d="M365.416 201.588C365.429 202.262 365.308 202.932 365.059 203.558C364.81 204.184 364.439 204.755 363.967 205.236C363.495 205.717 362.932 206.1 362.31 206.361C361.689 206.621 361.022 206.756 360.348 206.756C359.674 206.755 359.007 206.621 358.385 206.36C357.764 206.099 357.201 205.716 356.729 205.235C356.257 204.753 355.886 204.183 355.638 203.556C355.389 202.93 355.268 202.26 355.282 201.586C355.308 200.26 355.854 198.996 356.802 198.068C357.749 197.139 359.023 196.619 360.35 196.62C361.676 196.62 362.95 197.14 363.897 198.069C364.845 198.998 365.39 200.262 365.416 201.588Z" stroke="white" stroke-width="2" stroke-linecap="round" stroke-linejoin="round"/>
<path d="M278.66 137.476C271.258 137.7 263.941 135.856 257.53 132.15C251.119 128.443 245.869 123.022 242.37 116.496C242.37 116.496 240.37 119.972 237.154 125.456C247.474 133.166 260.212 141.406 273.784 145.868L278.66 137.476Z" fill="white"/>
<path d="M278.66 137.476C271.258 137.7 263.941 135.856 257.53 132.15C251.119 128.443 245.869 123.022 242.37 116.496C242.37 116.496 240.37 119.972 237.154 125.456C247.474 133.166 260.212 141.406 273.784 145.868L278.66 137.476Z" stroke="white" stroke-width="2" stroke-linecap="round" stroke-linejoin="round"/>
<path d="M248.268 189.718C246.102 185.787 244.133 181.75 242.37 177.622C240.541 178.513 238.481 178.816 236.472 178.49C239.572 188.546 235.226 192.78 228.496 191.91C231.408 201.248 224.754 205.11 215.644 201.626C216.93 208.996 206.358 210.102 197.876 202.986C197.476 202.642 197.008 202.186 196.476 201.702C198.68 207.801 203.054 212.875 208.762 215.952C216.318 220.3 229.076 222.378 233.182 215.536L248.268 189.718Z" fill="white"/>
<path d="M248.268 189.718C246.102 185.787 244.133 181.75 242.37 177.622C240.541 178.513 238.481 178.816 236.472 178.49C239.572 188.546 235.226 192.78 228.496 191.91C231.408 201.248 224.754 205.11 215.644 201.626C216.93 208.996 206.358 210.102 197.876 202.986C197.476 202.642 197.008 202.186 196.476 201.702C198.68 207.801 203.054 212.875 208.762 215.952C216.318 220.3 229.076 222.378 233.182 215.536L248.268 189.718Z" stroke="white" stroke-width="2" stroke-linecap="round" stroke-linejoin="round"/>
<path d="M248.268 189.718C252.916 198.034 258.966 206.086 265.92 209.034" stroke="white" stroke-width="2" stroke-linecap="round" stroke-linejoin="round"/>
<path d="M237.154 125.454C228.248 118.802 224.05 114.836 218.026 110.22C209.876 103.974 203.746 108.668 205.664 116.646C208.938 130.256 229.354 156.388 238.326 166.924C238.326 166.924 239.762 171.46 242.408 177.622" stroke="white" stroke-width="2" stroke-linecap="round" stroke-linejoin="round"/>
<path d="M288.488 149C283.469 148.53 278.522 147.478 273.746 145.864" stroke="white" stroke-width="2" stroke-linecap="round" stroke-linejoin="round"/>
<path d="M197.764 157.472C199.388 168.436 210.458 180.69 213.602 183.708C217.622 187.9 222.836 190.751 228.534 191.872" stroke="white" stroke-width="2" stroke-linecap="round" stroke-linejoin="round"/>
<path d="M242.4 177.622C238.052 179.852 230.722 178.488 222.29 170.704C218.396 167.104 206.564 153.304 206.942 142.504" stroke="white" stroke-width="2" stroke-linecap="round" stroke-linejoin="round"/>
<path d="M191.11 172.518C193.264 180.608 199.876 189.268 202.564 192.174C206.176 196.264 210.659 199.494 215.682 201.626" stroke="white" stroke-width="2" stroke-linecap="round" stroke-linejoin="round"/>
<path d="M341.034 158.834L388.022 199.396" stroke="white" stroke-width="2" stroke-linecap="round" stroke-linejoin="round"/>
<path d="M265.316 250.768L309.506 289.402" stroke="white" stroke-width="2" stroke-linecap="round" stroke-linejoin="round"/>
<path d="M267.432 321.8C268.397 321.799 269.341 322.085 270.144 322.621C270.947 323.157 271.573 323.918 271.943 324.81C272.313 325.702 272.41 326.683 272.222 327.63C272.034 328.577 271.57 329.447 270.887 330.13C270.205 330.813 269.335 331.278 268.388 331.466C267.441 331.655 266.46 331.558 265.568 331.188C264.676 330.819 263.914 330.193 263.377 329.39C262.841 328.587 262.555 327.643 262.556 326.678C262.559 325.386 263.073 324.147 263.987 323.233C264.901 322.319 266.139 321.804 267.432 321.8Z" stroke="white" stroke-width="2" stroke-linecap="round" stroke-linejoin="round"/>
<path d="M160.15 47.998L160.112 80.96" stroke="white" stroke-width="2" stroke-linecap="round" stroke-linejoin="round"/>
<path d="M176.632 64.516L143.63 64.48" stroke="white" stroke-width="2" stroke-linecap="round" stroke-linejoin="round"/>
<path d="M349.162 102.32L352.526 109.086L359.972 110.182L354.566 115.436L355.852 122.884L349.162 119.368L342.508 122.884L343.756 115.436L338.35 110.182L345.834 109.086L349.162 102.32Z" stroke="white" stroke-width="2" stroke-linecap="round" stroke-linejoin="round"/>
</svg>
