<svg width="400" height="400" viewBox="0 0 400 400" fill="none" xmlns="http://www.w3.org/2000/svg">
<path d="M261.031 114.836C269.871 113.372 277.71 114.128 283.276 118.487L274.664 157.82C273.89 161.355 272.083 164.575 269.481 167.074L268.951 167.564C266.062 170.125 262.437 171.704 258.594 172.073H258.593L212.051 176.573L209.405 176.829L210.991 178.961L214.167 183.233L212.768 200.366C211.5 199.651 209.839 199.08 207.981 198.622C203.998 197.641 198.709 197.088 193.324 196.969C187.933 196.85 182.357 197.162 177.786 197.951C175.823 198.291 174.011 198.724 172.464 199.264L173.088 197.967L175.106 193.767L171.017 196.001C167.3 198.032 163.739 200.333 160.36 202.887L160.336 202.905L160.313 202.924C149.956 211.427 141.305 223.675 133.072 239.106C125.148 237.13 117.827 233.25 111.746 227.799C122.562 210.448 131.109 198.012 140.842 189.695H140.843C140.844 189.694 140.845 189.693 140.847 189.692C140.848 189.691 140.85 189.689 140.852 189.688C140.858 189.682 140.87 189.673 140.885 189.66C140.915 189.635 140.962 189.595 141.025 189.543C141.152 189.439 141.344 189.283 141.6 189.078C142.112 188.669 142.882 188.067 143.9 187.307C145.938 185.786 148.973 183.63 152.937 181.107C160.866 176.059 172.511 169.546 187.342 163.707L187.366 163.698L187.39 163.688C188.383 163.257 189.332 162.73 190.225 162.117C191.675 161.347 192.999 160.313 194.425 159.197C195.904 158.039 197.574 156.726 199.813 155.294L199.812 155.293C203.058 153.224 207.192 153.041 215.296 152.929C223.266 152.819 234.625 152.743 251.711 150.52L252.742 150.385L252.978 149.372L261.031 114.836Z" fill="#243044" stroke="white" stroke-width="3"/>
<path d="M238.744 94.5684C239.116 94.4368 239.526 94.4554 239.886 94.6211C240.245 94.7862 240.525 95.0843 240.667 95.4531C240.808 95.8193 240.801 96.2243 240.65 96.585L228.46 123.205C228.287 123.567 227.98 123.846 227.604 123.982H227.602C227.227 124.118 226.812 124.101 226.45 123.934L226.449 123.933L226.316 123.863C226.017 123.687 225.786 123.414 225.663 123.087C225.523 122.712 225.536 122.296 225.699 121.93L225.698 121.929L237.895 95.3145C238.071 94.9658 238.374 94.6986 238.743 94.5684H238.744Z" fill="#243044" stroke="white" stroke-width="3"/>
<path d="M222.414 130.726C222.707 130.679 223.008 130.72 223.277 130.842C223.643 131.016 223.925 131.326 224.063 131.702L224.065 131.705C224.203 132.08 224.19 132.495 224.029 132.862C223.903 133.135 223.699 133.365 223.442 133.521L223.439 133.522C223.218 133.658 222.963 133.735 222.701 133.744L222.588 133.743C222.289 133.731 222 133.63 221.759 133.455L221.756 133.453L221.667 133.384C221.469 133.216 221.317 132.999 221.225 132.754C221.121 132.47 221.103 132.162 221.173 131.87C221.243 131.58 221.398 131.316 221.617 131.112C221.84 130.906 222.116 130.772 222.413 130.726H222.414Z" fill="#243044" stroke="white" stroke-width="3"/>
<path d="M201.416 144.962C201.327 144.984 201.235 145.005 201.141 145.027C201.122 144.984 201.103 144.942 201.084 144.9C201.195 144.922 201.306 144.941 201.416 144.962Z" fill="#0A7EA4" stroke="white" stroke-width="3"/>
<path d="M209.835 202.41C210.666 202.733 211.311 203.061 211.771 203.379C212.332 203.768 212.446 204.011 212.468 204.077C212.45 204.124 212.36 204.319 211.927 204.647C211.398 205.046 210.625 205.436 209.749 205.782C209.382 205.927 209.011 206.057 208.654 206.175L209.835 202.41Z" fill="#0A7EA4" stroke="white" stroke-width="3"/>
<path d="M174.534 205.166C174.008 205.371 173.488 205.593 172.975 205.83C172.901 205.802 172.819 205.775 172.734 205.741C172.262 205.555 171.68 205.294 171.166 204.979C170.618 204.643 170.311 204.345 170.197 204.146C170.178 204.114 170.17 204.093 170.167 204.082C170.17 204.072 170.176 204.058 170.185 204.04L170.229 203.967C170.458 203.627 171.156 203.079 172.624 202.488C173.476 202.145 174.504 201.82 175.687 201.523L174.534 205.166Z" fill="#0A7EA4" stroke="white" stroke-width="3"/>
<path d="M242.293 250.531L243.156 246.072C245.181 245.239 247.026 244.455 248.639 243.754L242.293 250.531Z" fill="#0A7EA4" stroke="white" stroke-width="3"/>
<path d="M64.4805 328.844C65.2147 328.909 66.1011 329.111 67.1318 329.476L62.8262 333.671C62.371 332.6 62.1279 331.71 62.0527 330.998C61.94 329.929 62.2071 329.457 62.4385 329.242C62.6989 329 63.2849 328.736 64.4805 328.844Z" fill="#0A7EA4" stroke="white" stroke-width="3"/>
<path d="M88.3594 349.226C88.6684 349.975 88.8929 350.66 89.0264 351.272C89.2758 352.417 89.1775 353.115 88.9902 353.489L88.9873 353.494C88.7541 353.963 88.21 354.311 86.8389 354.186C86.1122 354.12 85.3146 353.923 84.5312 353.665C85.9162 352.013 87.2482 350.479 88.3594 349.226Z" fill="#0A7EA4" stroke="white" stroke-width="3"/>
<path d="M232.509 313.364C232.22 315.101 231.943 316.831 231.677 318.496C231.102 318.158 230.626 317.808 230.268 317.459C229.581 316.791 229.519 316.349 229.554 316.136L229.557 316.118L229.56 316.1C229.634 315.582 229.982 314.974 230.893 314.302C231.333 313.978 231.874 313.665 232.509 313.364Z" fill="#0A7EA4" stroke="white" stroke-width="3"/>
<path d="M263.51 313.901C264.017 314.203 264.428 314.508 264.744 314.809C265.362 315.397 265.52 315.863 265.52 316.19C265.52 316.535 265.313 317.096 264.436 317.811C263.996 318.169 263.434 318.524 262.756 318.866C262.997 317.052 263.271 315.404 263.51 313.901Z" fill="#0A7EA4" stroke="white" stroke-width="3"/>
<path d="M233.856 331.967C234.408 331.978 235.138 332.12 236.051 332.436C237.877 333.067 240.177 334.298 242.781 336.011C247.649 339.212 253.352 343.945 258.623 349.043L259.671 350.066C264.417 354.758 268.68 359.641 271.532 363.823C272.961 365.919 273.999 367.785 274.578 369.325C275.11 370.74 275.166 371.651 275.034 372.177C274.541 372.671 273.686 372.953 272.146 372.704C270.442 372.429 268.248 371.54 265.701 370.099C260.632 367.229 254.581 362.409 248.996 357.031C243.413 351.655 238.388 345.811 235.333 340.945C233.796 338.497 232.824 336.401 232.476 334.797C232.145 333.276 232.433 332.587 232.827 332.239L232.907 332.174C233.039 332.075 233.309 331.956 233.856 331.967Z" fill="#0A7EA4" stroke="white" stroke-width="3"/>
<path d="M50.4238 350.024C50.7173 350.269 51.018 350.59 51.3193 351.009C52.0018 351.957 52.6176 353.279 53.1602 354.913C54.244 358.177 54.9389 362.379 55.4287 366.533V366.534C55.9255 370.886 56.9947 375.843 58.6025 380.163C59.3912 382.282 60.3364 384.325 61.4551 386.081L61.2471 385.951C59.7651 384.987 58.5704 383.644 57.7871 382.062C56.659 379.57 55.5847 375.746 54.4863 371.634C53.4051 367.586 52.3059 363.285 51.1436 360.069V360.068L50.8994 359.358C49.8888 356.274 49.4551 352.832 50.4238 350.024Z" fill="#0A7EA4" stroke="white" stroke-width="3"/>
<path d="M157.711 115.333C168.57 115.433 179.375 116.851 189.891 119.557L189.909 119.561L189.925 119.564C194.075 120.528 196.514 122.456 197.913 124.078C198.207 124.419 198.456 124.75 198.667 125.058C198.154 125.131 197.647 125.245 197.151 125.4L195.687 125.859L196.179 127.312C196.318 127.722 196.429 128.153 196.513 128.564C196.065 128.392 195.589 128.315 195.099 128.363C193.894 128.483 193.022 129.319 192.663 130.352C192.02 132.199 192.907 134.44 195.106 136.256C194.59 139.413 193.871 142.532 192.953 145.596C178.549 150.014 163.65 152.621 148.599 153.351H148.593C146.096 153.482 138.68 153.817 131.18 153.101C127.427 152.742 123.714 152.125 120.61 151.115C117.464 150.092 115.169 148.736 113.976 147.06L113.727 146.688C112.547 144.823 112.392 142.832 113.471 141.146C114.686 139.249 117.744 137.269 124.059 136.448L124.06 136.449C127.195 136.049 130.358 135.926 133.514 136.081L138.262 136.314L134.507 133.398C132.954 132.192 131.545 130.81 130.308 129.281C129.315 127.983 129.169 127.219 129.206 126.858C129.232 126.604 129.381 126.261 130.097 125.882C130.836 125.49 131.967 125.188 133.445 125.011C134.9 124.837 136.587 124.795 138.37 124.859V124.86C142.799 125.025 147.195 125.697 151.471 126.862L152.61 124.112C150.716 123.03 149.327 122.001 148.374 121.077C147.526 120.255 147.088 119.578 146.897 119.08L146.831 118.878C146.736 118.516 146.789 118.255 146.968 117.99C147.187 117.667 147.659 117.254 148.563 116.845C150.374 116.025 153.414 115.447 157.711 115.333Z" fill="#0A7EA4" stroke="white" stroke-width="3"/>
<mask id="path-15-inside-1_3625_1130" fill="white">
<path d="M212.157 178.07L215.709 182.796L216.125 177.692L212.157 178.07Z"/>
</mask>
<path d="M212.157 178.07L215.709 182.796L216.125 177.692L212.157 178.07Z" fill="#0A7EA4"/>
<path d="M212.157 178.07L211.873 175.084L206.542 175.592L209.759 179.873L212.157 178.07ZM215.709 182.796L213.311 184.599L218.058 190.914L218.699 183.04L215.709 182.796ZM216.125 177.692L219.115 177.936L219.406 174.366L215.841 174.706L216.125 177.692ZM212.157 178.07L209.759 179.873L213.311 184.599L215.709 182.796L218.108 180.994L214.555 176.268L212.157 178.07ZM215.709 182.796L218.699 183.04L219.115 177.936L216.125 177.692L213.135 177.449L212.719 182.553L215.709 182.796ZM216.125 177.692L215.841 174.706L211.873 175.084L212.157 178.07L212.442 181.057L216.41 180.679L216.125 177.692Z" fill="white" mask="url(#path-15-inside-1_3625_1130)"/>
<path d="M112.185 260.836L99.3301 254.938" stroke="white" stroke-width="3" stroke-linecap="round" stroke-linejoin="round"/>
<path d="M125.194 266.772L114.87 262.046" stroke="white" stroke-width="3" stroke-linecap="round" stroke-linejoin="round"/>
<path d="M228.415 313.997L163.874 284.468" stroke="white" stroke-width="3" stroke-linecap="round" stroke-linejoin="round"/>
<path d="M214.993 191.719L339.159 166.765" stroke="white" stroke-width="3" stroke-linecap="round" stroke-linejoin="round"/>
<path d="M164.401 201.89L170.113 200.756" stroke="white" stroke-width="3" stroke-linecap="round" stroke-linejoin="round"/>
<path d="M47.6079 225.37L121.148 210.587" stroke="white" stroke-width="3" stroke-linecap="round" stroke-linejoin="round"/>
<path d="M263.503 320.16L266.564 325.605" stroke="white" stroke-width="3" stroke-linecap="round" stroke-linejoin="round"/>
<path d="M224.559 251.232L236.505 272.368" stroke="white" stroke-width="3" stroke-linecap="round" stroke-linejoin="round"/>
<path d="M120.279 66.5684L147.96 115.575" stroke="white" stroke-width="3" stroke-linecap="round" stroke-linejoin="round"/>
<path d="M176.767 166.576L168.964 152.762" stroke="white" stroke-width="3" stroke-linecap="round" stroke-linejoin="round"/>
<path d="M327.931 146.801L339.159 166.767C340.439 169.561 341.101 172.598 341.101 175.671C341.101 178.744 340.439 181.781 339.159 184.575L280.026 313.886C278.327 317.593 275.612 320.743 272.195 322.972C268.779 325.201 264.801 326.415 260.723 326.476" stroke="white" stroke-width="3" stroke-linecap="round" stroke-linejoin="round"/>
<path d="M236.469 43.1263L266.185 37.1145L281.047 63.5059" stroke="white" stroke-width="3" stroke-linecap="round" stroke-linejoin="round"/>
<path d="M142.85 62.0312L120.279 66.5685C117.331 67.4419 114.605 68.9363 112.283 70.9516C109.961 72.9669 108.098 75.4562 106.819 78.2517L47.6839 207.562C46.4986 210.135 45.8334 212.919 45.7263 215.751C45.6192 218.581 46.0724 221.406 47.06 224.063C48.0476 226.718 49.5499 229.153 51.481 231.227C53.4119 233.301 55.7336 234.972 58.3125 236.146L85.6869 248.699" stroke="white" stroke-width="3" stroke-linecap="round" stroke-linejoin="round"/>
<path d="M131.584 86.57L166.218 10.95L351.334 95.6822L316.702 171.302" stroke="white" stroke-width="3" stroke-linecap="round" stroke-linejoin="round"/>
<path d="M225.769 151.225L206.446 142.377" stroke="white" stroke-width="3" stroke-linecap="round" stroke-linejoin="round"/>
<path d="M186.482 117.083L250.345 71.7107L255.863 130.089" stroke="white" stroke-width="3" stroke-linecap="round" stroke-linejoin="round"/>
<path d="M229.814 123.851C229.472 124.569 228.861 125.123 228.113 125.393C227.367 125.663 226.543 125.628 225.82 125.295C225.098 124.961 224.537 124.357 224.258 123.612C223.98 122.867 224.005 122.043 224.33 121.317L236.505 94.6612C236.847 93.9432 237.458 93.389 238.206 93.1188C238.952 92.8483 239.776 92.8837 240.499 93.2171C241.221 93.5506 241.782 94.1551 242.061 94.8998C242.339 95.6443 242.313 96.4689 241.989 97.1945L229.814 123.851Z" stroke="white" stroke-width="3" stroke-linecap="round" stroke-linejoin="round"/>
<path d="M225.391 133.492C225.14 134.034 224.736 134.49 224.227 134.801C223.717 135.113 223.126 135.266 222.529 135.242C221.934 135.219 221.357 135.018 220.875 134.667C220.392 134.316 220.024 133.83 219.819 133.27C219.612 132.709 219.576 132.101 219.715 131.52C219.854 130.94 220.163 130.414 220.601 130.009C221.041 129.604 221.59 129.337 222.179 129.244C222.768 129.151 223.373 129.234 223.914 129.484C224.636 129.825 225.198 130.436 225.472 131.186C225.749 131.936 225.719 132.764 225.391 133.492Z" stroke="white" stroke-width="3" stroke-linecap="round" stroke-linejoin="round"/>
<path d="M194.158 146.726C192.987 151.553 191.407 156.271 189.434 160.829" stroke="white" stroke-width="3" stroke-linecap="round" stroke-linejoin="round"/>
<path d="M200.283 146.726C209.849 144.986 206.864 140.6 201.117 126.497" stroke="white" stroke-width="3" stroke-linecap="round" stroke-linejoin="round"/>
<path d="M203.196 152.397C201.387 149.27 199.82 146.011 198.506 142.646C202.486 143.856 205.917 144.31 206.41 142.533" stroke="white" stroke-width="3" stroke-linecap="round" stroke-linejoin="round"/>
<path d="M175.744 206.314L177.899 199.508" stroke="white" stroke-width="3" stroke-linecap="round" stroke-linejoin="round"/>
<path d="M208.866 200.491L206.446 208.318" stroke="white" stroke-width="3" stroke-linecap="round" stroke-linejoin="round"/>
<path d="M192.834 256.942L89.9932 354.681" stroke="white" stroke-width="3" stroke-linecap="round" stroke-linejoin="round"/>
<path d="M172.956 207.417C172.184 207.166 167.408 205.5 168.976 203.138C171.919 198.706 189.157 198.269 194.896 198.491C199.724 198.678 215.777 200.257 213.835 204.7C213.214 206.117 210.482 207.393 206.444 208.318" stroke="white" stroke-width="3" stroke-linecap="round" stroke-linejoin="round"/>
<path d="M241.838 244.994C249.476 241.894 254.654 239.398 254.881 239.285L239.8 255.354" stroke="white" stroke-width="3" stroke-linecap="round" stroke-linejoin="round"/>
<path d="M228.113 315.434L241.79 244.994C224.362 252.026 194.259 262.168 181.71 253.949C166.996 244.317 173.468 224.722 173.468 224.722" stroke="white" stroke-width="3" stroke-linecap="round" stroke-linejoin="round"/>
<path d="M114.381 231.84C112.134 236.158 109.475 240.248 106.44 244.052C103.847 247.093 100.917 249.831 97.7063 252.211C92.9801 255.692 92.9463 256.691 99.0993 255.009C101.475 254.391 103.781 253.529 105.981 252.438C113.549 248.753 120.678 244.226 127.23 238.94" stroke="white" stroke-width="3" stroke-linecap="round" stroke-linejoin="round"/>
<path d="M111.507 249.569C115.515 247.83 112.613 256.148 112.263 260.08C111.969 263.369 112.822 266.846 116.76 258.568C120.344 251.945 124.322 245.545 128.671 239.398" stroke="white" stroke-width="3" stroke-linecap="round" stroke-linejoin="round"/>
<path d="M99.2563 251.006C96.4597 252.315 93.5487 253.366 90.56 254.144C84.8109 255.537 84.8128 253.842 85.6447 253.348C88.8963 251.422 94.4166 248.888 97.3658 247.034C102.432 243.802 107.269 240.228 111.845 236.333" stroke="white" stroke-width="3" stroke-linecap="round" stroke-linejoin="round"/>
<path d="M92.5244 249.682C91.5036 249.834 91.3901 249.881 90.9006 249.909C84.9644 250.779 85.1137 249.075 85.9853 248.661C89.422 247.028 94.7572 245.183 98.0447 243.86C101.98 242.638 105.713 240.841 109.123 238.528" stroke="white" stroke-width="3" stroke-linecap="round" stroke-linejoin="round"/>
<path d="M275.26 84.6416C279.24 75.416 276.822 76.3672 274.504 79.9532C271.493 84.6118 265.051 94.2075 264.787 95.1528C263.959 97.7398 264.93 108.852 265.125 112.832" stroke="white" stroke-width="3" stroke-linecap="round" stroke-linejoin="round"/>
<path d="M270.082 91.523C272.918 88.2713 278.697 79.6108 281.954 74.9622C283.465 72.805 284.904 77.987 275.984 91.3339" stroke="white" stroke-width="3" stroke-linecap="round" stroke-linejoin="round"/>
<path d="M273.674 93.4514C277.001 90.6157 281.236 86.2655 285.168 82.4109C287.019 80.596 289.214 83.6586 279.723 94.8882" stroke="white" stroke-width="3" stroke-linecap="round" stroke-linejoin="round"/>
<path d="M277.793 95.5688C280.977 94.3588 283.962 93.3201 288.758 91.0694C290.995 90.0206 291.085 93.2862 280.062 101.694C278.024 103.248 279.23 104.794 280.593 108.122C281.682 110.449 282.036 113.053 281.606 115.586" stroke="white" stroke-width="3" stroke-linecap="round" stroke-linejoin="round"/>
<path d="M264.938 109.936C263.893 106.021 262.371 102.249 260.401 98.7069C256.463 90.8464 259.605 91.7976 261.499 93.8294C262.675 95.102 263.657 96.5417 264.411 98.1019" stroke="white" stroke-width="3" stroke-linecap="round" stroke-linejoin="round"/>
<path d="M81.9754 354.34C90.023 357.956 92.9881 354.241 88.6698 346.589C84.0739 339.131 77.5574 333.045 69.8026 328.97C61.751 325.095 58.0437 328.174 62.3242 336.07" stroke="white" stroke-width="3" stroke-linecap="round" stroke-linejoin="round"/>
<path d="M261.031 321.191C263.776 320.26 267.598 318.347 266.942 315.509C265.947 311.243 255.563 309.575 250.68 309.301C244.723 308.964 230.869 309.87 228.316 314.954C227.024 317.525 230.163 319.617 232.839 320.725" stroke="white" stroke-width="3" stroke-linecap="round" stroke-linejoin="round"/>
<path d="M234.427 311.01L230.833 333.242C231.961 343.391 245.645 356.88 254.514 363.988C258.675 367.325 268.563 374.417 273.833 374.417C281.079 374.417 276.712 359.851 268.159 349.198C257.573 335.951 260.995 321.418 262.339 311.615" stroke="white" stroke-width="3" stroke-linecap="round" stroke-linejoin="round"/>
<path d="M69.8027 328.97C63.9023 334.711 55.2936 342.502 51.7673 345.417C47.3893 349.031 47.7873 355.25 49.7236 360.579C51.9961 366.853 54.02 377.448 56.4179 382.698C57.3184 384.536 58.7009 386.097 60.418 387.213C62.1352 388.327 64.1228 388.956 66.1689 389.03H80.8392C82.6939 389.03 83.4799 387.275 83.0282 385.496C82.1068 381.832 78.302 379.03 72.8195 376.383C72.8386 372.531 73.4507 368.706 74.6344 365.04C76.7179 360.089 84.9187 350.712 88.6619 346.589" stroke="white" stroke-width="3" stroke-linecap="round" stroke-linejoin="round"/>
<path d="M49.6855 347.988C54.0635 349.047 55.9341 358.006 56.9092 366.364C57.9042 374.869 61.1042 385.703 66.1707 389.03" stroke="white" stroke-width="3" stroke-linecap="round" stroke-linejoin="round"/>
<path d="M152.189 125.516C148.067 123.21 145.868 121.057 145.385 119.278C144.541 116.181 148.937 114.056 157.709 113.833C168.694 113.938 179.625 115.371 190.265 118.104C199.222 120.193 201.115 126.535 201.115 126.535C199.935 126.376 198.735 126.48 197.6 126.838C198.395 129.178 198.544 132.396 197.069 130.77C194.542 127.974 191.74 132.169 196.731 135.61C196.158 139.4 195.299 143.141 194.16 146.801C194.198 147.784 171.245 153.693 148.672 154.855C143.644 155.114 118.649 156.22 112.755 147.93C112.251 147.234 111.879 146.452 111.656 145.623C109.742 138.415 117.179 135.844 123.871 134.961C127.093 134.557 130.344 134.43 133.588 134.583C131.939 133.298 130.442 131.829 129.127 130.205C124.794 124.521 131.093 123.094 138.426 123.361C143.083 123.527 147.703 124.251 152.189 125.516ZM152.189 125.516C153.323 125.894 154.041 126.235 154.155 126.537C153.476 126.197 152.794 125.857 152.189 125.516Z" stroke="white" stroke-width="3" stroke-linecap="round" stroke-linejoin="round"/>
<path d="M215.709 182.796L212.157 178.07L216.125 177.692" stroke="white" stroke-width="3" stroke-linecap="round" stroke-linejoin="round"/>
<path d="M182.816 174.554L168.978 203.138" stroke="white" stroke-width="3" stroke-linecap="round" stroke-linejoin="round"/>
<path d="M213.97 204.084L216.119 177.692L258.731 173.571C262.89 173.171 266.814 171.462 269.939 168.69C273.065 165.918 275.23 162.225 276.123 158.144L284.933 117.915C278.619 112.432 269.547 111.746 259.827 113.566L251.511 149.032C217.52 153.456 206.398 149.363 199.029 154.061C194.414 157.004 192.148 159.468 189.463 160.867C188.632 161.445 187.745 161.939 186.816 162.341C156.955 174.104 139.902 188.581 139.902 188.581C129.769 197.24 120.959 210.209 109.843 228.093C116.571 234.427 124.876 238.841 133.89 240.873C142.248 225.03 150.943 212.629 161.303 204.121C164.623 201.612 168.124 199.351 171.776 197.355" stroke="white" stroke-width="3" stroke-linecap="round" stroke-linejoin="round"/>
<path d="M267.019 316.19L281.763 233.537C282.476 229.535 282.243 225.422 281.085 221.524C279.927 217.627 277.873 214.055 275.091 211.092C272.307 208.129 268.87 205.856 265.053 204.455C261.238 203.055 257.147 202.565 253.107 203.025L206.448 208.318C197.336 203.894 186.635 204.877 175.746 206.314C165.555 209.59 154.055 221.591 152.115 240.835L61.333 328.251" stroke="white" stroke-width="3" stroke-linecap="round" stroke-linejoin="round"/>
<path d="M28.8164 389.05H368.123" stroke="white" stroke-width="3" stroke-linecap="round" stroke-linejoin="round"/>
<path d="M90.4827 63.4681C93.042 61.7506 95.0372 59.3158 96.2183 56.4687C97.3991 53.6218 97.7132 50.4896 97.1209 47.4648C96.5289 44.44 95.0567 41.6575 92.8894 39.466C90.7221 37.2746 87.956 35.7719 84.938 35.1463C81.9199 34.5208 78.7843 34.8002 75.9244 35.9496C73.0646 37.099 70.6078 39.0674 68.8621 41.6076C67.1165 44.1476 66.1597 47.1468 66.1118 50.2285C66.0638 53.3104 66.9269 56.3378 68.5927 58.9309C69.7316 60.6668 71.2012 62.1613 72.918 63.329C74.6345 64.4966 76.5646 65.3145 78.5974 65.7359C80.6304 66.1572 82.7265 66.1739 84.7658 65.7847C86.8052 65.3957 88.7478 64.6084 90.4827 63.4681Z" stroke="white" stroke-width="3" stroke-linecap="round" stroke-linejoin="round"/>
<path d="M74.2324 55.6792L91.3466 52.2007C91.0047 54.0462 90.119 55.7475 88.8034 57.0859C87.4878 58.4246 85.8023 59.3396 83.9629 59.7135C82.1238 60.0873 80.2148 59.903 78.4809 59.1842C76.7472 58.4654 75.2676 57.2447 74.2324 55.6792Z" stroke="white" stroke-width="3" stroke-linecap="round" stroke-linejoin="round"/>
<path d="M76.7577 42.181C75.6415 42.8974 74.6927 43.8457 73.9753 44.9613C73.2581 46.0769 72.7892 47.3337 72.6006 48.6465L89.8778 45.1302C88.5212 43.0083 86.3817 41.508 83.9247 40.9558C81.4674 40.4034 78.8918 40.8438 76.7577 42.181Z" stroke="white" stroke-width="3" stroke-linecap="round" stroke-linejoin="round"/>
<path d="M306.795 339.027L314.546 336.078" stroke="white" stroke-width="3" stroke-linecap="round" stroke-linejoin="round"/>
<path d="M328.27 330.86L336.021 327.911" stroke="white" stroke-width="3" stroke-linecap="round" stroke-linejoin="round"/>
<path d="M315.832 318.875L318.781 326.588" stroke="white" stroke-width="3" stroke-linecap="round" stroke-linejoin="round"/>
<path d="M324.035 340.351L326.986 348.064" stroke="white" stroke-width="3" stroke-linecap="round" stroke-linejoin="round"/>
<path d="M307.174 327.079L314.698 330.482" stroke="white" stroke-width="3" stroke-linecap="round" stroke-linejoin="round"/>
<path d="M328.12 336.456L335.682 339.859" stroke="white" stroke-width="3" stroke-linecap="round" stroke-linejoin="round"/>
<path d="M327.816 319.215L324.413 326.777" stroke="white" stroke-width="3" stroke-linecap="round" stroke-linejoin="round"/>
<path d="M318.403 340.162L315.036 347.724" stroke="white" stroke-width="3" stroke-linecap="round" stroke-linejoin="round"/>
<path d="M46.2451 267.831L50.4818 289.042" stroke="white" stroke-width="3" stroke-linecap="round" stroke-linejoin="round"/>
<path d="M58.9888 276.338L37.7773 280.573" stroke="white" stroke-width="3" stroke-linecap="round" stroke-linejoin="round"/>
<path d="M371.184 140.147C371.184 140.805 370.989 141.448 370.623 141.995C370.257 142.543 369.737 142.969 369.13 143.221C368.521 143.472 367.853 143.538 367.206 143.41C366.561 143.281 365.968 142.964 365.502 142.499C365.039 142.033 364.72 141.44 364.593 140.795C364.466 140.149 364.531 139.48 364.784 138.872C365.035 138.264 365.463 137.744 366.01 137.379C366.557 137.014 367.2 136.819 367.859 136.819C368.74 136.821 369.586 137.172 370.209 137.796C370.832 138.419 371.182 139.265 371.184 140.147Z" stroke="white" stroke-width="3" stroke-linecap="round" stroke-linejoin="round"/>
<path d="M200.283 206.169C200.283 206.169 199.658 207.023 198.774 208.463M268.289 225.474C267.39 224.72 266.305 224.214 265.147 224.011C263.989 223.808 262.799 223.914 261.694 224.318C260.679 224.69 259.611 225.076 258.496 225.474M248.485 228.895C246.487 229.543 244.429 230.192 242.335 230.827M198.373 235.868C197.387 235.368 196.557 234.749 195.905 233.997C195.29 233.289 194.785 232.542 194.376 231.764M193.186 222.36C193.466 220.573 193.957 218.801 194.555 217.124M232.051 233.719C229.884 234.276 227.723 234.793 225.594 235.257L232.051 233.719ZM215.333 237.06C213.055 237.342 210.88 237.519 208.854 237.565L215.333 237.06Z" stroke="white" stroke-width="3" stroke-linecap="round" stroke-linejoin="round"/>
<path d="M270.574 231.76L269.905 235.48M256.66 309.233L257.271 305.828M267.676 247.893L266.433 254.812M264.244 267.005L262.974 274.078M260.781 286.284L259.493 293.454" stroke="white" stroke-width="3" stroke-linecap="round" stroke-linejoin="round"/>
<path d="M177.03 249.758L174.381 252.219M82.0151 338.044L84.505 335.73M166.006 260L160.883 264.762M152.329 272.708L147.155 277.516M138.831 285.251L133.832 289.896M125.257 297.864L120.161 302.6M111.709 310.453L106.608 315.193M98.1353 323.065L93.0375 327.802" stroke="white" stroke-width="3" stroke-linecap="round" stroke-linejoin="round"/>
<path d="M254.693 148.692L251.517 149.032" stroke="white" stroke-width="3" stroke-linecap="round" stroke-linejoin="round"/>
</svg>
