<svg width="400" height="400" viewBox="0 0 400 400" fill="none" xmlns="http://www.w3.org/2000/svg">
<path d="M231.602 179.677C236.689 182.245 247.683 190.972 257.468 220.252L258.228 222.524L259.939 220.849L299.024 182.614C304.951 184.967 310.236 188.701 314.436 193.512V193.511C318.646 198.338 321.637 204.1 323.162 210.312C304.934 226.265 286.611 242.183 267.481 257.434L267.479 257.436C263.897 260.302 259.397 261.76 254.825 261.547L254.383 261.521L253.94 261.485C249.529 261.073 245.405 259.119 242.29 255.969L241.982 255.65C230.86 243.809 216.617 226.704 208.479 209.897L205.629 210.59L206.183 231.852L192.954 253.594L192.529 254.292L192.887 255.028C201.143 272.033 212.937 290.665 226.965 310.258C219.208 323.076 206.493 329.354 191.192 331.656C178.121 311.37 166.91 289.943 157.698 267.636C156.488 264.611 155.936 261.362 156.076 258.103C156.217 254.843 157.05 251.649 158.52 248.735L187.956 190.72C194.666 189.815 204.118 188.019 212.62 185.959C217.042 184.887 221.231 183.739 224.659 182.601C227.512 181.655 229.981 180.668 231.602 179.677Z" fill="#243044" stroke="white" stroke-width="3"/>
<path d="M98.2881 12.4502C116.993 12.2728 132.135 25.7079 132.79 42.4326L132.811 43.2314C132.859 49.2178 131.037 55.07 127.6 59.9717L127.139 60.6299L127.431 61.3789L132.002 73.0977L120.156 68.4131L119.428 68.125L118.775 68.5586C115.098 70.9982 111 72.7371 106.69 73.6885L106.686 73.6895C85.4561 78.4394 64.577 64.0194 64.3887 43.8701L64.3926 43.0732C64.6873 26.6517 79.0776 13.0755 97.3994 12.4688L98.2881 12.4502ZM102.904 34.8086C102.142 34.8086 101.387 34.959 100.683 35.251C100.067 35.5064 99.5001 35.8661 99.0068 36.3135L98.7998 36.5098L98.7646 36.5459L98.7285 36.5098C97.64 35.4213 96.1635 34.8096 94.624 34.8096C93.0848 34.8096 91.609 35.4216 90.5205 36.5098H90.5195C89.4312 37.5982 88.8203 39.0749 88.8203 40.6143C88.8204 42.1536 89.4315 43.6293 90.5195 44.7178L90.5225 44.7207L97.707 51.8672L98.7646 52.9199L99.8223 51.8672L107.006 44.7207L107.009 44.7188C107.548 44.1803 107.976 43.5406 108.268 42.8359C108.56 42.1317 108.71 41.3767 108.71 40.6143C108.71 39.9469 108.595 39.2851 108.37 38.6582L108.268 38.3926C107.976 37.6877 107.547 37.0474 107.008 36.5088C106.469 35.9699 105.83 35.5425 105.127 35.251C104.423 34.959 103.667 34.8086 102.904 34.8086Z" fill="#243044" stroke="white" stroke-width="3"/>
<path d="M51.4814 181.233L51.8311 181.941L52.6143 182.052L53.2959 182.149L52.8018 182.63L52.2334 183.182L52.3691 183.962L52.4922 184.671L51.8574 184.34L51.1582 183.975L50.4609 184.344L49.8389 184.672L49.958 183.948L50.083 183.182L49.5303 182.638L49.0381 182.153L49.749 182.052L50.5391 181.94L50.8867 181.22L51.1768 180.618L51.4814 181.233Z" fill="#243044" stroke="white" stroke-width="3"/>
<path d="M65.9248 181.233L66.2744 181.941L67.0566 182.052L67.7383 182.149L67.2441 182.63L66.6768 183.182L66.8115 183.962L66.9346 184.671L66.2998 184.34L65.6016 183.975L64.9043 184.344L64.2822 184.672L64.4014 183.948L64.5273 183.175L63.9658 182.63L63.4707 182.149L64.1543 182.052L64.9365 181.941L65.2861 181.233L65.6055 180.586L65.9248 181.233Z" fill="#243044" stroke="white" stroke-width="3"/>
<path d="M80.3682 181.233L80.7178 181.941L81.5 182.052L82.1816 182.149L81.6875 182.63L81.1201 183.182L81.2549 183.962L81.3779 184.671L80.7432 184.34L80.0488 183.977L79.3535 184.34L78.7178 184.671L78.8418 183.962L78.9775 183.182L78.4092 182.63L77.9141 182.149L78.5977 182.052L79.3799 181.941L79.7295 181.233L80.0488 180.586L80.3682 181.233Z" fill="#243044" stroke="white" stroke-width="3"/>
<path d="M94.8115 181.233L95.1611 181.941L95.9434 182.052L96.625 182.149L96.1309 182.63L95.5703 183.175L95.6963 183.948L95.8145 184.672L95.1934 184.344L94.4961 183.975L93.7969 184.34L93.1611 184.671L93.2852 183.962L93.4209 183.182L92.8525 182.63L92.3574 182.149L93.041 182.052L93.8232 181.941L94.1729 181.233L94.4922 180.586L94.8115 181.233Z" fill="#243044" stroke="white" stroke-width="3"/>
<path d="M109.212 181.22L109.56 181.94L110.351 182.052L111.032 182.149L110.538 182.63L109.97 183.182L110.105 183.962L110.226 184.655L109.638 184.344L108.94 183.975L108.241 184.34L107.605 184.671L107.729 183.962L107.865 183.182L107.297 182.63L106.802 182.149L107.485 182.052L108.268 181.941L108.617 181.233L108.921 180.618L109.212 181.22Z" fill="#243044" stroke="white" stroke-width="3"/>
<path d="M321.895 316.702L322.244 317.411L323.026 317.523L333.934 319.094L326.049 326.801L325.485 327.352L325.619 328.128L327.484 338.968L317.738 333.843L317.04 333.477L316.342 333.843L306.594 338.969L308.461 328.128L308.594 327.352L308.031 326.801L300.146 319.094L311.053 317.523L311.835 317.411L312.185 316.702L317.039 306.844L321.895 316.702Z" fill="#243044" stroke="white" stroke-width="3"/>
<mask id="path-9-inside-1_3625_1304" fill="white">
<path d="M191.854 101.507C192.032 102.378 192.121 103.265 192.118 104.154L194.196 100.146C193.455 100.666 192.672 101.121 191.854 101.507Z"/>
</mask>
<path d="M191.854 101.507C192.032 102.378 192.121 103.265 192.118 104.154L194.196 100.146C193.455 100.666 192.672 101.121 191.854 101.507Z" fill="#0A7EA4"/>
<path d="M191.854 101.507L190.574 98.7935L188.44 99.7997L188.915 102.111L191.854 101.507ZM192.118 104.154L189.118 104.144L194.782 105.534L192.118 104.154ZM194.196 100.146L196.859 101.526L192.472 97.6903L194.196 100.146ZM191.854 101.507L188.915 102.111C189.052 102.78 189.121 103.461 189.118 104.144L192.118 104.154L195.118 104.164C195.122 103.068 195.012 101.976 194.792 100.903L191.854 101.507ZM192.118 104.154L194.782 105.534L196.859 101.526L194.196 100.146L191.532 98.7651L189.455 102.773L192.118 104.154ZM194.196 100.146L192.472 97.6903C191.872 98.1119 191.237 98.481 190.574 98.7935L191.854 101.507L193.133 104.22C194.107 103.761 195.039 103.219 195.919 102.601L194.196 100.146Z" fill="white" mask="url(#path-9-inside-1_3625_1304)"/>
<path d="M183.74 187.372C184.029 187.475 184.318 187.576 184.608 187.674C184.536 187.847 184.467 187.971 184.41 188.058C184.253 187.947 184.024 187.736 183.74 187.372Z" fill="#0A7EA4" stroke="white" stroke-width="3"/>
<path d="M180.119 163.866C180.266 163.979 180.455 164.163 180.677 164.44C180.81 164.607 180.946 164.8 181.088 165.017C181.021 165.008 180.954 165 180.888 164.989C180.481 164.922 180.084 164.809 179.703 164.654C179.829 164.248 179.957 163.984 180.062 163.826C180.08 163.838 180.099 163.851 180.119 163.866Z" fill="#0A7EA4" stroke="white" stroke-width="3"/>
<mask id="path-13-inside-2_3625_1304" fill="white">
<path d="M159.299 113.53L148.674 130.923C148.585 131.058 148.553 131.224 148.586 131.383C148.618 131.541 148.712 131.681 148.847 131.771C148.982 131.861 149.147 131.893 149.306 131.862C149.465 131.83 149.605 131.736 149.695 131.602L161.681 115.118C161.795 114.962 161.877 114.785 161.921 114.596C161.964 114.408 161.969 114.213 161.936 114.022C161.902 113.832 161.83 113.65 161.724 113.488C161.618 113.326 161.481 113.187 161.32 113.08C161.159 112.973 160.978 112.899 160.787 112.864C160.597 112.828 160.402 112.832 160.213 112.874C160.024 112.916 159.846 112.996 159.689 113.109C159.532 113.221 159.399 113.365 159.299 113.53Z"/>
</mask>
<path d="M159.299 113.53L148.674 130.923C148.585 131.058 148.553 131.224 148.586 131.383C148.618 131.541 148.712 131.681 148.847 131.771C148.982 131.861 149.147 131.893 149.306 131.862C149.465 131.83 149.605 131.736 149.695 131.602L161.681 115.118C161.795 114.962 161.877 114.785 161.921 114.596C161.964 114.408 161.969 114.213 161.936 114.022C161.902 113.832 161.83 113.65 161.724 113.488C161.618 113.326 161.481 113.187 161.32 113.08C161.159 112.973 160.978 112.899 160.787 112.864C160.597 112.828 160.402 112.832 160.213 112.874C160.024 112.916 159.846 112.996 159.689 113.109C159.532 113.221 159.399 113.365 159.299 113.53Z" fill="#0A7EA4"/>
<path d="M159.299 113.53L161.859 115.094L161.865 115.085L159.299 113.53ZM148.674 130.923L151.178 132.576L151.207 132.532L151.235 132.487L148.674 130.923ZM148.586 131.383L145.645 131.979L145.646 131.983L148.586 131.383ZM148.847 131.771L147.185 134.269L147.187 134.27L148.847 131.771ZM149.306 131.862L149.891 134.804L149.895 134.803L149.306 131.862ZM149.695 131.602L147.269 129.837L147.235 129.883L147.204 129.931L149.695 131.602ZM161.681 115.118L159.261 113.346L159.255 113.354L161.681 115.118ZM161.936 114.022L158.982 114.546L158.982 114.547L161.936 114.022ZM161.32 113.08L159.653 115.574L159.656 115.577L161.32 113.08ZM160.787 112.864L161.34 109.915L161.337 109.914L160.787 112.864ZM160.213 112.874L160.864 115.802L160.867 115.802L160.213 112.874ZM159.689 113.109L161.438 115.546L161.44 115.545L159.689 113.109ZM159.299 113.53L156.739 111.967L146.114 129.359L148.674 130.923L151.235 132.487L161.859 115.094L159.299 113.53ZM148.674 130.923L146.171 129.27C145.642 130.07 145.456 131.045 145.645 131.979L148.586 131.383L151.526 130.786C151.651 131.402 151.528 132.046 151.178 132.576L148.674 130.923ZM148.586 131.383L145.646 131.983C145.837 132.917 146.389 133.739 147.185 134.269L148.847 131.771L150.508 129.273C151.035 129.623 151.399 130.166 151.525 130.782L148.586 131.383ZM148.847 131.771L147.187 134.27C147.982 134.798 148.954 134.99 149.891 134.804L149.306 131.862L148.72 128.919C149.34 128.796 149.982 128.923 150.507 129.272L148.847 131.771ZM149.306 131.862L149.895 134.803C150.828 134.616 151.654 134.068 152.187 133.273L149.695 131.602L147.204 129.931C147.556 129.405 148.101 129.043 148.717 128.92L149.306 131.862ZM149.695 131.602L152.122 133.366L164.107 116.883L161.681 115.118L159.255 113.354L147.269 129.837L149.695 131.602ZM161.681 115.118L164.102 116.891C164.456 116.407 164.708 115.857 164.843 115.275L161.921 114.596L158.998 113.917C159.046 113.713 159.135 113.518 159.261 113.346L161.681 115.118ZM161.921 114.596L164.843 115.275C164.978 114.692 164.994 114.088 164.889 113.497L161.936 114.022L158.982 114.547C158.945 114.337 158.951 114.123 158.998 113.917L161.921 114.596ZM161.936 114.022L164.889 113.498C164.785 112.91 164.563 112.348 164.235 111.847L161.724 113.488L159.213 115.129C159.097 114.952 159.019 114.753 158.982 114.546L161.936 114.022ZM161.724 113.488L164.235 111.847C163.907 111.344 163.48 110.915 162.983 110.583L161.32 113.08L159.656 115.577C159.481 115.46 159.33 115.308 159.213 115.129L161.724 113.488ZM161.32 113.08L162.986 110.586C162.485 110.251 161.924 110.024 161.34 109.915L160.787 112.864L160.235 115.812C160.031 115.774 159.832 115.694 159.653 115.574L161.32 113.08ZM160.787 112.864L161.337 109.914C160.749 109.805 160.144 109.815 159.559 109.946L160.213 112.874L160.867 115.802C160.66 115.848 160.446 115.852 160.238 115.813L160.787 112.864ZM160.213 112.874L159.562 109.945C158.976 110.076 158.423 110.324 157.938 110.672L159.689 113.109L161.44 115.545C161.268 115.668 161.073 115.756 160.864 115.802L160.213 112.874ZM159.689 113.109L157.94 110.671C157.452 111.021 157.042 111.465 156.733 111.976L159.299 113.53L161.865 115.085C161.756 115.264 161.611 115.422 161.438 115.546L159.689 113.109Z" fill="white" mask="url(#path-13-inside-2_3625_1304)"/>
<path d="M188.696 97.3394C188.803 97.3394 188.906 97.3804 188.982 97.4546C189.047 97.5173 189.086 97.5999 189.1 97.688C189.086 97.7761 189.047 97.8586 188.982 97.9214C188.906 97.9956 188.803 98.0366 188.696 98.0366C188.616 98.0366 188.539 98.0132 188.473 97.9702L188.411 97.9214C188.346 97.8586 188.306 97.7764 188.292 97.688C188.302 97.6257 188.324 97.5666 188.36 97.5151L188.411 97.4546C188.488 97.3807 188.59 97.3394 188.696 97.3394Z" fill="#0A7EA4" stroke="white" stroke-width="3"/>
<path d="M208.756 216.902C209.775 218.731 210.838 220.536 211.943 222.315L209.022 227.098L208.756 216.902Z" fill="#0A7EA4" stroke="white" stroke-width="3"/>
<path d="M333.85 176.862C339.479 176.69 345.075 176.664 349.937 176.907C353.134 177.066 355.957 177.34 358.242 177.747C349.104 183.814 339.346 188.898 329.13 192.913C326.102 193.791 323.22 195.104 320.574 196.808C316.467 190.225 310.616 184.911 303.675 181.455L306.2 178.568C312.055 178.066 322.976 177.194 333.85 176.862Z" fill="#0A7EA4" stroke="white" stroke-width="3"/>
<path d="M221.238 328.512C220.223 334.304 218.266 345.089 215.792 355.688C214.511 361.174 213.096 366.589 211.608 371.228C210.628 374.284 209.63 376.948 208.643 379.057C205.135 368.646 202.731 357.892 201.473 346.972C201.104 342.52 200.796 337.941 198.111 333.764H198.112L197.915 333.452C205.298 331.822 212.265 328.674 218.37 324.206L221.238 328.512Z" fill="#0A7EA4" stroke="white" stroke-width="3"/>
<path d="M206.253 50.2998C209.594 50.2998 212.604 52.4209 214.854 55.7471C217.097 59.0616 218.4 63.3266 218.4 67.0244C218.4 70.4937 216.924 73.0072 214.582 74.7109C212.187 76.453 208.81 77.395 205.048 77.4326L203.139 77.4512L203.173 77.5859H198.312C196.791 77.5861 195.572 78.4781 194.729 79.585C194.478 79.9132 194.25 80.2735 194.043 80.6602C193.612 80.1143 193.142 79.6005 192.643 79.1377C191.354 77.9433 189.738 76.958 187.993 76.7832C186.549 76.6385 185.167 77.0671 184 78.1094L184.026 77.8604L183.393 77.8838C183.925 76.5717 184.743 75.385 185.795 74.4131C187.324 73.0001 189.267 72.1168 191.337 71.8945L193.378 71.6758L192.549 69.7969C191.829 68.1656 191.564 66.3691 191.783 64.5996C192.232 61.0407 194.054 57.4336 196.709 54.7217C199.363 52.0104 202.741 50.2998 206.253 50.2998Z" fill="#0A7EA4" stroke="white" stroke-width="3"/>
<path d="M219.9 67.0242C219.9 59.0085 214.307 48.7998 206.253 48.7998C198.235 48.7998 191.28 56.5887 190.295 64.4153C190.042 66.4543 190.347 68.5237 191.177 70.4032C188.786 70.66 186.542 71.6798 184.777 73.3116C183.011 74.9436 181.818 77.1008 181.374 79.4637L182.355 79.4259C182.077 82.1005 181.948 84.7886 181.969 87.4774C183.591 73.0499 191.863 78.4886 194.416 84.1143C195.013 81.1652 196.534 79.0856 198.313 79.0856H203.642C204.219 79.1069 204.774 79.3049 205.234 79.6528C205.18 79.404 205.123 79.1672 205.063 78.9324C213.017 78.8528 219.9 74.9584 219.9 67.0242Z" stroke="white" stroke-width="3" stroke-linejoin="round"/>
<path d="M182.779 320.879C157.356 317.255 133.808 305.44 115.704 287.228" stroke="white" stroke-width="3" stroke-linecap="round" stroke-linejoin="round"/>
<path d="M317.04 217.62C314.051 242.741 303.096 266.247 285.781 284.693C268.464 303.138 245.698 315.554 220.813 320.123" stroke="white" stroke-width="3" stroke-linecap="round" stroke-linejoin="round"/>
<path d="M304.827 149.677C308.389 156.597 311.253 163.855 313.372 171.344" stroke="white" stroke-width="3" stroke-linecap="round" stroke-linejoin="round"/>
<path d="M84.397 236.751V197.845H115.099C116.524 197.845 117.89 197.279 118.898 196.271C119.906 195.263 120.472 193.897 120.472 192.472V172.098C120.472 171.394 120.333 170.696 120.062 170.045C119.792 169.395 119.396 168.804 118.897 168.307C118.397 167.81 117.805 167.416 117.153 167.148C116.501 166.88 115.803 166.744 115.099 166.747H44.9989C44.2921 166.748 43.5922 166.888 42.9395 167.159C42.2868 167.431 41.6939 167.828 41.1953 168.329C40.6964 168.83 40.3013 169.425 40.0329 170.079C39.7642 170.733 39.6273 171.433 39.6299 172.14V192.476C39.6299 193.901 40.1961 195.267 41.2036 196.275C42.2113 197.283 43.5779 197.849 45.0029 197.849H75.7007V239.999" stroke="white" stroke-width="3" stroke-linecap="round" stroke-linejoin="round"/>
<path d="M84.3975 260.496V251.346" stroke="white" stroke-width="3" stroke-linecap="round" stroke-linejoin="round"/>
<path d="M75.7012 265.129V287.303H84.3975V262.349" stroke="white" stroke-width="3" stroke-linecap="round" stroke-linejoin="round"/>
<path d="M84.3974 216.517H114.494C117.944 216.517 121.252 217.888 123.691 220.326C126.13 222.766 127.501 226.075 127.501 229.524V274.253C127.502 277.706 126.132 281.015 123.693 283.459C121.255 285.9 117.946 287.275 114.494 287.279H45.6043C43.8971 287.281 42.2062 286.947 40.6285 286.294C39.0506 285.644 37.6168 284.686 36.4087 283.48C35.2008 282.275 34.2424 280.842 33.5885 279.266C32.9346 277.688 32.5979 275.998 32.5977 274.291V229.516C32.5977 226.067 33.968 222.758 36.4071 220.318C38.8463 217.88 42.1546 216.509 45.6043 216.509H75.7009" stroke="white" stroke-width="3" stroke-linecap="round" stroke-linejoin="round"/>
<path d="M80.2755 258.307C84.7729 257.953 84.8884 252.478 80.5402 252.522C77.2885 252.556 75.02 252.675 72.4489 252.787C68.1385 252.986 68.1783 258.723 71.7305 258.874C74.5867 258.833 77.4388 258.641 80.2755 258.307Z" stroke="white" stroke-width="3" stroke-linecap="round" stroke-linejoin="round"/>
<path d="M76.923 240.041C75.3668 240.003 74.2066 240.003 72.744 240.003C68.6227 239.965 68.4715 245.712 71.8744 246.053C73.5872 246.166 75.3057 246.166 77.0185 246.053" stroke="white" stroke-width="3" stroke-linecap="round" stroke-linejoin="round"/>
<path d="M81.2974 264.476C85.6436 264.002 85.6455 258.729 81.4486 258.88C78.3104 258.994 76.1174 259.187 73.622 259.372C69.4629 259.68 69.6141 265.22 73.0548 265.27C75.8143 265.151 78.5657 264.886 81.2974 264.476Z" stroke="white" stroke-width="3" stroke-linecap="round" stroke-linejoin="round"/>
<path d="M77.0327 246.168C75.397 246.208 73.9781 246.357 72.3741 246.393C67.9961 246.506 67.9146 252.337 71.5423 252.562C73.7313 252.695 76.0417 252.411 80.2386 252.184C80.8651 252.202 81.4804 252.015 81.9918 251.652C82.5034 251.29 82.8837 250.773 83.0754 250.176C83.2672 249.579 83.2602 248.936 83.0555 248.343C82.8507 247.752 82.4595 247.241 81.9401 246.89" stroke="white" stroke-width="3" stroke-linecap="round" stroke-linejoin="round"/>
<path d="M127.501 243.708C125.346 243.973 104.286 244.504 93.0938 244.351C90.5605 244.315 90.7794 240.274 90.1088 239.247C88.3178 236.503 87.7646 236.518 82.3955 236.859C76.0813 237.257 76.6626 237.539 77.1402 248.353C77.2576 251 81.8664 251.302 82.736 242.908C82.0176 249.374 84.9668 253.798 89.315 255.197" stroke="white" stroke-width="3" stroke-linecap="round" stroke-linejoin="round"/>
<path d="M127.501 266.319C122.056 266.168 98.614 266.016 84.3975 265.752" stroke="white" stroke-width="3" stroke-linecap="round" stroke-linejoin="round"/>
<path d="M51.1623 177.203L52.8259 180.568L56.5313 181.097L53.8468 183.706L54.4895 187.409L51.1623 185.67L47.8728 187.409L48.4778 183.706L45.8311 181.097L49.5364 180.568L51.1623 177.203Z" stroke="white" stroke-width="3" stroke-linecap="round" stroke-linejoin="round"/>
<path d="M65.6054 177.203L67.269 180.568L70.9744 181.097L68.2899 183.706L68.9326 187.409L65.6054 185.67L62.3159 187.409L62.9208 183.706L60.2363 181.097L63.9417 180.568L65.6054 177.203Z" stroke="white" stroke-width="3" stroke-linecap="round" stroke-linejoin="round"/>
<path d="M80.0487 177.203L81.7123 180.568L85.4177 181.097L82.7332 183.706L83.376 187.409L80.0487 185.67L76.7214 187.409L77.3642 183.706L74.6797 181.097L78.3851 180.568L80.0487 177.203Z" stroke="white" stroke-width="3" stroke-linecap="round" stroke-linejoin="round"/>
<path d="M94.493 177.203L96.1567 180.568L99.8621 181.097L97.1776 183.706L97.7825 187.409L94.493 185.67L91.1658 187.409L91.8085 183.706L89.124 181.097L92.8294 180.568L94.493 177.203Z" stroke="white" stroke-width="3" stroke-linecap="round" stroke-linejoin="round"/>
<path d="M108.935 177.203L110.561 180.568L114.267 181.097L111.582 183.706L112.225 187.409L108.935 185.67L105.608 187.409L106.251 183.706L103.566 181.097L107.272 180.568L108.935 177.203Z" stroke="white" stroke-width="3" stroke-linecap="round" stroke-linejoin="round"/>
<path d="M315.301 131.112C310.802 130.955 310.424 125.516 314.772 125.365C318.023 125.252 320.292 125.289 322.901 125.289C327.211 125.289 327.436 131.061 323.884 131.339C321.729 131.512 319.46 131.258 315.301 131.112Z" stroke="white" stroke-width="3" stroke-linecap="round" stroke-linejoin="round"/>
<path d="M315.679 136.973C311.333 136.497 311.331 131.226 315.528 131.377C318.666 131.49 319.044 131.457 321.498 131.642C325.657 131.952 325.506 137.488 322.065 137.54C319.926 137.506 317.79 137.316 315.679 136.973Z" stroke="white" stroke-width="3" stroke-linecap="round" stroke-linejoin="round"/>
<path d="M300.668 128.314C306.945 129.11 311.368 120.828 308.722 114.967C308.722 114.967 308.419 110.014 307.361 102.452C306.302 94.8901 302.143 94.3608 302.256 96.1757C302.37 97.9905 300.971 108.008 299.458 110.959C297.832 114.133 292.879 114.197 290.233 114.211C282.595 114.249 258.019 112.736 258.019 112.736" stroke="white" stroke-width="3" stroke-linecap="round" stroke-linejoin="round"/>
<path d="M258.245 139.241C265.845 139.014 315.981 138.145 321.539 137.578" stroke="white" stroke-width="3" stroke-linecap="round" stroke-linejoin="round"/>
<path d="M315.793 119.24C311.444 119.612 310.42 114.446 314.583 113.795C317.685 113.31 319.876 113.073 322.371 112.774C326.531 112.277 327.43 117.721 324.035 118.446C321.303 118.852 318.553 119.117 315.793 119.24Z" stroke="white" stroke-width="3" stroke-linecap="round" stroke-linejoin="round"/>
<path d="M315.074 125.29C310.696 125.329 310.083 120.074 314.317 119.769C317.456 119.542 322.078 119.397 324.564 119.316C328.723 119.176 329.216 124.704 325.774 125.101C323.696 125.339 319.081 125.252 315.074 125.29Z" stroke="white" stroke-width="3" stroke-linecap="round" stroke-linejoin="round"/>
<path d="M308.079 108.199C308.571 113.984 308.835 113.572 322.371 112.776" stroke="white" stroke-width="3" stroke-linecap="round" stroke-linejoin="round"/>
<path d="M339.915 88.8784C343.364 88.8784 346.673 90.2487 349.113 92.6881C351.551 95.1272 352.922 98.4354 352.922 101.885V136.632C352.924 140.084 351.553 143.395 349.115 145.837C346.675 148.279 343.366 149.653 339.915 149.657H271.026C269.318 149.66 267.627 149.326 266.047 148.675C264.468 148.023 263.034 147.067 261.824 145.861C260.614 144.656 259.655 143.223 258.998 141.646C258.341 140.069 258.003 138.378 258.001 136.67V101.893C257.999 100.186 258.333 98.4953 258.984 96.9174C259.637 95.3395 260.592 93.9058 261.798 92.6978C263.004 91.4897 264.437 90.5313 266.013 89.8774C267.591 89.2235 269.28 88.8866 270.988 88.8864L339.915 88.8784Z" stroke="white" stroke-width="3" stroke-linecap="round" stroke-linejoin="round"/>
<path d="M191.854 101.507C192.677 101.132 193.462 100.676 194.196 100.146L192.118 104.154" stroke="white" stroke-width="3" stroke-linecap="round" stroke-linejoin="round"/>
<path d="M198.846 94.5876C199.018 97.8222 199.774 100.999 201.076 103.965C202.322 106.883 204.418 109.36 207.088 111.073C210.223 112.969 221.345 112.81 225.766 120.903C229.776 128.237 234.272 152.134 236.313 166.124C236.727 168.966 236.148 171.864 234.674 174.329C233.199 176.794 230.921 178.675 228.222 179.656C214.113 184.624 199.483 187.971 184.617 189.634" stroke="white" stroke-width="3" stroke-linecap="round" stroke-linejoin="round"/>
<path d="M194.428 84.1143C191.821 78.3672 183.666 72.1266 182.331 87.7441C181.918 91.0624 182.071 94.4271 182.785 97.6941C184.446 103.819 189.061 102.836 191.859 101.513C192.038 102.384 192.126 103.271 192.124 104.16C192.255 105.835 191.819 107.507 190.887 108.905C189.954 110.304 188.579 111.349 186.982 111.873C184.482 112.735 173.649 113.718 168.341 126.732C166.596 131.003 165.543 136.147 163.577 140.193" stroke="white" stroke-width="3" stroke-linecap="round" stroke-linejoin="round"/>
<path d="M206.333 141.812L209.433 157.428L179.83 162.268" stroke="white" stroke-width="3" stroke-linecap="round" stroke-linejoin="round"/>
<path d="M183.497 166.353C181.816 166.706 180.065 166.506 178.506 165.784C175.86 164.083 173.929 159.768 171.852 154.063C168.867 145.928 168.449 149.374 168.109 152.471C167.8 154.011 168.777 163.046 165.046 160.94C160.256 156.552 155.051 152.639 149.506 149.255C142.422 145.576 141.984 147.587 147.389 152.544C149.05 154.059 150.627 155.662 152.115 157.346C153.926 159.38 155.605 161.527 157.144 163.774C159.432 167.452 163.647 174.397 168.789 177.915C174.236 181.649 180.18 184.601 186.446 186.685" stroke="white" stroke-width="3" stroke-linecap="round" stroke-linejoin="round"/>
<path d="M163.042 172.439C160.774 168.582 153.924 164.578 150.649 161.593C148.414 159.555 144.175 156.618 141.725 154.485C141.118 153.958 141.347 152.519 145.998 154.56C147.031 155.018 150.585 156.602 152.183 157.426" stroke="white" stroke-width="3" stroke-linecap="round" stroke-linejoin="round"/>
<path d="M150.378 161.35C149.56 161.127 148.857 160.952 148.485 160.869C143.57 159.621 143.568 161.097 144.251 161.511C147.005 163.183 151.707 165.43 154.232 167.069C157.94 169.209 161.457 171.663 164.744 174.405" stroke="white" stroke-width="3" stroke-linecap="round" stroke-linejoin="round"/>
<path d="M177.982 165.406C178.687 161.541 180.44 161.408 182.217 164.013C185.72 169.129 188.187 182.993 185.998 188.247C184.752 191.246 182.368 189.184 180.51 184.466" stroke="white" stroke-width="3" stroke-linecap="round" stroke-linejoin="round"/>
<path d="M177.183 182.874L179.565 190.358L144.856 180.87L125.724 125.479L161.87 134.818L168.033 154.176" stroke="white" stroke-width="3" stroke-linecap="round" stroke-linejoin="round"/>
<path d="M141.604 129.6L139.676 122.605L145.158 123.928L146.406 130.848" stroke="white" stroke-width="3" stroke-linecap="round" stroke-linejoin="round"/>
<path d="M196.051 93.3779C194.454 94.9039 192.58 96.1102 190.53 96.9321" stroke="white" stroke-width="3" stroke-linecap="round" stroke-linejoin="round"/>
<path d="M175.293 136.33C175.293 136.33 174.542 146.819 178.771 154.439L182.855 161.774" stroke="white" stroke-width="3" stroke-linecap="round" stroke-linejoin="round"/>
<path d="M186.914 189.383L157.144 248.019C155.575 251.123 154.686 254.526 154.536 258.001C154.386 261.477 154.979 264.944 156.274 268.171C165.63 290.865 177.059 312.65 190.417 333.244C206.748 330.976 220.549 324.321 228.716 310.143C214.462 290.292 202.514 271.463 194.198 254.335L213.699 222.31C221.675 234.584 230.778 246.09 240.885 256.679C244.393 260.397 249.171 262.659 254.271 263.015C259.37 263.374 264.418 261.799 268.41 258.607C287.799 243.133 306.372 226.998 324.823 210.848C323.322 204.06 320.14 197.757 315.571 192.519C311 187.281 305.188 183.275 298.664 180.868L258.843 219.747C248.495 188.766 236.656 180.263 231.438 177.957" stroke="white" stroke-width="3" stroke-linecap="round" stroke-linejoin="round"/>
<path d="M207.655 232.214L207.126 210.511C209.1 214.563 211.295 218.501 213.705 222.308" stroke="white" stroke-width="3" stroke-linecap="round" stroke-linejoin="round"/>
<path d="M305.471 177.125C316.814 176.146 350.58 173.441 361.788 177.083" stroke="white" stroke-width="3" stroke-linecap="round" stroke-linejoin="round"/>
<path d="M301.197 181.967L310.083 171.871C328.156 168.809 357.383 168.166 367.395 173.119C356.426 181.137 342.321 189.819 329.622 194.329C326.206 195.309 322.984 196.87 320.094 198.941" stroke="white" stroke-width="3" stroke-linecap="round" stroke-linejoin="round"/>
<path d="M218.659 322.013L226.712 333.999C225.048 352.261 218.167 380.694 210.792 389.05C205.288 375.633 201.65 361.524 199.978 347.119C199.606 342.582 199.3 338.385 196.842 334.566L195.449 332.377" stroke="white" stroke-width="3" stroke-linecap="round" stroke-linejoin="round"/>
<path d="M145.989 128.466C145.989 128.466 152.039 126.726 156.992 133.57" stroke="white" stroke-width="3" stroke-linecap="round" stroke-linejoin="round"/>
<path d="M181.077 113.644C180.649 113.917 180.319 114.321 180.137 114.795C179.955 115.27 179.93 115.79 180.065 116.28C180.201 116.77 180.49 117.203 180.889 117.517C181.289 117.83 181.779 118.008 182.287 118.022C182.709 118.02 183.122 117.903 183.482 117.683C183.842 117.463 184.135 117.149 184.329 116.774C182.963 116.07 181.833 114.982 181.077 113.644Z" stroke="white" stroke-width="3" stroke-linecap="round" stroke-linejoin="round"/>
<path d="M184.216 117.727C184.214 118.269 184.403 118.793 184.75 119.209C185.097 119.625 185.579 119.905 186.112 120C186.645 120.095 187.195 119.999 187.664 119.729C188.133 119.459 188.492 119.032 188.677 118.523C187.22 118.029 185.793 117.448 184.405 116.784C184.27 117.08 184.206 117.403 184.216 117.727Z" stroke="white" stroke-width="3" stroke-linecap="round" stroke-linejoin="round"/>
<path d="M188.564 119.206C188.562 119.776 188.77 120.326 189.149 120.752C189.527 121.178 190.049 121.45 190.615 121.516C191.182 121.581 191.752 121.436 192.218 121.107C192.684 120.779 193.012 120.291 193.141 119.735C191.629 119.443 190.139 119.051 188.679 118.563C188.601 118.768 188.562 118.987 188.564 119.206Z" stroke="white" stroke-width="3" stroke-linecap="round" stroke-linejoin="round"/>
<path d="M192.988 120.072C192.966 120.676 193.185 121.265 193.596 121.709C194.007 122.153 194.578 122.417 195.182 122.441C195.787 122.466 196.377 122.251 196.823 121.842C197.27 121.434 197.536 120.865 197.565 120.261C196.041 120.186 194.525 119.996 193.03 119.694C193.036 119.803 192.988 119.958 192.988 120.072Z" stroke="white" stroke-width="3" stroke-linecap="round" stroke-linejoin="round"/>
<path d="M197.601 120.261C197.6 120.856 197.834 121.427 198.252 121.852C198.669 122.276 199.236 122.52 199.831 122.529C200.142 122.533 200.448 122.471 200.735 122.348C201.019 122.225 201.274 122.043 201.485 121.815C201.694 121.587 201.855 121.318 201.954 121.024C202.054 120.73 202.09 120.418 202.062 120.11C200.581 120.273 199.089 120.324 197.601 120.261Z" stroke="white" stroke-width="3" stroke-linecap="round" stroke-linejoin="round"/>
<path d="M204.441 121.992C204.8 121.991 205.152 121.907 205.472 121.747C205.793 121.587 206.071 121.355 206.288 121.07C206.503 120.785 206.65 120.453 206.718 120.101C206.784 119.75 206.768 119.388 206.672 119.043C205.212 119.538 203.703 119.881 202.173 120.064C202.262 120.601 202.541 121.089 202.955 121.442C203.371 121.795 203.896 121.989 204.441 121.992Z" stroke="white" stroke-width="3" stroke-linecap="round" stroke-linejoin="round"/>
<path d="M208.79 120.525C209.194 120.526 209.59 120.421 209.938 120.22C210.288 120.019 210.579 119.73 210.782 119.382C210.985 119.034 211.092 118.638 211.094 118.235C211.096 117.832 210.993 117.435 210.794 117.085C209.48 117.896 208.087 118.567 206.635 119.089C206.816 119.512 207.116 119.873 207.498 120.128C207.881 120.383 208.33 120.521 208.79 120.525Z" stroke="white" stroke-width="3" stroke-linecap="round" stroke-linejoin="round"/>
<path d="M213.592 113.266C214.125 113.429 214.581 113.777 214.879 114.247C215.178 114.716 215.299 115.277 215.222 115.828C215.146 116.38 214.873 116.885 214.458 117.255C214.04 117.624 213.506 117.832 212.949 117.843C212.557 117.875 212.163 117.825 211.791 117.694C211.419 117.564 211.081 117.357 210.794 117.087C212.056 116.089 213.023 114.769 213.592 113.266Z" stroke="white" stroke-width="3" stroke-linecap="round" stroke-linejoin="round"/>
<path d="M283.729 54.5469V74.5484" stroke="white" stroke-width="3" stroke-linecap="round" stroke-linejoin="round"/>
<path d="M293.75 64.5288H273.748" stroke="white" stroke-width="3" stroke-linecap="round" stroke-linejoin="round"/>
<path d="M201.039 92.8106C203.743 96.9578 207.844 93.4912 207.844 86.8406C207.844 80.2238 203.717 76.7274 201.039 80.8706C200.056 82.7068 199.541 84.7577 199.541 86.8406C199.541 88.9235 200.056 90.9742 201.039 92.8106Z" stroke="white" stroke-width="3" stroke-linecap="round" stroke-linejoin="round"/>
<path d="M203.686 79.0479H198.356C196.042 79.0479 194.191 82.5463 194.197 86.8367C194.203 91.1272 196.05 94.5977 198.356 94.5977H203.349" stroke="white" stroke-width="3" stroke-linecap="round" stroke-linejoin="round"/>
<path d="M181.342 79.5017C179.527 79.5773 177.825 83.1693 178.05 87.4418C178.279 91.5253 180.17 94.8048 182.323 94.966C181.722 89.8147 181.747 84.6094 182.396 79.4639L181.342 79.5017Z" stroke="white" stroke-width="3" stroke-linecap="round" stroke-linejoin="round"/>
<path d="M181.984 79.2368C182.358 77.0972 183.504 75.1691 185.204 73.8173C186.904 72.4655 189.041 71.7841 191.21 71.9017C193.395 71.834 195.54 72.5015 197.302 73.797C199.063 75.0925 200.338 76.9414 200.925 79.0478" stroke="white" stroke-width="3" stroke-linecap="round" stroke-linejoin="round"/>
<path d="M105.949 37.5324C105.549 37.1324 105.075 36.8152 104.553 36.5987C104.03 36.3822 103.471 36.2708 102.905 36.2708C102.34 36.2708 101.78 36.3822 101.258 36.5987C100.736 36.8152 100.261 37.1324 99.8616 37.5324L98.7651 38.6667L97.6686 37.5324C96.8612 36.7253 95.7663 36.2717 94.6249 36.2717C93.4832 36.2717 92.3883 36.7253 91.5812 37.5324C90.7738 38.3396 90.3203 39.4345 90.3203 40.5761C90.3203 41.7178 90.7738 42.8127 91.5812 43.6198L98.7651 50.8037L105.949 43.6198C106.349 43.2202 106.666 42.7458 106.883 42.2234C107.099 41.7013 107.21 41.1415 107.21 40.5761C107.21 40.0108 107.099 39.451 106.883 38.9288C106.666 38.4064 106.349 37.932 105.949 37.5324Z" stroke="white" stroke-width="3" stroke-linecap="round" stroke-linejoin="round"/>
<path d="M119.604 69.8083L134.651 75.7584L128.828 60.8334C132.446 55.6747 134.363 49.5147 134.31 43.2139C134.103 25.1686 117.972 10.763 98.2734 10.95C78.5365 11.149 62.7121 25.887 62.8892 43.8845C63.0882 65.1775 85.0458 80.0687 107.013 75.1534C111.504 74.1622 115.772 72.3501 119.604 69.8083Z" stroke="white" stroke-width="3" stroke-linecap="round" stroke-linejoin="round"/>
<path d="M337.155 318.043L323.241 316.039L317.04 303.448L310.839 316.039L296.925 318.043L306.982 327.874L304.6 341.712L317.04 335.171L329.479 341.712L327.097 327.874L337.155 318.043Z" stroke="white" stroke-width="3" stroke-linecap="round" stroke-linejoin="round"/>
<path d="M207.845 85.6646C225.498 86.8701 242.652 92.0534 258.019 100.826" stroke="white" stroke-width="3" stroke-linecap="round" stroke-linejoin="round"/>
<path d="M87.082 166.767C93.7272 146.589 105.675 128.569 121.675 114.593C137.674 100.618 157.137 91.2007 178.025 87.3281" stroke="white" stroke-width="3" stroke-linecap="round" stroke-linejoin="round"/>
<path d="M311.444 188.468L289.893 208.621" stroke="white" stroke-width="3" stroke-linecap="round" stroke-linejoin="round"/>
<path d="M216.352 323.487L200.32 298.684" stroke="white" stroke-width="3" stroke-linecap="round" stroke-linejoin="round"/>
<path d="M218.205 189.338C221.116 191.454 224.428 192.955 227.938 193.748C231.449 194.541 235.084 194.61 238.622 193.95" stroke="white" stroke-width="3" stroke-linecap="round" stroke-linejoin="round"/>
<path d="M94.4922 305.452V309.854" stroke="white" stroke-width="3" stroke-linecap="round" stroke-linejoin="round"/>
<path d="M103.055 314.017H98.6533" stroke="white" stroke-width="3" stroke-linecap="round" stroke-linejoin="round"/>
<path d="M94.4922 322.58V318.178" stroke="white" stroke-width="3" stroke-linecap="round" stroke-linejoin="round"/>
<path d="M85.9277 314.017H90.3316" stroke="white" stroke-width="3" stroke-linecap="round" stroke-linejoin="round"/>
<path d="M98.6532 314.017C98.1066 314.017 97.5651 313.91 97.0598 313.701C96.5546 313.492 96.0955 313.185 95.709 312.799C95.3226 312.411 95.0161 311.953 94.8074 311.448C94.5984 310.943 94.4913 310.401 94.4921 309.854C94.4931 310.401 94.3863 310.943 94.1775 311.448C93.969 311.953 93.6625 312.413 93.2759 312.799C92.8894 313.185 92.4301 313.494 91.9248 313.703C91.4196 313.912 90.8779 314.017 90.3311 314.017C90.8777 314.017 91.4192 314.123 91.9244 314.332C92.4295 314.54 92.8886 314.847 93.2753 315.235C93.6617 315.621 93.9682 316.079 94.1771 316.584C94.3859 317.09 94.4929 317.631 94.4921 318.178C94.4917 317.631 94.599 317.09 94.8078 316.584C95.0167 316.081 95.3232 315.621 95.7098 315.235C96.0963 314.849 96.5552 314.542 97.0602 314.333C97.5653 314.125 98.1066 314.017 98.6532 314.017Z" stroke="white" stroke-width="3" stroke-linecap="round" stroke-linejoin="round"/>
<path d="M222.818 328.176C220.86 339.402 214.81 372.73 208.41 382.626" stroke="white" stroke-width="3" stroke-linecap="round" stroke-linejoin="round"/>
</svg>
