<svg width="400" height="400" viewBox="0 0 400 400" fill="none" xmlns="http://www.w3.org/2000/svg">
<path d="M244.292 220.904C244.292 220.904 232.28 209.918 227.492 200C223.92 192.666 219.246 183.966 210.85 180.166C210.148 173.031 210.072 165.847 210.622 158.698C211.036 151.236 209.202 140.298 206.622 138.598C204.93 137.602 203.116 136.835 201.222 136.318C202.55 140.265 203.592 144.303 204.338 148.4L182.938 148.97C182.257 144.875 181.227 140.846 179.86 136.926C177.96 137.382 176.402 137.726 174.996 138.142C175.034 138.37 183.09 168.12 175.338 163.79C176.858 170.514 179.48 181.534 180.962 183.814C174.502 225.648 166.524 310.304 165.004 325.16C173.631 328.862 183.248 329.572 192.324 327.174C192.324 327.174 203.57 240.656 205.324 220.898L233.48 244.722C235.872 246.77 238.688 248.262 241.724 249.092L282.836 260.452C275.366 258.252 281.656 231.714 290.284 232.22L244.292 220.904Z" fill="#243044"/>
<path d="M56.3564 199.734V208.664C56.3584 210.326 57.0196 211.918 58.1946 213.094C59.3696 214.268 60.9626 214.93 62.6244 214.932H71.6244C71.6462 212.924 71.2658 210.932 70.5054 209.074C69.7448 207.216 68.62 205.528 67.1968 204.112C65.7738 202.696 64.0814 201.578 62.2196 200.826C60.3576 200.074 58.364 199.703 56.3564 199.734Z" fill="#243044"/>
<path d="M116.8 109.948C114.756 107.295 111.939 105.342 108.737 104.359C105.536 103.376 102.108 103.411 98.9278 104.46C99.177 103.222 99.165 101.945 98.8926 100.711C98.6202 99.4775 98.0934 98.3143 97.3458 97.2961C95.9468 95.5707 93.9282 94.4613 91.7218 94.2051C89.5154 93.9487 87.2964 94.5657 85.539 95.9243C83.7818 97.2829 82.6258 99.2753 82.3182 101.475C82.0108 103.675 82.5762 105.908 83.8938 107.696C84.6786 108.685 85.6644 109.495 86.786 110.075C87.9076 110.654 89.1392 110.988 90.3998 111.056C88.5886 113.866 87.693 117.168 87.8362 120.508C87.9796 123.848 89.1546 127.061 91.1998 129.706C92.7422 131.489 94.5664 133.007 96.5998 134.2C98.9558 129.8 99.5338 124.846 99.1838 124.434C96.7358 121.57 99.2978 118.888 100.932 122.156C101.768 123.828 102.794 120.902 103.288 118.774C105.776 119.886 108.435 120.567 111.152 120.788C110.886 131.388 107.998 136.556 103.63 132.11C103.543 133.466 103.581 134.827 103.744 136.176C107.388 135.943 110.898 134.706 113.882 132.6C117.271 129.982 119.482 126.125 120.029 121.878C120.576 117.63 119.414 113.34 116.8 109.948Z" fill="#0A7EA4"/>
<path d="M103.586 132.1C102.882 131.347 102.247 130.533 101.686 129.668C101.512 130.827 101.603 132.01 101.952 133.129C102.301 134.248 102.898 135.273 103.7 136.128C103.542 134.791 103.503 133.443 103.586 132.1Z" fill="#0A7EA4"/>
<path d="M81.8901 166.374C79.9143 167.338 77.8841 168.188 75.8101 168.918L80.6001 160.636C80.8643 162.582 81.2959 164.502 81.8901 166.374Z" fill="#0A7EA4"/>
<path d="M185.316 127.388C185.202 128.49 185.202 129.972 185.164 131.416C182.884 131.644 179.502 131.758 178.78 130.922L178.438 130.466C179.464 132.1 182.428 130.048 185.316 127.388Z" fill="#0A7EA4"/>
<path d="M152.752 161.358C151.726 162.802 150.662 164.358 149.524 166.032V156.57C150.454 158.259 151.535 159.862 152.752 161.358Z" fill="#0A7EA4"/>
<path d="M205.34 220.86L210.28 225.04L210.812 207.41C210.508 211.36 205.34 220.898 205.34 220.86Z" fill="#0A7EA4"/>
<path d="M304.436 237.654C296.926 237.254 289.618 280.368 298.964 283.174C307.892 283.668 314.162 238.186 304.436 237.654Z" fill="#0A7EA4"/>
<path d="M286.956 257.64C284.648 256.506 282.19 255.712 279.656 255.28C280.492 260.79 283.916 262.238 287.64 258.248C287.412 258.058 287.222 257.868 286.956 257.64Z" fill="#0A7EA4"/>
<path d="M290.718 232.258C289.94 232.15 289.148 232.236 288.412 232.508C287.678 232.78 287.02 233.23 286.5 233.818C288.59 234.418 291.022 235.032 293.416 235.564C293.27 234.836 292.946 234.152 292.476 233.576C292.006 233 291.402 232.548 290.718 232.258Z" fill="#0A7EA4"/>
<path d="M195.84 107.44C196.562 105.768 193.562 104.666 191.7 107.25C192.46 105.73 189.268 104.514 187.596 107.478C188.09 106.034 185.196 104.818 183.378 108.124C183.578 106.414 180.68 106.452 179.958 109.492C179.502 111.392 179.158 113.444 178.894 114.964C179.843 115.468 180.835 115.888 181.858 116.218C181.478 120.094 182.846 120.322 183.606 118.954C185.05 116.408 187.938 118.46 185.126 122.374C185.312 122.574 193.292 131.026 193.484 131.226C188.698 125.602 196.41 113.672 198.918 109.568C201 106.148 197.74 104.932 195.84 107.44Z" fill="#0A7EA4"/>
<path d="M36.142 232.83L21.36 247.61C19.78 249.19 22.21 251.64 23.76 250.01L38.542 235.228C38.86 234.91 39.0386 234.478 39.0384 234.028C39.0382 233.578 38.8592 233.146 38.541 232.828C38.2228 232.51 37.7912 232.332 37.3412 232.332C36.8914 232.332 36.46 232.512 36.142 232.83Z" fill="#0A7EA4"/>
<path d="M312.642 161.244C312.452 162.156 312.11 163.866 311.768 165.644L318.684 160.21L312.642 161.244Z" fill="#0A7EA4"/>
<path d="M289.882 137.382C289.966 137.834 290.018 138.291 290.034 138.75L291.634 136.584L289.882 137.382Z" fill="#0A7EA4"/>
<path d="M318.114 109.8C318.104 109.152 317.86 108.53 317.426 108.048C316.994 107.566 316.4 107.257 315.758 107.178C316.174 106.665 316.39 106.018 316.362 105.358C316.334 104.698 316.066 104.071 315.61 103.594C315.152 103.118 314.536 102.825 313.876 102.771C313.218 102.718 312.562 102.906 312.034 103.302C311.946 102.631 311.62 102.014 311.112 101.566C310.606 101.118 309.954 100.868 309.276 100.863C308.6 100.859 307.944 101.099 307.432 101.541C306.918 101.982 306.582 102.594 306.486 103.264C305.966 102.86 305.316 102.66 304.658 102.703C304.002 102.746 303.384 103.028 302.92 103.496C302.456 103.964 302.182 104.586 302.146 105.243C302.11 105.901 302.316 106.549 302.726 107.064C302.074 107.146 301.472 107.463 301.038 107.957C300.602 108.45 300.362 109.085 300.362 109.743C300.362 110.401 300.602 111.036 301.038 111.53C301.472 112.023 302.074 112.34 302.726 112.422C302.32 112.938 302.118 113.585 302.156 114.24C302.194 114.895 302.468 115.514 302.93 115.98C303.392 116.447 304.008 116.729 304.662 116.773C305.318 116.818 305.966 116.622 306.486 116.222C306.564 116.876 306.876 117.478 307.366 117.917C307.856 118.356 308.49 118.601 309.148 118.606C309.806 118.61 310.444 118.374 310.94 117.943C311.436 117.511 311.758 116.912 311.844 116.26C312.362 116.666 313.01 116.87 313.666 116.834C314.322 116.798 314.944 116.524 315.414 116.064C315.884 115.603 316.17 114.987 316.22 114.331C316.268 113.675 316.078 113.024 315.682 112.498C316.352 112.437 316.976 112.125 317.426 111.625C317.876 111.125 318.122 110.473 318.114 109.8Z" fill="#0A7EA4"/>
<path d="M309.982 123.4C310.666 123.206 311.26 122.781 311.666 122.196C312.07 121.612 312.26 120.905 312.202 120.197C312.144 119.489 311.84 118.823 311.346 118.312C310.852 117.802 310.194 117.48 309.488 117.4C309.956 116.9 310.244 116.258 310.306 115.575C310.368 114.893 310.2 114.209 309.828 113.633C309.458 113.057 308.904 112.621 308.258 112.395C307.61 112.169 306.908 112.165 306.258 112.384C306.416 111.71 306.344 111.002 306.05 110.375C305.758 109.747 305.262 109.236 304.644 108.925C304.024 108.613 303.32 108.519 302.64 108.657C301.962 108.795 301.35 109.158 300.902 109.686C300.742 108.982 300.348 108.353 299.786 107.901C299.222 107.448 298.524 107.2 297.802 107.195C297.078 107.191 296.376 107.431 295.808 107.876C295.24 108.322 294.838 108.946 294.67 109.648C294.232 109.114 293.628 108.743 292.952 108.596C292.278 108.449 291.572 108.534 290.952 108.837C290.332 109.141 289.832 109.645 289.534 110.268C289.238 110.891 289.158 111.597 289.312 112.27C288.664 112.038 287.958 112.029 287.306 112.244C286.652 112.46 286.09 112.889 285.71 113.461C285.328 114.033 285.15 114.717 285.202 115.403C285.256 116.088 285.536 116.737 286 117.244C285.296 117.322 284.642 117.64 284.146 118.144C283.65 118.648 283.342 119.308 283.274 120.012C283.208 120.717 283.386 121.423 283.778 122.011C284.17 122.6 284.754 123.035 285.43 123.244C285.076 123.45 284.768 123.724 284.522 124.05C284.276 124.377 284.098 124.75 284 125.146C283.9 125.543 283.882 125.956 283.944 126.359C284.008 126.763 284.15 127.151 284.366 127.498C287.19 114.828 292.978 121.098 293.79 126.098C293.98 126.898 294.474 126.934 295.5 125.758C297.628 123.25 300.482 127.146 296.222 130.544C295.986 130.732 295.67 132.23 295.918 135.788C296.306 135.639 296.66 135.414 296.96 135.127C297.26 134.84 297.5 134.496 297.666 134.116C297.94 134.767 298.43 135.304 299.054 135.635C299.68 135.966 300.398 136.071 301.092 135.932C301.784 135.793 302.408 135.42 302.856 134.874C303.306 134.329 303.552 133.645 303.554 132.938C304.112 133.327 304.782 133.519 305.462 133.483C306.14 133.448 306.788 133.188 307.302 132.743C307.816 132.299 308.168 131.695 308.302 131.029C308.434 130.362 308.342 129.67 308.038 129.062C308.474 129.119 308.916 129.082 309.336 128.952C309.756 128.823 310.142 128.605 310.47 128.313C310.798 128.021 311.06 127.662 311.236 127.26C311.414 126.858 311.502 126.423 311.496 125.984C311.482 125.461 311.336 124.949 311.072 124.497C310.808 124.045 310.432 123.668 309.982 123.4Z" fill="#0A7EA4"/>
<path d="M299.686 176.4C299.716 176.773 299.598 177.143 299.354 177.428C299.112 177.713 298.766 177.89 298.394 177.92C298.022 177.95 297.652 177.831 297.366 177.589C297.082 177.347 296.904 177.001 296.874 176.628C296.844 176.255 296.962 175.886 297.206 175.601C297.448 175.316 297.794 175.138 298.166 175.108C298.538 175.078 298.908 175.197 299.194 175.439C299.478 175.682 299.656 176.027 299.686 176.4Z" fill="#0A7EA4"/>
<path d="M285.132 166.716C285.162 167.089 285.044 167.459 284.8 167.744C284.558 168.029 284.212 168.206 283.84 168.236C283.468 168.266 283.098 168.147 282.812 167.905C282.528 167.662 282.35 167.317 282.32 166.944C282.29 166.571 282.408 166.201 282.652 165.916C282.894 165.631 283.24 165.454 283.612 165.424C283.984 165.394 284.354 165.513 284.64 165.755C284.924 165.997 285.102 166.343 285.132 166.716Z" fill="#0A7EA4"/>
<path d="M298.28 155.468C298.31 155.841 298.192 156.211 297.948 156.496C297.706 156.781 297.36 156.958 296.988 156.988C296.616 157.018 296.246 156.899 295.96 156.657C295.676 156.415 295.498 156.069 295.468 155.696C295.438 155.323 295.556 154.953 295.8 154.668C296.042 154.383 296.388 154.206 296.76 154.176C297.132 154.146 297.502 154.265 297.788 154.507C298.072 154.75 298.25 155.095 298.28 155.468Z" fill="#0A7EA4"/>
<path d="M36.142 232.83L21.36 247.61C19.78 249.19 22.21 251.64 23.76 250.01L38.542 235.228C38.86 234.91 39.0386 234.478 39.0384 234.028C39.0382 233.578 38.8592 233.146 38.541 232.828C38.2228 232.51 37.7912 232.332 37.3412 232.332C36.8914 232.332 36.46 232.512 36.142 232.83Z" stroke="white" stroke-width="3" stroke-linejoin="round"/>
<path d="M317.426 108.048C317.86 108.53 318.104 109.152 318.114 109.8C318.122 110.473 317.876 111.125 317.426 111.625C316.976 112.125 316.352 112.437 315.682 112.498C316.078 113.024 316.268 113.675 316.22 114.331C316.17 114.987 315.884 115.603 315.414 116.064C314.944 116.524 314.322 116.798 313.666 116.834C313.01 116.87 312.362 116.666 311.844 116.26C311.758 116.912 311.436 117.511 310.94 117.943L310.928 117.953C311.076 118.059 311.216 118.179 311.346 118.312C311.84 118.823 312.144 119.489 312.202 120.197C312.26 120.905 312.07 121.612 311.666 122.196C311.26 122.781 310.666 123.206 309.982 123.4C310.432 123.668 310.808 124.045 311.072 124.497C311.336 124.949 311.482 125.461 311.496 125.984C311.502 126.423 311.414 126.858 311.236 127.26C311.06 127.662 310.798 128.021 310.47 128.313C310.142 128.605 309.756 128.823 309.336 128.952C308.916 129.082 308.474 129.119 308.038 129.062C308.342 129.67 308.434 130.362 308.302 131.029C308.168 131.695 307.816 132.299 307.302 132.743C306.788 133.188 306.14 133.448 305.462 133.483C304.782 133.519 304.112 133.327 303.554 132.938C303.552 133.645 303.306 134.329 302.856 134.874C302.408 135.42 301.784 135.793 301.092 135.932C300.398 136.071 299.68 135.966 299.054 135.635C298.43 135.304 297.94 134.767 297.666 134.116C297.5 134.496 297.26 134.84 296.96 135.127C296.66 135.414 296.306 135.639 295.918 135.788C295.67 132.23 295.986 130.732 296.222 130.544C300.482 127.146 297.628 123.25 295.5 125.758C294.474 126.934 293.98 126.898 293.79 126.098C292.978 121.098 287.19 114.828 284.366 127.498C284.15 127.151 284.008 126.763 283.944 126.359C283.882 125.956 283.9 125.543 284 125.146C284.098 124.75 284.276 124.377 284.522 124.05C284.768 123.724 285.076 123.45 285.43 123.244C284.754 123.035 284.17 122.6 283.778 122.011C283.386 121.423 283.208 120.717 283.274 120.012C283.342 119.308 283.65 118.648 284.146 118.144C284.642 117.64 285.296 117.322 286 117.244C285.536 116.737 285.256 116.088 285.202 115.403C285.15 114.717 285.328 114.033 285.71 113.461C286.09 112.889 286.652 112.46 287.306 112.244C287.958 112.029 288.664 112.038 289.312 112.27C289.158 111.597 289.238 110.891 289.534 110.268C289.832 109.645 290.332 109.141 290.952 108.837C291.572 108.534 292.278 108.449 292.952 108.596C293.628 108.743 294.232 109.114 294.67 109.648C294.838 108.946 295.24 108.322 295.808 107.876C296.376 107.431 297.078 107.191 297.802 107.195C298.524 107.2 299.222 107.448 299.786 107.901C300.09 108.146 300.346 108.443 300.542 108.776C300.656 108.478 300.822 108.2 301.038 107.957C301.472 107.463 302.074 107.146 302.726 107.064C302.316 106.549 302.11 105.901 302.146 105.243C302.182 104.586 302.456 103.964 302.92 103.496C303.384 103.028 304.002 102.746 304.658 102.703C305.316 102.66 305.966 102.86 306.486 103.264C306.582 102.594 306.918 101.982 307.432 101.541C307.944 101.099 308.6 100.859 309.276 100.863C309.954 100.868 310.606 101.118 311.112 101.566C311.62 102.014 311.946 102.631 312.034 103.302C312.562 102.906 313.218 102.718 313.876 102.771C314.536 102.825 315.152 103.118 315.61 103.594C316.066 104.071 316.334 104.698 316.362 105.358C316.39 106.018 316.174 106.665 315.758 107.178C316.4 107.257 316.994 107.566 317.426 108.048Z" stroke="white" stroke-width="3" stroke-linejoin="round"/>
<path d="M254.166 214.932H238.358" stroke="white" stroke-width="3" stroke-linecap="round" stroke-linejoin="round"/>
<path d="M270.618 214.932H324C325.662 214.93 327.254 214.268 328.43 213.094C329.604 211.918 330.266 210.326 330.268 208.664V151.098" stroke="white" stroke-width="3" stroke-linecap="round" stroke-linejoin="round"/>
<path d="M330.272 123.436V119.98C330.27 118.317 329.61 116.723 328.434 115.548C327.258 114.372 325.662 113.711 324 113.71H316.188" stroke="white" stroke-width="3" stroke-linecap="round" stroke-linejoin="round"/>
<path d="M241.2 113.71H207C205.338 113.712 203.744 114.373 202.568 115.548C201.392 116.724 200.732 118.318 200.73 119.98V136.052" stroke="white" stroke-width="3" stroke-linecap="round" stroke-linejoin="round"/>
<path d="M289.806 109.625V105.008H241.208V118.27H283.624" stroke="white" stroke-width="3" stroke-linecap="round" stroke-linejoin="round"/>
<path d="M269.554 100.6C269.554 101.397 269.318 102.175 268.876 102.838C268.432 103.5 267.804 104.016 267.068 104.321C266.332 104.626 265.522 104.706 264.74 104.551C263.958 104.395 263.242 104.012 262.678 103.448C262.114 102.885 261.73 102.167 261.576 101.386C261.42 100.604 261.5 99.7946 261.804 99.0586C262.11 98.3224 262.626 97.6934 263.288 97.2508C263.95 96.8082 264.73 96.572 265.526 96.572C266.594 96.5724 267.618 96.997 268.374 97.7524C269.128 98.5076 269.554 99.5318 269.554 100.6Z" stroke="white" stroke-width="3" stroke-linecap="round" stroke-linejoin="round"/>
<path d="M317.544 133.506V126.742H311.532" stroke="white" stroke-width="3" stroke-linecap="round" stroke-linejoin="round"/>
<path d="M245.274 139.396H213.396V126.742H245.274V139.396Z" stroke="white" stroke-width="3" stroke-linecap="round" stroke-linejoin="round"/>
<path d="M221.336 152.2H245.274V162.84H229.506" stroke="white" stroke-width="3" stroke-linecap="round" stroke-linejoin="round"/>
<path d="M213.396 181.534V175.72H215.6" stroke="white" stroke-width="3" stroke-linecap="round" stroke-linejoin="round"/>
<path d="M223.768 186.322H218.98" stroke="white" stroke-width="3" stroke-linecap="round" stroke-linejoin="round"/>
<path d="M239.878 175.72H245.274V181.724" stroke="white" stroke-width="3" stroke-linecap="round" stroke-linejoin="round"/>
<path d="M226.58 198.214H234.598" stroke="white" stroke-width="3" stroke-linecap="round" stroke-linejoin="round"/>
<path d="M238.662 202.28H228.67" stroke="white" stroke-width="3" stroke-linecap="round" stroke-linejoin="round"/>
<path d="M261.992 198.214H317.544V202.242H269.782" stroke="white" stroke-width="3" stroke-linecap="round" stroke-linejoin="round"/>
<path d="M98.9122 104.438C95.4042 105.587 92.3984 107.908 90.4002 111.012C88.964 110.98 87.5592 110.585 86.317 109.863C85.0746 109.142 84.0354 108.118 83.2958 106.886C82.5564 105.654 82.1408 104.255 82.0878 102.82C82.0348 101.384 82.3464 99.9583 82.9932 98.6757C83.64 97.3929 84.601 96.2949 85.7868 95.4837C86.9726 94.6727 88.3444 94.1751 89.7744 94.0375C91.2044 93.8997 92.6458 94.1263 93.9646 94.6961C95.2834 95.2659 96.4364 96.1603 97.3162 97.2961C98.1038 98.2891 98.6564 99.4473 98.9328 100.684C99.2092 101.921 99.2022 103.204 98.9122 104.438Z" stroke="white" stroke-width="3" stroke-linecap="round" stroke-linejoin="round"/>
<path d="M126 151.82C114.334 142.62 104.95 146.12 103.734 136.166" stroke="white" stroke-width="3" stroke-linecap="round" stroke-linejoin="round"/>
<path d="M113.883 132.6C110.896 134.704 107.385 135.941 103.739 136.172C103.739 136.172 103.587 132.942 103.625 132.106C107.993 136.552 110.881 131.384 111.147 120.784C108.43 120.563 105.771 119.882 103.283 118.77C102.789 120.898 101.763 123.822 100.927 122.152C99.2926 118.884 96.7266 121.566 99.1786 124.43C99.5286 124.842 98.9506 129.788 96.5946 134.196C94.5574 133.012 92.7324 131.497 91.1946 129.712C89.2366 127.183 88.0726 124.13 87.8498 120.939C87.627 117.748 88.3552 114.563 89.9426 111.786C91.53 109.01 93.9052 106.766 96.7676 105.339C99.6302 103.912 102.852 103.366 106.025 103.77C109.197 104.174 112.179 105.509 114.593 107.608C117.007 109.707 118.744 112.474 119.585 115.56C120.426 118.646 120.334 121.912 119.318 124.945C118.303 127.978 116.412 130.642 113.883 132.6Z" stroke="white" stroke-width="3" stroke-linecap="round" stroke-linejoin="round"/>
<path d="M103.738 136.166C102.93 135.307 102.326 134.276 101.971 133.151C101.615 132.026 101.518 130.836 101.686 129.668C102.259 130.535 102.907 131.349 103.624 132.1" stroke="white" stroke-width="3" stroke-linecap="round" stroke-linejoin="round"/>
<path d="M88.1582 141.562C95.2262 145.096 102.558 145.93 108.638 143.272" stroke="white" stroke-width="3" stroke-linecap="round" stroke-linejoin="round"/>
<path d="M116.049 154.784C119.507 160.902 116.049 175.644 115.327 181.002C115.893 182.708 116.658 184.34 117.607 185.866" stroke="white" stroke-width="3" stroke-linecap="round" stroke-linejoin="round"/>
<path d="M81.8901 166.374C81.2813 164.506 80.8487 162.585 80.5981 160.636L75.8101 168.918" stroke="white" stroke-width="3" stroke-linecap="round" stroke-linejoin="round"/>
<path d="M84.7003 185.866C86.0983 184.379 87.3339 182.748 88.3863 181C85.7209 176.362 83.5441 171.46 81.8903 166.372C76.0845 169.025 70.0065 171.037 63.7643 172.372C60.2143 173.161 56.5023 172.741 53.2185 171.178C49.9347 169.616 47.2673 167 45.6403 163.748L29.9863 132.366C32.1169 129.819 34.7779 127.769 37.7833 126.358C40.7887 124.946 44.0661 124.209 47.3863 124.196L61.1423 151.972C71.5605 148.986 81.6441 144.937 91.2343 139.89C93.5237 138.547 95.3723 136.566 96.5543 134.19" stroke="white" stroke-width="3" stroke-linecap="round" stroke-linejoin="round"/>
<path d="M179.14 113.71H145.42" stroke="white" stroke-width="3" stroke-linecap="round" stroke-linejoin="round"/>
<path d="M88.7504 113.71H62.6244C60.9622 113.712 59.369 114.374 58.1938 115.549C57.0188 116.725 56.358 118.318 56.3564 119.98V142.132" stroke="white" stroke-width="3" stroke-linecap="round" stroke-linejoin="round"/>
<path d="M125.586 118.27H120M127.562 118.27H145.42V105.008H111" stroke="white" stroke-width="3" stroke-linecap="round" stroke-linejoin="round"/>
<path d="M125.168 100.6C125.168 101.397 124.932 102.175 124.489 102.838C124.047 103.5 123.418 104.016 122.682 104.321C121.946 104.626 121.136 104.706 120.354 104.551C119.573 104.395 118.855 104.012 118.292 103.448C117.729 102.885 117.345 102.167 117.19 101.386C117.034 100.604 117.114 99.7946 117.419 99.0586C117.724 98.3224 118.24 97.6934 118.902 97.2508C119.565 96.8082 120.344 96.572 121.14 96.572C122.208 96.5724 123.233 96.997 123.988 97.7524C124.743 98.5076 125.168 99.5318 125.168 100.6Z" stroke="white" stroke-width="3" stroke-linecap="round" stroke-linejoin="round"/>
<path d="M128.624 158.204V185.866H69.0464V171.122" stroke="white" stroke-width="3" stroke-linecap="round" stroke-linejoin="round"/>
<path d="M69.0464 149.388V126.286H89.0002" stroke="white" stroke-width="3" stroke-linecap="round" stroke-linejoin="round"/>
<path d="M173.232 138.408H141.354V126.286H173.232V138.408Z" stroke="white" stroke-width="3" stroke-linecap="round" stroke-linejoin="round"/>
<path d="M173.232 202.28H69.0464V198.214H173.232V202.28Z" stroke="white" stroke-width="3" stroke-linecap="round" stroke-linejoin="round"/>
<path d="M173.232 166.982V185.866H141.354V180.964" stroke="white" stroke-width="3" stroke-linecap="round" stroke-linejoin="round"/>
<path d="M145.268 148.4H162.024" stroke="white" stroke-width="3" stroke-linecap="round" stroke-linejoin="round"/>
<path d="M370.434 355.14H29.5303" stroke="white" stroke-width="3" stroke-linecap="round" stroke-linejoin="round"/>
<path d="M199.146 135.672C195.46 139.168 189.946 138.712 183.454 136.052C185.62 135.482 185.054 129.82 185.316 127.388C182.428 130.01 179.464 132.062 178.438 130.428C177.488 128.718 177.412 124.994 178.932 114.926C179.882 115.43 180.873 115.85 181.896 116.18C181.516 120.056 182.854 120.288 183.644 118.916C185.104 116.378 187.976 118.46 185.164 122.336C186.608 123.816 192.564 130.136 193.524 131.188C195.028 133.095 196.952 134.63 199.146 135.672Z" stroke="white" stroke-width="3" stroke-linecap="round" stroke-linejoin="round"/>
<path d="M199.146 135.672C204.876 137.072 210.09 140.07 214.182 144.318C225.412 154.942 233.88 172.602 258.042 194.186C256.866 197.306 255.022 200.13 252.638 202.46C250.254 204.792 247.388 206.572 244.242 207.676C230.184 194.3 220.456 183.776 210.242 167.74" stroke="white" stroke-width="3" stroke-linecap="round" stroke-linejoin="round"/>
<path d="M185.316 127.388C185.202 128.49 185.202 129.972 185.164 131.416C182.884 131.644 179.502 131.758 178.78 130.922L178.438 130.466C179.464 132.1 182.428 130.048 185.316 127.388Z" stroke="white" stroke-width="3" stroke-linecap="round" stroke-linejoin="round"/>
<path d="M149.524 156.6V166.024C150.658 164.36 151.724 162.81 152.738 161.372" stroke="white" stroke-width="3" stroke-linecap="round" stroke-linejoin="round"/>
<path d="M175.36 163.828C171.165 170.63 166.125 176.873 160.36 182.408C154.62 187.838 144.622 185.984 140.146 179.482C133.86 169.964 128.78 159.702 125.024 148.932C130.023 144.747 136.256 142.318 142.768 142.018C145.107 148.935 148.471 155.461 152.746 161.38C156.666 155.706 159.596 151.52 161.994 148.4C167.352 141.334 169.968 139.564 175.026 138.142C177.494 137.448 180.764 136.742 183.426 136.052" stroke="white" stroke-width="3" stroke-linecap="round" stroke-linejoin="round"/>
<path d="M205.34 220.898C205.34 220.898 210.47 211.398 210.812 207.41L210.28 225.04" stroke="white" stroke-width="3" stroke-linecap="round" stroke-linejoin="round"/>
<path d="M174.258 158.546C174.258 158.546 178.858 180.47 181.022 183.814C174.562 225.648 166.584 310.304 165.064 325.16C173.682 328.844 183.281 329.554 192.346 327.174C192.346 327.174 203.546 240.656 205.346 220.898L233.464 244.684C235.856 246.732 238.672 248.224 241.708 249.054L282.82 260.414" stroke="white" stroke-width="3" stroke-linecap="round" stroke-linejoin="round"/>
<path d="M304.436 237.654C297.236 237.254 291.236 274.036 296.71 281.75C296.93 282.118 297.23 282.434 297.588 282.672C297.946 282.91 298.354 283.064 298.778 283.124C299.204 283.184 299.638 283.15 300.048 283.02C300.458 282.892 300.834 282.672 301.148 282.38C308.832 276.346 313.346 238.142 304.436 237.654Z" stroke="white" stroke-width="3" stroke-linecap="round" stroke-linejoin="round"/>
<path d="M169.32 326.832L168.72 331.924C168.44 334.402 167.518 336.764 166.044 338.776C164.571 340.79 162.598 342.382 160.32 343.398C154.358 346.068 148.733 349.434 143.564 353.43C143.409 353.554 143.296 353.724 143.241 353.916C143.186 354.106 143.192 354.31 143.258 354.498C143.324 354.686 143.446 354.848 143.609 354.964C143.771 355.078 143.965 355.14 144.164 355.14C161.148 355.14 175.396 354.988 188.964 354.95C189.113 350.456 188.43 345.974 186.95 341.728C186.764 341.152 186.712 340.542 186.798 339.942C187.128 337.394 187.862 330.404 188.09 327.972" stroke="white" stroke-width="3" stroke-linecap="round" stroke-linejoin="round"/>
<path d="M293.416 235.564C292.584 232.832 290.67 231.316 288.114 232.642C282.738 235.428 277.418 249.77 280.196 257.418C281.472 260.928 284.262 261.868 287.64 258.248" stroke="white" stroke-width="3" stroke-linecap="round" stroke-linejoin="round"/>
<path d="M286.538 233.816C292.41 235.446 298.372 236.728 304.396 237.654" stroke="white" stroke-width="3" stroke-linecap="round" stroke-linejoin="round"/>
<path d="M279.656 255.28C282.21 255.682 284.686 256.478 286.994 257.64C289.416 259.658 290.138 262.64 291.06 265.84C292.962 272.46 293.362 280.94 297.766 282.752" stroke="white" stroke-width="3" stroke-linecap="round" stroke-linejoin="round"/>
<path d="M122.09 127.502C123.35 127.564 124.582 127.889 125.708 128.457C126.833 129.025 127.827 129.823 128.624 130.8" stroke="white" stroke-width="3" stroke-linecap="round" stroke-linejoin="round"/>
<path d="M130.601 128.718C129.968 128.015 129.255 127.39 128.475 126.856" stroke="white" stroke-width="3" stroke-linecap="round" stroke-linejoin="round"/>
<path d="M121.634 134.57C122.639 135.934 123.481 137.411 124.142 138.97" stroke="white" stroke-width="3" stroke-linecap="round" stroke-linejoin="round"/>
<path d="M120.418 130.77C121.9 130.314 124.446 131.112 126.84 133.62" stroke="white" stroke-width="3" stroke-linecap="round" stroke-linejoin="round"/>
<path d="M126.422 147.83C126.187 144.769 125.415 141.772 124.142 138.978C120.114 138.484 118.294 133.412 119.354 131.578C119.589 131.182 119.972 130.894 120.418 130.778C120.124 130.009 120.098 129.164 120.342 128.378C120.532 128.09 120.792 127.855 121.098 127.695C121.404 127.536 121.745 127.457 122.09 127.466C122.087 127.062 122.165 126.662 122.318 126.288C122.94 125.004 125.738 125.034 128.474 126.858C124.522 119.412 125.388 114.21 126.118 115.764C128.594 120.38 131.321 124.858 134.286 129.176C134.4 128.036 134.706 126.068 135.54 125.908C136.492 125.728 139.302 137.156 140.48 142.134" stroke="white" stroke-width="3" stroke-linecap="round" stroke-linejoin="round"/>
<path d="M270.618 212.69C269.028 212.084 267.478 211.374 265.982 210.564C267.676 212.306 269.464 213.956 271.34 215.502C273.822 217.154 272.598 218.724 269.516 217.326C267.598 216.384 265.744 215.314 263.968 214.126C265.412 215.836 266.708 217.466 267.312 218.002C269.528 219.964 268.122 221.364 265.298 219.602C263.642 218.51 262.056 217.318 260.548 216.03C260.992 216.934 261.514 217.798 262.106 218.614C264.064 220.762 262.826 221.614 260.168 219.716C255.05 215.83 250.202 211.604 245.654 207.064C250.902 204.824 255.138 200.722 257.548 195.55C259.674 197.216 262.118 198.431 264.728 199.122C272.67 201.134 271.796 203.416 262.258 202.884C265.222 205.872 268.54 208.488 272.138 210.672C274.614 212.3 273.816 213.852 270.618 212.69Z" stroke="white" stroke-width="3" stroke-linecap="round" stroke-linejoin="round"/>
<path d="M262.372 208.4C263.246 208.97 264.5 209.768 265.982 210.566" stroke="white" stroke-width="3" stroke-linecap="round" stroke-linejoin="round"/>
<path d="M262.22 202.888C261.65 202.288 261.042 201.672 260.472 200.988" stroke="white" stroke-width="3" stroke-linecap="round" stroke-linejoin="round"/>
<path d="M259.41 211.018C260.244 211.618 261.992 212.842 263.968 214.096" stroke="white" stroke-width="3" stroke-linecap="round" stroke-linejoin="round"/>
<path d="M257.2 213.032C257.884 213.716 259.138 214.818 260.504 215.996" stroke="white" stroke-width="3" stroke-linecap="round" stroke-linejoin="round"/>
<path d="M178.933 114.926C179.199 113.406 179.505 111.392 179.959 109.492C180.685 106.454 183.569 106.414 183.379 108.124C185.203 104.818 188.091 106.034 187.597 107.478C189.269 104.514 192.461 105.73 191.701 107.25C193.563 104.666 196.563 105.768 195.841 107.44C197.741 104.932 201.008 106.148 198.919 109.568C196.473 113.568 189.071 125.026 193.159 130.804" stroke="white" stroke-width="3" stroke-linecap="round" stroke-linejoin="round"/>
<path d="M349.042 144.336L373.55 165.234L349.042 186.094" stroke="white" stroke-width="3" stroke-linecap="round" stroke-linejoin="round"/>
<path d="M35.3442 145.058L12.5083 164.55L36.9782 185.41" stroke="white" stroke-width="3" stroke-linecap="round" stroke-linejoin="round"/>
<path d="M175.057 138.142C175.057 138.142 183.189 168.12 175.401 163.8" stroke="white" stroke-width="3" stroke-linecap="round" stroke-linejoin="round"/>
<path d="M206.6 138.6C209.74 141.686 210.97 152.088 210.6 158.7C210.08 165.85 210.156 173.031 210.828 180.168C219.25 183.958 223.93 192.656 227.508 200.002C232.296 209.92 244.308 220.906 244.308 220.906L290.582 232.262" stroke="white" stroke-width="3" stroke-linecap="round" stroke-linejoin="round"/>
<path d="M179.92 136.926C181.287 140.828 182.304 144.844 182.96 148.926L204.36 148.356C203.614 144.259 202.572 140.221 201.244 136.274" stroke="white" stroke-width="3" stroke-linecap="round" stroke-linejoin="round"/>
<path d="M45.9063 225.458L37.3203 234.044" stroke="white" stroke-width="3" stroke-linecap="round" stroke-linejoin="round"/>
<path d="M56.3564 172.452V208.664C56.3584 210.326 57.0196 211.918 58.1946 213.094C59.3696 214.268 60.9626 214.93 62.6244 214.932H176.8" stroke="white" stroke-width="3" stroke-linecap="round" stroke-linejoin="round"/>
<path d="M67.2223 204.142C69.3299 206.25 70.7653 208.936 71.3467 211.86C71.9281 214.782 71.6297 217.814 70.4889 220.568C69.3481 223.322 67.4163 225.674 64.9377 227.332C62.4591 228.988 59.5451 229.872 56.5643 229.872C53.5833 229.872 50.6693 228.988 48.1909 227.332C45.7123 225.674 43.7805 223.322 42.6397 220.568C41.4989 217.814 41.2003 214.782 41.7817 211.86C42.3631 208.936 43.7985 206.25 45.9063 204.142C48.7347 201.318 52.5679 199.733 56.5643 199.733C60.5607 199.733 64.3939 201.318 67.2223 204.142Z" stroke="white" stroke-width="3" stroke-linecap="round" stroke-linejoin="round"/>
<path d="M165.52 53.0681H149.106" stroke="white" stroke-width="3" stroke-linecap="round" stroke-linejoin="round"/>
<path d="M157.332 61.2741V44.8601" stroke="white" stroke-width="3" stroke-linecap="round" stroke-linejoin="round"/>
<path d="M245.958 287.658C246.04 288.598 245.842 289.54 245.39 290.368C244.936 291.194 244.248 291.868 243.412 292.304C242.576 292.74 241.63 292.918 240.692 292.816C239.754 292.714 238.868 292.336 238.146 291.73C237.422 291.124 236.896 290.318 236.632 289.412C236.368 288.508 236.378 287.544 236.66 286.644C236.944 285.744 237.486 284.95 238.222 284.358C238.958 283.768 239.85 283.408 240.79 283.326C242.05 283.216 243.302 283.61 244.27 284.422C245.24 285.234 245.846 286.398 245.958 287.658Z" stroke="white" stroke-width="3" stroke-linecap="round" stroke-linejoin="round"/>
<path d="M386.166 97.4481C384.492 98.6253 382.696 99.6189 380.808 100.412C381.112 100.184 383.278 97.5621 385.824 94.3701C388.864 90.5701 388.024 88.8601 383.81 92.6981C382.316 94.0765 380.714 95.3345 379.022 96.4601C379.212 96.1941 382.022 91.7861 383.924 88.1761C386.052 84.0721 384.524 83.0841 381.416 87.0361C381.252 87.2361 375.802 93.7101 374.234 95.4361L375.37 94.1461C375.682 92.0165 376.296 89.9427 377.198 87.9881C378.908 83.9881 377.47 82.8341 374.728 87.1141C374.58 87.3441 370.602 93.7761 369.864 94.6381C369.264 95.3321 368.192 96.4621 367.548 96.2381C365.192 95.3641 362.418 89.7401 360.404 90.7281C359.112 91.3281 361.278 94.9841 362.532 97.6061C363.464 99.5681 361.718 101.952 359.834 103.494C364.222 106.65 367.59 111.023 369.522 116.072C377.464 109.422 379.478 107.072 385.558 101.518C386.242 100.874 387.04 100.118 387.914 99.2021C391.182 95.7761 390.574 94.3701 386.166 97.4481Z" stroke="white" stroke-width="3" stroke-linecap="round" stroke-linejoin="round"/>
<path d="M318.684 160.218L312.642 161.244C312.452 162.156 312.11 163.866 311.768 165.644" stroke="white" stroke-width="3" stroke-linecap="round" stroke-linejoin="round"/>
<path d="M299.724 142.55C301.358 143.234 303.634 143.076 306.752 141.448C310.624 139.426 356.452 103.108 356.452 103.108C360.518 100.032 373.36 117.508 369.142 120.588L311.768 165.652C310.518 172.343 309.896 179.136 309.906 185.942" stroke="white" stroke-width="3" stroke-linecap="round" stroke-linejoin="round"/>
<path d="M287.26 145.4C288.356 144.38 289.166 143.093 289.614 141.665C290.062 140.237 290.132 138.717 289.816 137.254C287.404 137.97 281.596 138.742 284.562 126.44C287.362 114.944 292.838 121.378 293.716 125.824C293.902 126.774 294.276 127.164 295.468 125.756C297.592 123.246 300.45 127.156 296.19 130.544C295.59 131.028 294.846 140.466 299.686 142.544C294.252 153.188 290.072 154.176 287.26 145.4Z" stroke="white" stroke-width="3" stroke-linecap="round" stroke-linejoin="round"/>
<path d="M289.816 137.252C290.4 137.068 291.162 136.74 291.63 136.584L290 138.75" stroke="white" stroke-width="3" stroke-linecap="round" stroke-linejoin="round"/>
<path d="M257.966 172.338C266.666 158.85 274.456 150.682 283.688 147.45C285.004 147.015 286.22 146.317 287.26 145.4" stroke="white" stroke-width="3" stroke-linecap="round" stroke-linejoin="round"/>
<path d="M278.028 157.672C275.828 162.384 273.578 164.398 278.94 180.242C279.74 182.598 279.966 183.32 281.106 186.322" stroke="white" stroke-width="3" stroke-linecap="round" stroke-linejoin="round"/>
<path d="M291.25 151.25C288.97 161.168 289.54 172.794 292.238 185.638" stroke="white" stroke-width="3" stroke-linecap="round" stroke-linejoin="round"/>
<path d="M372.258 94.332C375.51 96.0708 378.052 98.8934 379.44 102.31" stroke="white" stroke-width="3" stroke-linecap="round" stroke-linejoin="round"/>
<path d="M371.384 97.448C373.474 101.134 373.584 104.59 370.784 107.478" stroke="white" stroke-width="3" stroke-linecap="round" stroke-linejoin="round"/>
<path d="M277.306 175.112C274.792 179.192 271.75 182.922 268.262 186.208" stroke="white" stroke-width="3" stroke-linecap="round" stroke-linejoin="round"/>
<path d="M32.4747 129.874C31.0387 126.354 29.3683 122.935 27.4747 119.638C25.5019 116.648 23.2083 113.883 20.6347 111.392C16.8346 107.736 17.1786 106.3 22.1927 109.036C24.0267 110.036 41.0867 121.646 43.8147 124.504" stroke="white" stroke-width="3" stroke-linecap="round" stroke-linejoin="round"/>
<path d="M34.6982 117.548C37.2442 119.068 35.6062 113.748 35.5342 111.696C35.4542 109.454 36.2082 106.988 38.1942 112.912C39.6466 116.959 41.5182 120.842 43.7782 124.5" stroke="white" stroke-width="3" stroke-linecap="round" stroke-linejoin="round"/>
<path d="M21.4004 112.152C20.0586 111.152 18.6632 110.226 17.2204 109.378C11.8204 106.354 11.6344 108.238 13.8004 109.872C15.6624 111.272 18.7784 113.472 20.3344 114.964C22.8444 117.364 29.1124 122.108 30.2904 124.88" stroke="white" stroke-width="3" stroke-linecap="round" stroke-linejoin="round"/>
<path d="M13.4963 109.644C9.9623 108.656 9.6963 109.676 10.1903 109.986C12.1423 111.218 15.5383 112.85 17.4103 113.938C18.4683 114.554 22.6902 117.206 23.7162 117.966" stroke="white" stroke-width="3" stroke-linecap="round" stroke-linejoin="round"/>
<path d="M117.455 166.032L128.586 172.946" stroke="white" stroke-width="3" stroke-linecap="round" stroke-linejoin="round"/>
<path d="M284.372 126.742H257.966V186.322H317.544V161.244" stroke="white" stroke-width="3" stroke-linecap="round" stroke-linejoin="round"/>
<path d="M134.287 129.174C135.049 130.593 135.673 132.081 136.149 133.62" stroke="white" stroke-width="3" stroke-linecap="round" stroke-linejoin="round"/>
<path d="M178.096 163.334L179.303 167.323M169.32 326.718L169.633 323.73M183.134 179.991L184.29 183.814L183.978 186.795M182.939 196.716L182.31 202.722M181.27 212.646L180.661 218.464M179.622 228.384L178.969 234.608M177.945 244.384L177.332 250.238M176.278 260.304L175.652 266.28M174.614 276.188L173.984 282.198M172.949 292.082L172.331 297.98M171.309 307.734L170.676 313.78" stroke="white" stroke-width="3" stroke-linecap="round" stroke-linejoin="round"/>
<path d="M279.472 252.094L276.9 251.356M217.25 221.328L220.864 224.456M227.288 230.018L231.244 233.442M237.694 239.028L239.574 240.656L242.06 241.368M250.348 243.744L255.456 245.21M263.58 247.538L268.612 248.98" stroke="white" stroke-width="3" stroke-linecap="round" stroke-linejoin="round"/>
</svg>
