<svg fill="none" height="400" viewBox="0 0 400 400" width="400" xmlns="http://www.w3.org/2000/svg"><path d="m244.292 220.904s-12.012-10.986-16.8-20.904c-3.572-7.334-8.246-16.034-16.642-19.834-.702-7.135-.778-14.319-.228-21.468.414-7.462-1.42-18.4-4-20.1-1.692-.996-3.506-1.763-5.4-2.28 1.328 3.947 2.37 7.985 3.116 12.082l-21.4.57c-.681-4.095-1.711-8.124-3.078-12.044-1.9.456-3.458.8-4.864 1.216.038.228 8.094 29.978.342 25.648 1.52 6.724 4.142 17.744 5.624 20.024-6.46 41.834-14.438 126.49-15.958 141.346 8.627 3.702 18.244 4.412 27.32 2.014 0 0 11.246-86.518 13-106.276l28.156 23.824c2.392 2.048 5.208 3.54 8.244 4.37l41.112 11.36c-7.47-2.2-1.18-28.738 7.448-28.232z" fill="#fff"/><path d="m56.3564 199.734v8.93c.002 1.662.6632 3.254 1.8382 4.43 1.175 1.174 2.768 1.836 4.4298 1.838h9c.0218-2.008-.3586-4-1.119-5.858-.7606-1.858-1.8854-3.546-3.3086-4.962-1.423-1.416-3.1154-2.534-4.9772-3.286-1.862-.752-3.8556-1.123-5.8632-1.092z" fill="#fff"/><g fill="#0a7ea4"><path d="m116.8 109.948c-2.044-2.653-4.861-4.606-8.063-5.589-3.201-.983-6.629-.948-9.8092.101.2492-1.238.2372-2.515-.0352-3.749-.2724-1.2335-.7992-2.3967-1.5468-3.4149-1.399-1.7254-3.4176-2.8348-5.624-3.091-2.2064-.2564-4.4254.3606-6.1828 1.7192-1.7572 1.3586-2.9132 3.351-3.2208 5.5507-.3074 2.2.258 4.433 1.5756 6.221.7848.989 1.7706 1.799 2.8922 2.379 1.1216.579 2.3532.913 3.6138.981-1.8112 2.81-2.7068 6.112-2.5636 9.452.1434 3.34 1.3184 6.553 3.3636 9.198 1.5424 1.783 3.3666 3.301 5.4 4.494 2.356-4.4 2.934-9.354 2.584-9.766-2.448-2.864.114-5.546 1.7482-2.278.836 1.672 1.862-1.254 2.356-3.382 2.488 1.112 5.147 1.793 7.864 2.014-.266 10.6-3.154 15.768-7.522 11.322-.087 1.356-.049 2.717.114 4.066 3.644-.233 7.154-1.47 10.138-3.576 3.389-2.618 5.6-6.475 6.147-10.722.547-4.248-.615-8.538-3.229-11.93z"/><path d="m103.586 132.1c-.704-.753-1.339-1.567-1.9-2.432-.174 1.159-.083 2.342.266 3.461s.946 2.144 1.748 2.999c-.158-1.337-.197-2.685-.114-4.028z"/><path d="m81.8901 166.374c-1.9758.964-4.006 1.814-6.08 2.544l4.79-8.282c.2642 1.946.6958 3.866 1.29 5.738z"/><path d="m185.316 127.388c-.114 1.102-.114 2.584-.152 4.028-2.28.228-5.662.342-6.384-.494l-.342-.456c1.026 1.634 3.99-.418 6.878-3.078z"/><path d="m152.752 161.358c-1.026 1.444-2.09 3-3.228 4.674v-9.462c.93 1.689 2.011 3.292 3.228 4.788z"/><path d="m205.34 220.86 4.94 4.18.532-17.63c-.304 3.95-5.472 13.488-5.472 13.45z"/><path d="m304.436 237.654c-7.51-.4-14.818 42.714-5.472 45.52 8.928.494 15.198-44.988 5.472-45.52z"/><path d="m286.956 257.64c-2.308-1.134-4.766-1.928-7.3-2.36.836 5.51 4.26 6.958 7.984 2.968-.228-.19-.418-.38-.684-.608z"/><path d="m290.718 232.258c-.778-.108-1.57-.022-2.306.25-.734.272-1.392.722-1.912 1.31 2.09.6 4.522 1.214 6.916 1.746-.146-.728-.47-1.412-.94-1.988s-1.074-1.028-1.758-1.318z"/><path d="m195.84 107.44c.722-1.672-2.278-2.774-4.14-.19.76-1.52-2.432-2.736-4.104.228.494-1.444-2.4-2.66-4.218.646.2-1.71-2.698-1.672-3.42 1.368-.456 1.9-.8 3.952-1.064 5.472.949.504 1.941.924 2.964 1.254-.38 3.876.988 4.104 1.748 2.736 1.444-2.546 4.332-.494 1.52 3.42.186.2 8.166 8.652 8.358 8.852-4.786-5.624 2.926-17.554 5.434-21.658 2.082-3.42-1.178-4.636-3.078-2.128z"/><path d="m36.142 232.83-14.782 14.78c-1.58 1.58.85 4.03 2.4 2.4l14.782-14.782c.318-.318.4966-.75.4964-1.2s-.1792-.882-.4974-1.2-.7498-.496-1.1998-.496c-.4498 0-.8812.18-1.1992.498z"/><path d="m312.642 161.244c-.19.912-.532 2.622-.874 4.4l6.916-5.434z"/><path d="m289.882 137.382c.084.452.136.909.152 1.368l1.6-2.166z"/><path d="m318.114 109.8c-.01-.648-.254-1.27-.688-1.752-.432-.482-1.026-.791-1.668-.87.416-.513.632-1.16.604-1.82s-.296-1.287-.752-1.764c-.458-.476-1.074-.769-1.734-.823-.658-.053-1.314.135-1.842.531-.088-.671-.414-1.288-.922-1.736-.506-.448-1.158-.698-1.836-.703-.676-.004-1.332.236-1.844.678-.514.441-.85 1.053-.946 1.723-.52-.404-1.17-.604-1.828-.561-.656.043-1.274.325-1.738.793s-.738 1.09-.774 1.747c-.036.658.17 1.306.58 1.821-.652.082-1.254.399-1.688.893-.436.493-.676 1.128-.676 1.786s.24 1.293.676 1.787c.434.493 1.036.81 1.688.892-.406.516-.608 1.163-.57 1.818s.312 1.274.774 1.74c.462.467 1.078.749 1.732.793.656.045 1.304-.151 1.824-.551.078.654.39 1.256.88 1.695s1.124.684 1.782.689c.658.004 1.296-.232 1.792-.663.496-.432.818-1.031.904-1.683.518.406 1.166.61 1.822.574s1.278-.31 1.748-.77c.47-.461.756-1.077.806-1.733.048-.656-.142-1.307-.538-1.833.67-.061 1.294-.373 1.744-.873s.696-1.152.688-1.825z"/><path d="m309.982 123.4c.684-.194 1.278-.619 1.684-1.204.404-.584.594-1.291.536-1.999s-.362-1.374-.856-1.885c-.494-.51-1.152-.832-1.858-.912.468-.5.756-1.142.818-1.825.062-.682-.106-1.366-.478-1.942-.37-.576-.924-1.012-1.57-1.238-.648-.226-1.35-.23-2-.011.158-.674.086-1.382-.208-2.009-.292-.628-.788-1.139-1.406-1.45-.62-.312-1.324-.406-2.004-.268-.678.138-1.29.501-1.738 1.029-.16-.704-.554-1.333-1.116-1.785-.564-.453-1.262-.701-1.984-.706-.724-.004-1.426.236-1.994.681-.568.446-.97 1.07-1.138 1.772-.438-.534-1.042-.905-1.718-1.052-.674-.147-1.38-.062-2 .241-.62.304-1.12.808-1.418 1.431-.296.623-.376 1.329-.222 2.002-.648-.232-1.354-.241-2.006-.026-.654.216-1.216.645-1.596 1.217-.382.572-.56 1.256-.508 1.942.054.685.334 1.334.798 1.841-.704.078-1.358.396-1.854.9s-.804 1.164-.872 1.868c-.066.705.112 1.411.504 1.999.392.589.976 1.024 1.652 1.233-.354.206-.662.48-.908.806-.246.327-.424.7-.522 1.096-.1.397-.118.81-.056 1.213.064.404.206.792.422 1.139 2.824-12.67 8.612-6.4 9.424-1.4.19.8.684.836 1.71-.34 2.128-2.508 4.982 1.388.722 4.786-.236.188-.552 1.686-.304 5.244.388-.149.742-.374 1.042-.661s.54-.631.706-1.011c.274.651.764 1.188 1.388 1.519.626.331 1.344.436 2.038.297.692-.139 1.316-.512 1.764-1.058.45-.545.696-1.229.698-1.936.558.389 1.228.581 1.908.545.678-.035 1.326-.295 1.84-.74.514-.444.866-1.048 1-1.714.132-.667.04-1.359-.264-1.967.436.057.878.02 1.298-.11.42-.129.806-.347 1.134-.639s.59-.651.766-1.053c.178-.402.266-.837.26-1.276-.014-.523-.16-1.035-.424-1.487s-.64-.829-1.09-1.097z"/><path d="m299.686 176.4c.03.373-.088.743-.332 1.028-.242.285-.588.462-.96.492s-.742-.089-1.028-.331c-.284-.242-.462-.588-.492-.961s.088-.742.332-1.027c.242-.285.588-.463.96-.493s.742.089 1.028.331c.284.243.462.588.492.961z"/><path d="m285.132 166.716c.03.373-.088.743-.332 1.028-.242.285-.588.462-.96.492s-.742-.089-1.028-.331c-.284-.243-.462-.588-.492-.961s.088-.743.332-1.028c.242-.285.588-.462.96-.492s.742.089 1.028.331c.284.242.462.588.492.961z"/><path d="m298.28 155.468c.03.373-.088.743-.332 1.028-.242.285-.588.462-.96.492s-.742-.089-1.028-.331c-.284-.242-.462-.588-.492-.961s.088-.743.332-1.028c.242-.285.588-.462.96-.492s.742.089 1.028.331c.284.243.462.588.492.961z"/></g><g stroke="#fff" stroke-linejoin="round" stroke-width="2"><path d="m36.142 232.83-14.782 14.78c-1.58 1.58.85 4.03 2.4 2.4l14.782-14.782c.318-.318.4966-.75.4964-1.2s-.1792-.882-.4974-1.2-.7498-.496-1.1998-.496c-.4498 0-.8812.18-1.1992.498z"/><path d="m317.426 108.048c.434.482.678 1.104.688 1.752.008.673-.238 1.325-.688 1.825s-1.074.812-1.744.873c.396.526.586 1.177.538 1.833-.05.656-.336 1.272-.806 1.733-.47.46-1.092.734-1.748.77s-1.304-.168-1.822-.574c-.086.652-.408 1.251-.904 1.683l-.012.01c.148.106.288.226.418.359.494.511.798 1.177.856 1.885s-.132 1.415-.536 1.999c-.406.585-1 1.01-1.684 1.204.45.268.826.645 1.09 1.097s.41.964.424 1.487c.006.439-.082.874-.26 1.276-.176.402-.438.761-.766 1.053s-.714.51-1.134.639c-.42.13-.862.167-1.298.11.304.608.396 1.3.264 1.967-.134.666-.486 1.27-1 1.714-.514.445-1.162.705-1.84.74-.68.036-1.35-.156-1.908-.545-.002.707-.248 1.391-.698 1.936-.448.546-1.072.919-1.764 1.058-.694.139-1.412.034-2.038-.297-.624-.331-1.114-.868-1.388-1.519-.166.38-.406.724-.706 1.011s-.654.512-1.042.661c-.248-3.558.068-5.056.304-5.244 4.26-3.398 1.406-7.294-.722-4.786-1.026 1.176-1.52 1.14-1.71.34-.812-5-6.6-11.27-9.424 1.4-.216-.347-.358-.735-.422-1.139-.062-.403-.044-.816.056-1.213.098-.396.276-.769.522-1.096.246-.326.554-.6.908-.806-.676-.209-1.26-.644-1.652-1.233-.392-.588-.57-1.294-.504-1.999.068-.704.376-1.364.872-1.868s1.15-.822 1.854-.9c-.464-.507-.744-1.156-.798-1.841-.052-.686.126-1.37.508-1.942.38-.572.942-1.001 1.596-1.217.652-.215 1.358-.206 2.006.026-.154-.673-.074-1.379.222-2.002.298-.623.798-1.127 1.418-1.431.62-.303 1.326-.388 2-.241.676.147 1.28.518 1.718 1.052.168-.702.57-1.326 1.138-1.772.568-.445 1.27-.685 1.994-.681.722.005 1.42.253 1.984.706.304.245.56.542.756.875.114-.298.28-.576.496-.819.434-.494 1.036-.811 1.688-.893-.41-.515-.616-1.163-.58-1.821.036-.657.31-1.279.774-1.747s1.082-.75 1.738-.793c.658-.043 1.308.157 1.828.561.096-.67.432-1.282.946-1.723.512-.442 1.168-.682 1.844-.678.678.005 1.33.255 1.836.703.508.448.834 1.065.922 1.736.528-.396 1.184-.584 1.842-.531.66.054 1.276.347 1.734.823.456.477.724 1.104.752 1.764s-.188 1.307-.604 1.82c.642.079 1.236.388 1.668.87z"/><g stroke-linecap="round"><path d="m254.166 214.932h-15.808"/><path d="m270.618 214.932h53.382c1.662-.002 3.254-.664 4.43-1.838 1.174-1.176 1.836-2.768 1.838-4.43v-57.566"/><path d="m330.272 123.436v-3.456c-.002-1.663-.662-3.257-1.838-4.432-1.176-1.176-2.772-1.837-4.434-1.838h-7.812"/><path d="m241.2 113.71h-34.2c-1.662.002-3.256.663-4.432 1.838-1.176 1.176-1.836 2.77-1.838 4.432v16.072"/><path d="m289.806 109.625v-4.617h-48.598v13.262h42.416"/><path d="m269.554 100.6c0 .797-.236 1.575-.678 2.238-.444.662-1.072 1.178-1.808 1.483s-1.546.385-2.328.23c-.782-.156-1.498-.539-2.062-1.103-.564-.563-.948-1.281-1.102-2.062-.156-.782-.076-1.5914.228-2.3274.306-.7362.822-1.3652 1.484-1.8078s1.442-.6788 2.238-.6788c1.068.0004 2.092.425 2.848 1.1804.754.7552 1.18 1.7794 1.18 2.8476z"/><path d="m317.544 133.506v-6.764h-6.012"/><path d="m245.274 139.396h-31.878v-12.654h31.878z"/><path d="m221.336 152.2h23.938v10.64h-15.768"/><path d="m213.396 181.534v-5.814h2.204"/><path d="m223.768 186.322h-4.788"/><path d="m239.878 175.72h5.396v6.004"/><path d="m226.58 198.214h8.018"/><path d="m238.662 202.28h-9.992"/><path d="m261.992 198.214h55.552v4.028h-47.762"/><path d="m98.9122 104.438c-3.508 1.149-6.5138 3.47-8.512 6.574-1.4362-.032-2.841-.427-4.0832-1.149-1.2424-.721-2.2816-1.745-3.0212-2.977-.7394-1.232-1.155-2.631-1.208-4.066-.053-1.436.2586-2.8617.9054-4.1443.6468-1.2828 1.6078-2.3808 2.7936-3.192 1.1858-.811 2.5576-1.3086 3.9876-1.4462 1.43-.1378 2.8714.0888 4.1902.6586s2.4718 1.4642 3.3516 2.6c.7876.993 1.3402 2.1512 1.6166 3.3879.2764 1.237.2694 2.52-.0206 3.754z"/><path d="m126 151.82c-11.666-9.2-21.05-5.7-22.266-15.654"/><path d="m113.883 132.6c-2.987 2.104-6.498 3.341-10.144 3.572 0 0-.152-3.23-.114-4.066 4.368 4.446 7.256-.722 7.522-11.322-2.717-.221-5.376-.902-7.864-2.014-.494 2.128-1.52 5.052-2.356 3.382-1.6344-3.268-4.2004-.586-1.7484 2.278.35.412-.228 5.358-2.584 9.766-2.0372-1.184-3.8622-2.699-5.4-4.484-1.958-2.529-3.122-5.582-3.3448-8.773s.5054-6.376 2.0928-9.153c1.5874-2.776 3.9626-5.02 6.825-6.447 2.8626-1.427 6.0844-1.973 9.2574-1.569 3.172.404 6.154 1.739 8.568 3.838s4.151 4.866 4.992 7.952.749 6.352-.267 9.385c-1.015 3.033-2.906 5.697-5.435 7.655z"/><path d="m103.738 136.166c-.808-.859-1.412-1.89-1.767-3.015-.356-1.125-.453-2.315-.285-3.483.573.867 1.221 1.681 1.938 2.432"/><path d="m88.1582 141.562c7.068 3.534 14.3998 4.368 20.4798 1.71"/><path d="m116.049 154.784c3.458 6.118 0 20.86-.722 26.218.566 1.706 1.331 3.338 2.28 4.864"/><path d="m81.8901 166.374c-.6088-1.868-1.0414-3.789-1.292-5.738l-4.788 8.282"/><path d="m84.7003 185.866c1.398-1.487 2.6336-3.118 3.686-4.866-2.6654-4.638-4.8422-9.54-6.496-14.628-5.8058 2.653-11.8838 4.665-18.126 6-3.55.789-7.262.369-10.5458-1.194-3.2838-1.562-5.9512-4.178-7.5782-7.43l-15.654-31.382c2.1306-2.547 4.7916-4.597 7.797-6.008 3.0054-1.412 6.2828-2.149 9.603-2.162l13.756 27.776c10.4182-2.986 20.5018-7.035 30.092-12.082 2.2894-1.343 4.138-3.324 5.32-5.7"/><path d="m179.14 113.71h-33.72"/><path d="m88.7504 113.71h-26.126c-1.6622.002-3.2554.664-4.4306 1.839-1.175 1.176-1.8358 2.769-1.8374 4.431v22.152"/><path d="m125.586 118.27h-5.586m7.562 0h17.858v-13.262h-34.42"/><path d="m125.168 100.6c0 .797-.236 1.575-.679 2.238-.442.662-1.071 1.178-1.807 1.483s-1.546.385-2.328.23c-.781-.156-1.499-.539-2.062-1.103-.563-.563-.947-1.281-1.102-2.062-.156-.782-.076-1.5914.229-2.3274.305-.7362.821-1.3652 1.483-1.8078.663-.4426 1.442-.6788 2.238-.6788 1.068.0004 2.093.425 2.848 1.1804.755.7552 1.18 1.7794 1.18 2.8476z"/><path d="m128.624 158.204v27.662h-59.5776v-14.744"/><path d="m69.0464 149.388v-23.102h19.9538"/><path d="m173.232 138.408h-31.878v-12.122h31.878z"/><path d="m173.232 202.28h-104.1856v-4.066h104.1856z"/><path d="m173.232 166.982v18.884h-31.878v-4.902"/><path d="m145.268 148.4h16.756"/><path d="m370.434 355.14h-340.9037"/><path d="m199.146 135.672c-3.686 3.496-9.2 3.04-15.692.38 2.166-.57 1.6-6.232 1.862-8.664-2.888 2.622-5.852 4.674-6.878 3.04-.95-1.71-1.026-5.434.494-15.502.95.504 1.941.924 2.964 1.254-.38 3.876.958 4.108 1.748 2.736 1.46-2.538 4.332-.456 1.52 3.42 1.444 1.48 7.4 7.8 8.36 8.852 1.504 1.907 3.428 3.442 5.622 4.484z"/><path d="m199.146 135.672c5.73 1.4 10.944 4.398 15.036 8.646 11.23 10.624 19.698 28.284 43.86 49.868-1.176 3.12-3.02 5.944-5.404 8.274-2.384 2.332-5.25 4.112-8.396 5.216-14.058-13.376-23.786-23.9-34-39.936"/><path d="m185.316 127.388c-.114 1.102-.114 2.584-.152 4.028-2.28.228-5.662.342-6.384-.494l-.342-.456c1.026 1.634 3.99-.418 6.878-3.078z"/><path d="m149.524 156.6v9.424c1.134-1.664 2.2-3.214 3.214-4.652"/><path d="m175.36 163.828c-4.195 6.802-9.235 13.045-15 18.58-5.74 5.43-15.738 3.576-20.214-2.926-6.286-9.518-11.366-19.78-15.122-30.55 4.999-4.185 11.232-6.614 17.744-6.914 2.339 6.917 5.703 13.443 9.978 19.362 3.92-5.674 6.85-9.86 9.248-12.98 5.358-7.066 7.974-8.836 13.032-10.258 2.468-.694 5.738-1.4 8.4-2.09"/><path d="m205.34 220.898s5.13-9.5 5.472-13.488l-.532 17.63"/><path d="m174.258 158.546s4.6 21.924 6.764 25.268c-6.46 41.834-14.438 126.49-15.958 141.346 8.618 3.684 18.217 4.394 27.282 2.014 0 0 11.2-86.518 13-106.276l28.118 23.786c2.392 2.048 5.208 3.54 8.244 4.37l41.112 11.36"/><path d="m304.436 237.654c-7.2-.4-13.2 36.382-7.726 44.096.22.368.52.684.878.922s.766.392 1.19.452c.426.06.86.026 1.27-.104.41-.128.786-.348 1.1-.64 7.684-6.034 12.198-44.238 3.288-44.726z"/><path d="m169.32 326.832-.6 5.092c-.28 2.478-1.202 4.84-2.676 6.852-1.473 2.014-3.446 3.606-5.724 4.622-5.962 2.67-11.587 6.036-16.756 10.032-.155.124-.268.294-.323.486-.055.19-.049.394.017.582s.188.35.351.466c.162.114.356.176.555.176 16.984 0 31.232-.152 44.8-.19.149-4.494-.534-8.976-2.014-13.222-.186-.576-.238-1.186-.152-1.786.33-2.548 1.064-9.538 1.292-11.97"/><path d="m293.416 235.564c-.832-2.732-2.746-4.248-5.302-2.922-5.376 2.786-10.696 17.128-7.918 24.776 1.276 3.51 4.066 4.45 7.444.83"/><path d="m286.538 233.816c5.872 1.63 11.834 2.912 17.858 3.838"/><path d="m279.656 255.28c2.554.402 5.03 1.198 7.338 2.36 2.422 2.018 3.144 5 4.066 8.2 1.902 6.62 2.302 15.1 6.706 16.912"/><path d="m122.09 127.502c1.26.062 2.492.387 3.618.955 1.125.568 2.119 1.366 2.916 2.343"/><path d="m130.601 128.718c-.633-.703-1.346-1.328-2.126-1.862"/><path d="m121.634 134.57c1.005 1.364 1.847 2.841 2.508 4.4"/><path d="m120.418 130.77c1.482-.456 4.028.342 6.422 2.85"/><path d="m126.422 147.83c-.235-3.061-1.007-6.058-2.28-8.852-4.028-.494-5.848-5.566-4.788-7.4.235-.396.618-.684 1.064-.8-.294-.769-.32-1.614-.076-2.4.19-.288.45-.523.756-.683.306-.159.647-.238.992-.229-.003-.404.075-.804.228-1.178.622-1.284 3.42-1.254 6.156.57-3.952-7.446-3.086-12.648-2.356-11.094 2.476 4.616 5.203 9.094 8.168 13.412.114-1.14.42-3.108 1.254-3.268.952-.18 3.762 11.248 4.94 16.226"/><path d="m270.618 212.69c-1.59-.606-3.14-1.316-4.636-2.126 1.694 1.742 3.482 3.392 5.358 4.938 2.482 1.652 1.258 3.222-1.824 1.824-1.918-.942-3.772-2.012-5.548-3.2 1.444 1.71 2.74 3.34 3.344 3.876 2.216 1.962.81 3.362-2.014 1.6-1.656-1.092-3.242-2.284-4.75-3.572.444.904.966 1.768 1.558 2.584 1.958 2.148.72 3-1.938 1.102-5.118-3.886-9.966-8.112-14.514-12.652 5.248-2.24 9.484-6.342 11.894-11.514 2.126 1.666 4.57 2.881 7.18 3.572 7.942 2.012 7.068 4.294-2.47 3.762 2.964 2.988 6.282 5.604 9.88 7.788 2.476 1.628 1.678 3.18-1.52 2.018z"/><path d="m262.372 208.4c.874.57 2.128 1.368 3.61 2.166"/><path d="m262.22 202.888c-.57-.6-1.178-1.216-1.748-1.9"/><path d="m259.41 211.018c.834.6 2.582 1.824 4.558 3.078"/><path d="m257.2 213.032c.684.684 1.938 1.786 3.304 2.964"/><path d="m178.933 114.926c.266-1.52.572-3.534 1.026-5.434.726-3.038 3.61-3.078 3.42-1.368 1.824-3.306 4.712-2.09 4.218-.646 1.672-2.964 4.864-1.748 4.104-.228 1.862-2.584 4.862-1.482 4.14.19 1.9-2.508 5.167-1.292 3.078 2.128-2.446 4-9.848 15.458-5.76 21.236"/><path d="m349.042 144.336 24.508 20.898-24.508 20.86"/><path d="m35.3442 145.058-22.8359 19.492 24.4699 20.86"/><path d="m175.057 138.142s8.132 29.978.344 25.658"/><path d="m206.6 138.6c3.14 3.086 4.37 13.488 4 20.1-.52 7.15-.444 14.331.228 21.468 8.422 3.79 13.102 12.488 16.68 19.834 4.788 9.918 16.8 20.904 16.8 20.904l46.274 11.356"/><path d="m179.92 136.926c1.367 3.902 2.384 7.918 3.04 12l21.4-.57c-.746-4.097-1.788-8.135-3.116-12.082"/><path d="m45.9063 225.458-8.586 8.586"/><path d="m56.3564 172.452v36.212c.002 1.662.6632 3.254 1.8382 4.43 1.175 1.174 2.768 1.836 4.4298 1.838h114.1756"/><path d="m67.2223 204.142c2.1076 2.108 3.543 4.794 4.1244 7.718.5814 2.922.283 5.954-.8578 8.708s-3.0726 5.106-5.5512 6.764c-2.4786 1.656-5.3926 2.54-8.3734 2.54-2.981 0-5.895-.884-8.3734-2.54-2.4786-1.658-4.4104-4.01-5.5512-6.764s-1.4394-5.786-.858-8.708c.5814-2.924 2.0168-5.61 4.1246-7.718 2.8284-2.824 6.6616-4.409 10.658-4.409s7.8296 1.585 10.658 4.409z"/><path d="m165.52 53.0681h-16.414"/><path d="m157.332 61.2741v-16.414"/><path d="m245.958 287.658c.082.94-.116 1.882-.568 2.71-.454.826-1.142 1.5-1.978 1.936s-1.782.614-2.72.512-1.824-.48-2.546-1.086c-.724-.606-1.25-1.412-1.514-2.318-.264-.904-.254-1.868.028-2.768.284-.9.826-1.694 1.562-2.286.736-.59 1.628-.95 2.568-1.032 1.26-.11 2.512.284 3.48 1.096.97.812 1.576 1.976 1.688 3.236z"/><path d="m386.166 97.4481c-1.674 1.1772-3.47 2.1708-5.358 2.9639.304-.228 2.47-2.8499 5.016-6.0419 3.04-3.8 2.2-5.51-2.014-1.672-1.494 1.3784-3.096 2.6364-4.788 3.762.19-.266 3-4.674 4.902-8.284 2.128-4.104.6-5.092-2.508-1.14-.164.2-5.614 6.674-7.182 8.4l1.136-1.29c.312-2.1296.926-4.2034 1.828-6.158 1.71-4 .272-5.154-2.47-.874-.148.23-4.126 6.662-4.864 7.524-.6.694-1.672 1.824-2.316 1.6-2.356-.874-5.13-6.498-7.144-5.51-1.292.6.874 4.256 2.128 6.878.932 1.962-.814 4.3459-2.698 5.8879 4.388 3.156 7.756 7.529 9.688 12.578 7.942-6.65 9.956-9 16.036-14.554.684-.644 1.482-1.4 2.356-2.3159 3.268-3.426 2.66-4.832-1.748-1.754z"/><path d="m318.684 160.218-6.042 1.026c-.19.912-.532 2.622-.874 4.4"/><path d="m299.724 142.55c1.634.684 3.91.526 7.028-1.102 3.872-2.022 49.7-38.34 49.7-38.34 4.066-3.076 16.908 14.4 12.69 17.48l-57.374 45.064c-1.25 6.691-1.872 13.484-1.862 20.29"/><path d="m287.26 145.4c1.096-1.02 1.906-2.307 2.354-3.735s.518-2.948.202-4.411c-2.412.716-8.22 1.488-5.254-10.814 2.8-11.496 8.276-5.062 9.154-.616.186.95.56 1.34 1.752-.068 2.124-2.51 4.982 1.4.722 4.788-.6.484-1.344 9.922 3.496 12-5.434 10.644-9.614 11.632-12.426 2.856z"/><path d="m289.816 137.252c.584-.184 1.346-.512 1.814-.668l-1.63 2.166"/><path d="m257.966 172.338c8.7-13.488 16.49-21.656 25.722-24.888 1.316-.435 2.532-1.133 3.572-2.05"/><path d="m278.028 157.672c-2.2 4.712-4.45 6.726.912 22.57.8 2.356 1.026 3.078 2.166 6.08"/><path d="m291.25 151.25c-2.28 9.918-1.71 21.544.988 34.388"/><path d="m372.258 94.332c3.252 1.7388 5.794 4.5614 7.182 7.978"/><path d="m371.384 97.448c2.09 3.686 2.2 7.142-.6 10.03"/><path d="m277.306 175.112c-2.514 4.08-5.556 7.81-9.044 11.096"/><path d="m32.4747 129.874c-1.436-3.52-3.1064-6.939-5-10.236-1.9728-2.99-4.2664-5.755-6.84-8.246-3.8001-3.656-3.4561-5.092 1.558-2.356 1.834 1 18.894 12.61 21.622 15.468"/><path d="m34.6982 117.548c2.546 1.52.908-3.8.836-5.852-.08-2.242.674-4.708 2.66 1.216 1.4524 4.047 3.324 7.93 5.584 11.588"/><path d="m21.4004 112.152c-1.3418-1-2.7372-1.926-4.18-2.774-5.4-3.024-5.586-1.14-3.42.494 1.862 1.4 4.978 3.6 6.534 5.092 2.51 2.4 8.778 7.144 9.956 9.916"/><path d="m13.4963 109.644c-3.534-.988-3.8.032-3.306.342 1.952 1.232 5.348 2.864 7.22 3.952 1.058.616 5.2799 3.268 6.3059 4.028"/><path d="m117.455 166.032 11.131 6.914"/><path d="m284.372 126.742h-26.406v59.58h59.578v-25.078"/><path d="m134.287 129.174c.762 1.419 1.386 2.907 1.862 4.446"/><path d="m178.096 163.334 1.207 3.989m-9.983 159.395.313-2.988m13.501-143.739 1.156 3.823-.312 2.981m-1.039 9.921-.629 6.006m-1.04 9.924-.609 5.818m-1.039 9.92-.653 6.224m-1.024 9.776-.613 5.854m-1.054 10.066-.626 5.976m-1.038 9.908-.63 6.01m-1.035 9.884-.618 5.898m-1.022 9.754-.633 6.046"/><path d="m279.472 252.094-2.572-.738m-59.65-30.028 3.614 3.128m6.424 5.562 3.956 3.424m6.45 5.586 1.88 1.628 2.486.712m8.288 2.376 5.108 1.466m8.124 2.328 5.032 1.442"/></g></g></svg>