<svg width="400" height="400" viewBox="0 0 400 400" fill="none" xmlns="http://www.w3.org/2000/svg">
<path d="M87.2258 288.908L47.5158 241.908L11.7038 233.636C11.2397 234.499 11.0461 235.481 11.1481 236.455C11.2501 237.429 11.6431 238.35 12.2758 239.098L47.4238 280.698C48.7956 282.319 50.6572 283.45 52.7278 283.92L76.8098 289.364C80.0905 290.107 83.5021 290.047 86.7548 289.19C90.0075 288.333 93.0054 286.703 95.4938 284.44L115.346 266.4C117.561 264.617 119.091 262.121 119.676 259.338L87.2258 288.908Z" stroke="white" stroke-width="2" stroke-linecap="round" stroke-linejoin="round"/>
<path d="M47.5156 241.912L11.7036 233.636L51.1076 280.27L87.2256 288.908L47.5156 241.912Z" stroke="white" stroke-width="2" stroke-linecap="round" stroke-linejoin="round"/>
<path d="M63.7396 227.124L47.5156 241.912L57.4436 253.66L73.6676 238.874L63.7396 227.124Z" stroke="white" stroke-width="2" stroke-linecap="round" stroke-linejoin="round"/>
<path d="M79.9637 212.34L63.7397 227.124L73.6677 238.874L89.8917 224.088L79.9637 212.34Z" stroke="white" stroke-width="2" stroke-linecap="round" stroke-linejoin="round"/>
<path d="M73.6678 238.874L57.4438 253.66L67.3718 265.41L83.5958 250.624L73.6678 238.874Z" stroke="white" stroke-width="2" stroke-linecap="round" stroke-linejoin="round"/>
<path d="M89.892 224.088L73.668 238.874L83.596 250.624L99.82 235.838L89.892 224.088Z" stroke="white" stroke-width="2" stroke-linecap="round" stroke-linejoin="round"/>
<path d="M83.5956 250.624L67.3716 265.41L77.2996 277.16L93.5236 262.374L83.5956 250.624Z" stroke="white" stroke-width="2" stroke-linecap="round" stroke-linejoin="round"/>
<path d="M99.8197 235.838L83.5957 250.624L93.5237 262.374L109.748 247.588L99.8197 235.838Z" stroke="white" stroke-width="2" stroke-linecap="round" stroke-linejoin="round"/>
<path d="M93.5238 262.374L77.2998 277.16L87.2258 288.908L103.452 274.122L93.5238 262.374Z" stroke="white" stroke-width="2" stroke-linecap="round" stroke-linejoin="round"/>
<path d="M109.748 247.588L93.5239 262.374L103.452 274.122L119.676 259.336L109.748 247.588Z" stroke="white" stroke-width="2" stroke-linecap="round" stroke-linejoin="round"/>
<path d="M90.9996 120.07C90.4872 117.879 89.8617 115.716 89.1256 113.59C87.6176 110.912 85.7315 108.465 83.5256 106.324C79.2976 101.25 76.2216 100.19 75.0656 101.174C71.3776 104.306 83.0096 111.754 80.1496 113.48C77.8236 114.88 61.8136 108.36 56.4996 106.04C53.0116 104.516 50.4796 107.44 52.9636 109.954C53.7826 110.734 54.7169 111.383 55.7336 111.878C54.0219 110.959 52.1648 110.341 50.2436 110.052C48.0596 110.112 47.6436 112.88 49.1396 114.488C50.0136 115.348 51.0116 116.074 52.1016 116.64C51.5086 116.47 50.9026 116.349 50.2896 116.278C48.1056 116.342 47.6896 119.106 49.1856 120.716C49.8696 121.43 50.6656 122.026 51.5396 122.484C51.1887 123.011 51.0332 123.645 51.1 124.275C51.1668 124.905 51.4518 125.492 51.9056 125.934C54.9056 129.1 66.3336 135.284 78.7776 135.206C83.1896 135.494 86.5596 136.966 92.0916 139.186L98.9996 123.36L90.9996 120.068V120.07Z" fill="white"/>
<path d="M90.9996 120.07C90.4872 117.879 89.8617 115.716 89.1256 113.59C87.6176 110.912 85.7315 108.465 83.5256 106.324C79.2976 101.25 76.2216 100.19 75.0656 101.174C71.3776 104.306 83.0096 111.754 80.1496 113.48C77.8236 114.88 61.8136 108.36 56.4996 106.04C53.0116 104.516 50.4796 107.44 52.9636 109.954C53.7826 110.734 54.7169 111.383 55.7336 111.878C54.0219 110.959 52.1648 110.341 50.2436 110.052C48.0596 110.112 47.6436 112.88 49.1396 114.488C50.0136 115.348 51.0116 116.074 52.1016 116.64C51.5086 116.47 50.9026 116.349 50.2896 116.278C48.1056 116.342 47.6896 119.106 49.1856 120.716C49.8696 121.43 50.6656 122.026 51.5396 122.484C51.1887 123.011 51.0332 123.645 51.1 124.275C51.1668 124.905 51.4518 125.492 51.9056 125.934C54.9056 129.1 66.3336 135.284 78.7776 135.206C83.1896 135.494 86.5596 136.966 92.0916 139.186L98.9996 123.36L90.9996 120.068V120.07Z" stroke="white" stroke-width="2" stroke-linecap="round" stroke-linejoin="round"/>
<path d="M55.7295 111.878C60.1177 114.223 64.8391 115.882 69.7295 116.798" stroke="white" stroke-width="2" stroke-linecap="round" stroke-linejoin="round"/>
<path d="M52.0996 116.64C57.4035 119.106 62.9735 120.952 68.6996 122.144" stroke="white" stroke-width="2" stroke-linecap="round" stroke-linejoin="round"/>
<path d="M51.5356 122.484C53.1656 120.684 59.3636 125.852 67.8836 127.664" stroke="white" stroke-width="2" stroke-linecap="round" stroke-linejoin="round"/>
<path d="M264.848 259.6C256.78 231.352 236.63 190.254 232.068 176.504H194.82C194.82 176.504 198.738 210.336 202.62 217.954C209.538 231.554 239.054 270.59 239.054 270.59C222.914 301.254 200.15 336.772 198.864 338.776C201.026 335.682 216.498 343.808 219.802 345.726C223.014 347.59 236.77 356.266 236.402 359.966C242.678 340.298 260.092 307.324 265.064 285.838C267.526 275.2 267.966 270.514 264.848 259.6Z" fill="white"/>
<path d="M198.799 338.87C198.799 338.87 222.431 302.158 239.047 270.592C239.047 270.592 209.531 231.552 202.613 217.956C198.737 210.336 194.813 176.504 194.813 176.504H232.061C236.623 190.254 256.773 231.354 264.841 259.6C267.959 270.516 267.519 275.2 265.053 285.842C260.037 307.516 242.361 340.88 236.227 360.484" stroke="white" stroke-width="2" stroke-linecap="round" stroke-linejoin="round"/>
<path d="M229.692 360.266C232.892 361.316 235.534 361.694 236.234 360.482C237.396 358.47 232.396 354.226 227.508 350.746C227.758 354.01 228.494 357.219 229.692 360.266Z" fill="#0A7EA4"/>
<path d="M204.654 346.476C206.157 344.475 207.671 342.483 209.196 340.498C204.454 338.51 199.796 337.148 198.796 338.87C197.868 340.482 200.884 343.528 204.654 346.476Z" fill="#0A7EA4"/>
<path d="M229.692 360.266C232.892 361.316 235.534 361.694 236.234 360.482C238.16 357.148 223.168 347.682 219.796 345.728C216.46 343.792 200.726 335.528 198.796 338.87C197.864 340.482 200.88 343.528 204.65 346.47" stroke="white" stroke-width="2" stroke-linecap="round" stroke-linejoin="round"/>
<path d="M227.503 350.678C221.8 346.617 215.666 343.196 209.213 340.478C206.751 343.688 201.367 350.744 199.127 354.12C212.403 367.03 226.685 376.742 239.963 389.654C244.925 383.468 228.243 365.696 227.503 350.678Z" stroke="white" stroke-width="2" stroke-linecap="round" stroke-linejoin="round"/>
<path d="M199.128 354.116C200.82 352.172 211.328 358.552 222.608 368.364C233.888 378.176 241.654 387.704 239.964 389.65C238.274 391.596 227.763 385.218 216.481 375.406C205.199 365.594 197.436 356.06 199.128 354.116Z" fill="#0A7EA4"/>
<path d="M199.128 354.116C200.82 352.172 211.328 358.552 222.608 368.364C233.888 378.176 241.654 387.704 239.964 389.65C238.274 391.596 227.763 385.218 216.481 375.406C205.199 365.594 197.436 356.06 199.128 354.116Z" stroke="white" stroke-width="2" stroke-linecap="round" stroke-linejoin="round"/>
<path d="M125.702 306.874C120.808 309.074 114.486 311.968 111.404 313.61C108.99 314.518 111.284 326.596 116.532 340.582C121.78 354.568 128.012 365.216 130.408 364.262C137.808 361.304 131.306 337.224 138.182 323.662C133.386 317.702 128.6 311.024 125.702 306.874Z" stroke="white" stroke-width="2" stroke-linecap="round" stroke-linejoin="round"/>
<path d="M186.354 176.426C186.354 176.426 178.318 197.676 178.53 205.426C178.906 219.254 188.692 262.734 188.692 262.734C160.082 282.054 122.922 302.838 122.922 302.838C122.922 302.838 139.55 327.578 148.322 334.566C162.322 320.93 191.694 301.146 205.57 285.382C212.39 277.634 214.806 273.982 216.702 263.834C221.61 237.572 221.746 189.464 223.562 176.434L186.354 176.426Z" fill="white"/>
<path d="M186.354 176.426C186.354 176.426 178.318 197.676 178.53 205.426C178.906 219.254 188.692 262.734 188.692 262.734C160.082 282.054 122.922 302.838 122.922 302.838C122.922 302.838 139.55 327.578 148.322 334.566C162.322 320.93 191.694 301.146 205.57 285.382C212.39 277.634 214.806 273.982 216.702 263.834C221.61 237.572 221.746 189.464 223.562 176.434L186.354 176.426Z" stroke="white" stroke-width="2" stroke-linecap="round" stroke-linejoin="round"/>
<path d="M168.155 147.512C164.555 154.008 161.051 160.218 157.917 165.512C154.091 168.912 128.091 192.652 117.025 202.73L125.689 215.564C152.521 199.862 167.821 194.222 179.471 180.95C181.816 178.284 183.963 175.449 185.895 172.47" stroke="white" stroke-width="2" stroke-linecap="round" stroke-linejoin="round"/>
<path d="M125.69 215.568L117.026 202.734C107.444 210.252 94.4018 213.72 90.8979 216.98C85.5518 221.948 84.2158 228.794 82.6538 232.52C81.0378 236.372 81.0198 238.552 82.5478 239.216C82.8325 239.258 83.1233 239.218 83.3858 239.1C82.8438 241.254 83.1138 242.576 84.2498 242.978C84.5528 243.066 84.8757 243.054 85.1718 242.946C84.5518 245.16 86.1998 245.992 87.8658 245.83C87.7459 246.246 87.7564 246.688 87.8959 247.098C88.0354 247.507 88.2971 247.864 88.6459 248.12C88.9945 248.376 89.4131 248.52 89.8455 248.532C90.278 248.543 90.7038 248.423 91.0658 248.186C92.9378 246.748 97.2879 238.682 99.0919 236.496C101.492 233.592 103.692 233.438 111.738 227.156C111.338 229.771 110.27 232.239 108.636 234.32C106.884 236.506 107.518 238.014 108.236 238.9C110.89 242.158 118.972 233.89 121.292 222.934C121.6 221.516 120.8 219.71 125.69 215.568Z" fill="white"/>
<path d="M125.69 215.568L117.026 202.734C107.444 210.252 94.4018 213.72 90.8979 216.98C85.5518 221.948 84.2158 228.794 82.6538 232.52C81.0378 236.372 81.0198 238.552 82.5478 239.216C82.8325 239.258 83.1233 239.218 83.3858 239.1C82.8438 241.254 83.1138 242.576 84.2498 242.978C84.5528 243.066 84.8757 243.054 85.1718 242.946C84.5518 245.16 86.1998 245.992 87.8658 245.83C87.7459 246.246 87.7564 246.688 87.8959 247.098C88.0354 247.507 88.2971 247.864 88.6459 248.12C88.9945 248.376 89.4131 248.52 89.8455 248.532C90.278 248.543 90.7038 248.423 91.0658 248.186C92.9378 246.748 97.2879 238.682 99.0919 236.496C101.492 233.592 103.692 233.438 111.738 227.156C111.338 229.771 110.27 232.239 108.636 234.32C106.884 236.506 107.518 238.014 108.236 238.9C110.89 242.158 118.972 233.89 121.292 222.934C121.6 221.516 120.8 219.71 125.69 215.568Z" stroke="white" stroke-width="2" stroke-linecap="round" stroke-linejoin="round"/>
<path d="M96.1257 229.682C93.4517 231.588 89.3457 242.218 87.8657 245.83" stroke="white" stroke-width="2" stroke-linecap="round" stroke-linejoin="round"/>
<path d="M93.4314 226.8C90.7514 228.708 86.6314 239.4 85.1714 242.948" stroke="white" stroke-width="2" stroke-linecap="round" stroke-linejoin="round"/>
<path d="M90.8157 224.388C88.5417 226.008 85.7897 233.188 83.3857 239.1" stroke="white" stroke-width="2" stroke-linecap="round" stroke-linejoin="round"/>
<path d="M229.84 157.904C235.021 162.785 240.882 166.891 247.24 170.092C263.012 178.042 271.798 176.392 302.556 180.912L304.556 165.176C290.522 159.976 266.258 149.428 261.444 147.71C254.026 142.03 245.024 134.73 236.18 127.466" stroke="white" stroke-width="2" stroke-linecap="round" stroke-linejoin="round"/>
<path d="M332.058 163.024C329.858 163.104 327.258 163.126 324.028 163.042C321.628 161.902 324.028 160.658 325.646 155.816C326.238 154.53 326.688 153.183 326.988 151.8C327.364 150.052 324.498 149.068 323.388 150.562C319.768 155.452 315.282 157.5 313.708 162.562C312.556 166.28 308.33 165.79 304.554 165.162L302.554 180.9C304.21 181.384 305.834 181.972 307.418 182.658C311.233 185.03 315.545 186.489 320.018 186.92C324.097 178.988 328.111 171.023 332.058 163.024Z" fill="white"/>
<path d="M332.058 163.024C329.858 163.104 327.258 163.126 324.028 163.042C321.628 161.902 324.028 160.658 325.646 155.816C326.238 154.53 326.688 153.183 326.988 151.8C327.364 150.052 324.498 149.068 323.388 150.562C319.768 155.452 315.282 157.5 313.708 162.562C312.556 166.28 308.33 165.79 304.554 165.162L302.554 180.9C304.21 181.384 305.834 181.972 307.418 182.658C311.233 185.03 315.545 186.489 320.018 186.92" stroke="white" stroke-width="2" stroke-linecap="round" stroke-linejoin="round"/>
<path d="M323.388 180.328C322.48 178.215 320.814 176.517 318.718 175.57C320.882 174.701 322.784 173.286 324.239 171.464C325.695 169.641 326.653 167.473 327.022 165.17" stroke="white" stroke-width="2" stroke-linecap="round" stroke-linejoin="round"/>
<path d="M177.696 94.158C178.882 96.2922 180.613 98.0736 182.712 99.3202C184.812 100.567 187.204 101.234 189.646 101.254C191.846 100.054 194.146 99.046 196.52 98.242C197.49 97.922 198.424 97.642 199.33 97.398C201.861 94.96 203.366 91.6482 203.539 88.1384C203.711 84.6285 202.539 81.185 200.26 78.51C202.772 77.0928 204.639 74.7586 205.468 71.9961C206.298 69.2336 206.027 66.2571 204.712 63.69C206.842 63.6391 208.923 63.0425 210.756 61.9574C212.59 60.8722 214.114 59.3347 215.184 57.492C216.799 54.7088 217.274 51.4089 216.512 48.2829C215.749 45.1568 213.807 42.4469 211.092 40.72C208.376 38.9926 205.098 38.3835 201.943 39.0203C198.788 39.6572 196.002 41.4905 194.17 44.136C191.457 40.4314 187.465 37.867 182.968 36.9406C178.47 36.0142 173.79 36.792 169.834 39.1228C165.878 41.4537 162.929 45.1714 161.56 49.5542C160.191 53.9369 160.5 58.672 162.426 62.84C160.347 63.8288 158.484 65.2199 156.946 66.9327C155.408 68.6455 154.225 70.6463 153.464 72.8192C152.704 74.9921 152.382 77.2942 152.517 79.5924C152.651 81.8905 153.24 84.1392 154.249 86.2085C155.258 88.2777 156.667 90.1265 158.395 91.648C160.122 93.1694 162.134 94.3334 164.315 95.0726C166.495 95.8118 168.8 96.1116 171.097 95.9546C173.394 95.7976 175.636 95.187 177.696 94.158Z" fill="#0A7EA4"/>
<path d="M177.696 94.158C178.882 96.2922 180.613 98.0736 182.712 99.3202C184.812 100.567 187.204 101.234 189.646 101.254C191.846 100.054 194.146 99.046 196.52 98.242C197.49 97.922 198.424 97.642 199.33 97.398C201.861 94.96 203.366 91.6482 203.539 88.1384C203.711 84.6285 202.539 81.185 200.26 78.51C202.772 77.0928 204.639 74.7586 205.468 71.9961C206.298 69.2336 206.027 66.2571 204.712 63.69C206.842 63.6391 208.923 63.0425 210.756 61.9574C212.59 60.8722 214.114 59.3347 215.184 57.492C216.799 54.7088 217.274 51.4089 216.512 48.2829C215.749 45.1568 213.807 42.4469 211.092 40.72C208.376 38.9926 205.098 38.3835 201.943 39.0203C198.788 39.6572 196.002 41.4905 194.17 44.136C191.457 40.4314 187.465 37.867 182.968 36.9406C178.47 36.0142 173.79 36.792 169.834 39.1228C165.878 41.4537 162.929 45.1714 161.56 49.5542C160.191 53.9369 160.5 58.672 162.426 62.84C160.347 63.8288 158.484 65.2199 156.946 66.9327C155.408 68.6455 154.225 70.6463 153.464 72.8192C152.704 74.9921 152.382 77.2942 152.517 79.5924C152.651 81.8905 153.24 84.1392 154.249 86.2085C155.258 88.2777 156.667 90.1265 158.395 91.648C160.122 93.1694 162.134 94.3334 164.315 95.0726C166.495 95.8118 168.8 96.1116 171.097 95.9546C173.394 95.7976 175.636 95.187 177.696 94.158Z" stroke="white" stroke-width="2" stroke-linecap="round" stroke-linejoin="round"/>
<path d="M281.765 118.512C279.321 104.5 275.193 93.664 266.609 79.312L251.519 84.21C255.931 100.91 255.519 99.61 258.577 111.05C245.919 104.18 228.397 98.974 217.831 96.766C210.732 95.2132 203.337 95.7247 196.519 98.24C177.893 104.354 156.025 130.286 140.815 134.856C136.131 134.78 122.921 131.692 98.9974 123.36L92.0874 139.184C121.999 152.6 125.999 161.14 142.183 159.39C158.583 157.618 169.331 146.364 181.829 136.23C183.457 150.798 185.229 166.83 186.353 176.43L232.067 176.506C231.361 168.218 229.969 160.616 229.267 152.326C229.047 148.802 230.573 146.66 231.639 143.294C233.339 137.918 236.693 132.494 234.653 127.008C256.365 133.56 256.979 134.188 264.339 135.44C267.884 136.185 271.579 135.59 274.711 133.771C277.842 131.951 280.189 129.036 281.297 125.588C282.031 123.303 282.192 120.873 281.765 118.512Z" stroke="white" stroke-width="2" stroke-linecap="round" stroke-linejoin="round"/>
<path d="M213.356 74.8141C213.002 70.7281 212.462 69.4321 209.864 60.4661C197.484 61.9961 198.358 71.8461 198.358 71.8461C195.784 65.9841 189.59 69.8861 192.726 73.8821C193.22 74.4439 193.824 74.8992 194.5 75.2204C195.176 75.5415 195.91 75.7217 196.658 75.7501C196.972 84.6061 195.614 89.9801 194.946 98.8141L210.304 114.63C211.382 105.588 212.086 95.7781 212.086 95.7781C210.594 90.6781 208.554 82.8921 208.218 81.6241C212.08 81.3241 213.738 78.4581 213.356 74.8141Z" fill="white"/>
<path d="M213.356 74.8141C213.002 70.7281 212.462 69.4321 209.864 60.4661C197.484 61.9961 198.358 71.8461 198.358 71.8461C195.784 65.9841 189.59 69.8861 192.726 73.8821C193.22 74.4439 193.824 74.8992 194.5 75.2204C195.176 75.5415 195.91 75.7217 196.658 75.7501C196.972 84.6061 195.614 89.9801 194.946 98.8141L210.304 114.63C211.382 105.588 212.086 95.7781 212.086 95.7781C210.594 90.6781 208.554 82.8921 208.218 81.6241C212.08 81.3241 213.738 78.4581 213.356 74.8141Z" stroke="white" stroke-width="2" stroke-linecap="round" stroke-linejoin="round"/>
<path d="M202.065 78C202.684 79.0894 203.577 79.997 204.657 80.6317C205.737 81.2664 206.965 81.6058 208.217 81.616C208.197 81.616 208.737 83.566 208.961 84.426C205.431 84.506 202.091 78.482 202.065 78Z" fill="#0A7EA4"/>
<path d="M202.065 78C202.684 79.0894 203.577 79.997 204.657 80.6317C205.737 81.2664 206.965 81.6058 208.217 81.616C208.197 81.616 208.737 83.566 208.961 84.426C205.431 84.506 202.091 78.482 202.065 78Z" stroke="white" stroke-width="2" stroke-linecap="round" stroke-linejoin="round"/>
<path d="M264.34 60.2641C261.682 53.4641 255.604 46.2781 251.18 39.9521C250.985 39.6268 250.7 39.3645 250.36 39.1969C250.019 39.0293 249.638 38.9634 249.261 39.0071C248.884 39.0508 248.528 39.2022 248.235 39.4433C247.942 39.6843 247.725 40.0048 247.61 40.3661C247.454 40.8486 247.489 41.3727 247.708 41.8301C248.184 43.3901 248.708 43.5501 245.24 39.3701C244.994 39.0332 244.656 38.7744 244.266 38.6247C243.877 38.475 243.452 38.4408 243.044 38.5261C242.635 38.6098 242.258 38.8095 241.96 39.1014C241.661 39.3933 241.453 39.765 241.36 40.1721C240.834 39.3921 240.306 38.6321 239.784 37.8841C239.548 37.5001 239.211 37.1884 238.81 36.9834C238.409 36.7784 237.959 36.688 237.51 36.7221L240.962 45.2061C241.428 46.0722 241.54 47.0854 241.275 48.0326C241.009 48.9797 240.387 49.7869 239.538 50.2841L233.526 52.7281C236.502 57.438 239.096 62.3784 241.284 67.5021C241.284 70.1581 239.128 68.5201 234.058 69.1181C232.644 69.1305 231.235 69.2982 229.858 69.6181C228.116 70.0181 228.458 73.0361 230.272 73.3981C236.24 74.5901 240.004 77.7741 245.256 77.0361C248.856 76.5321 250.456 80.0841 251.526 84.2041C253.784 84.3641 266.674 79.5281 266.616 79.3041C265.044 73.3361 267.952 69.5161 264.34 60.2641Z" fill="white"/>
<path d="M233.526 52.7361C236.502 57.446 239.096 62.3864 241.284 67.5101C241.284 70.1661 239.128 68.5281 234.058 69.1261C232.644 69.1385 231.235 69.3062 229.858 69.6261C228.116 70.0261 228.458 73.0441 230.272 73.4061C236.24 74.5981 240.004 77.7821 245.256 77.0441C248.856 76.5401 250.456 80.0921 251.526 84.2121C253.784 84.3721 266.674 79.5361 266.616 79.3121C265.05 73.3361 267.958 69.5121 264.346 60.2641C261.688 53.4641 255.61 46.2781 251.186 39.9521C250.991 39.6268 250.706 39.3645 250.366 39.1969C250.025 39.0293 249.644 38.9634 249.267 39.0071C248.89 39.0508 248.534 39.2022 248.241 39.4433C247.948 39.6843 247.731 40.0048 247.616 40.3661C247.46 40.8486 247.495 41.3727 247.714 41.8301C248.19 43.3901 248.714 43.5501 245.246 39.3701C245 39.0332 244.662 38.7744 244.272 38.6247C243.883 38.475 243.458 38.4408 243.05 38.5261C242.641 38.6098 242.264 38.8095 241.966 39.1014C241.667 39.3933 241.459 39.765 241.366 40.1721C240.84 39.3921 240.312 38.6321 239.79 37.8841C239.554 37.5001 239.217 37.1884 238.816 36.9834C238.415 36.7784 237.965 36.688 237.516 36.7221" stroke="white" stroke-width="2" stroke-linecap="round" stroke-linejoin="round"/>
<path d="M239.711 50.2141L243.549 56.6981" stroke="white" stroke-width="2" stroke-linecap="round" stroke-linejoin="round"/>
<path d="M241.36 40.1799L248.112 53.3059" stroke="white" stroke-width="2" stroke-linecap="round" stroke-linejoin="round"/>
<path d="M248.036 42.8481L252.714 51.9781" stroke="white" stroke-width="2" stroke-linecap="round" stroke-linejoin="round"/>
<path d="M259.77 58.676C258.271 59.474 257.021 60.6703 256.159 62.133C255.296 63.5958 254.854 65.2682 254.882 66.966C253.173 65.3794 251.082 64.2624 248.813 63.7241C246.545 63.1857 244.175 63.2442 241.936 63.894" stroke="white" stroke-width="2" stroke-linecap="round" stroke-linejoin="round"/>
<path d="M321.66 310.572H341.278" stroke="white" stroke-width="2" stroke-linecap="round" stroke-linejoin="round"/>
<path d="M331.468 320.38V300.764" stroke="white" stroke-width="2" stroke-linecap="round" stroke-linejoin="round"/>
<path d="M92.8857 49.1621L106.756 63.0341" stroke="white" stroke-width="2" stroke-linecap="round" stroke-linejoin="round"/>
<path d="M92.8857 63.0341L106.756 49.1621" stroke="white" stroke-width="2" stroke-linecap="round" stroke-linejoin="round"/>
<path d="M287.86 252.17L294.934 259.246" stroke="white" stroke-width="2" stroke-linecap="round" stroke-linejoin="round"/>
<path d="M287.86 259.246L294.934 252.17" stroke="white" stroke-width="2" stroke-linecap="round" stroke-linejoin="round"/>
<path d="M348.356 119.58L354.422 129.584L361.554 114.64" stroke="white" stroke-width="2" stroke-linecap="round" stroke-linejoin="round"/>
<path d="M316.69 203.278L315.062 204.908C325.794 209.952 329.71 217.85 336.018 227.896C338.106 231.222 342.86 239.2 346.17 241.314C358.948 228.52 372.357 216.372 386.346 204.914C386.241 200.029 384.766 195.272 382.088 191.186" stroke="white" stroke-width="2" stroke-linecap="round" stroke-linejoin="round"/>
<path d="M317 200.25L315.054 202.668C343.428 213.202 338.196 216.584 353.596 231.068C363.584 216.55 378.274 196.128 388.87 182.052C386.59 180.438 385.386 177.468 378.67 172.472" stroke="white" stroke-width="2" stroke-linecap="round" stroke-linejoin="round"/>
<path d="M371.566 148.35C362.871 143.66 353.5 140.35 343.788 138.54C340.4 146.578 318.104 191.514 313.532 198.94C329.152 205.296 346.01 205.196 360.628 213.612C369.062 194.073 377.663 174.605 386.428 155.212C381.302 153.316 376.333 151.022 371.566 148.35Z" stroke="white" stroke-width="2" stroke-linecap="round" stroke-linejoin="round"/>
<path d="M351.968 155.582L365.98 160.982" stroke="white" stroke-width="2" stroke-linecap="round" stroke-linejoin="round"/>
<path d="M347.948 163.272L361.962 168.672" stroke="white" stroke-width="2" stroke-linecap="round" stroke-linejoin="round"/>
<path d="M343.696 170.372L357.71 175.772" stroke="white" stroke-width="2" stroke-linecap="round" stroke-linejoin="round"/>
<path d="M340.4 178.212L354.412 183.612" stroke="white" stroke-width="2" stroke-linecap="round" stroke-linejoin="round"/>
<path d="M72.968 80.0459C73.2941 81.0488 73.5258 82.08 73.66 83.1259C74.4463 82.8919 75.2908 82.9512 76.0367 83.2927C76.7826 83.6342 77.3792 84.2347 77.7159 84.9828C78.0526 85.7309 78.1064 86.5757 77.8673 87.3605C77.6283 88.1452 77.1126 88.8166 76.416 89.2499C75.9521 89.5359 75.4261 89.7056 74.8825 89.7446C74.3389 89.7836 73.794 89.6907 73.294 89.4739C73.0398 90.5044 72.6897 91.5088 72.248 92.4739C77.13 93.7079 81.872 90.7399 82.026 86.6359C82.18 82.5319 77.704 79.3519 72.968 80.0459Z" stroke="white" stroke-width="2" stroke-linecap="round" stroke-linejoin="round"/>
<path d="M72.3858 78.5C72.5758 79.718 65.4058 81.924 56.3618 83.432C47.3178 84.94 39.8118 85.176 39.6038 83.962C39.3964 86.5565 39.7829 89.1642 40.7341 91.5869C41.6853 94.0096 43.1762 96.1837 45.0934 97.944C47.0107 99.7043 49.3039 101.004 51.7988 101.746C54.2938 102.487 56.9249 102.65 59.4923 102.222C62.0597 101.795 64.4958 100.787 66.6156 99.2771C68.7355 97.7669 70.4832 95.7934 71.7262 93.5066C72.9691 91.2197 73.6745 88.6797 73.7888 86.0795C73.9031 83.4792 73.4233 80.8871 72.3858 78.5Z" stroke="white" stroke-width="2" stroke-linecap="round" stroke-linejoin="round"/>
<path d="M55.6278 79.0279C64.6798 77.5199 72.1838 77.2839 72.3858 78.4999C72.5878 79.7159 65.4138 81.9219 56.3618 83.4319C47.3098 84.9419 39.8058 85.1779 39.6038 83.9619C39.4018 82.7459 46.5758 80.5359 55.6278 79.0279Z" stroke="white" stroke-width="2" stroke-linecap="round" stroke-linejoin="round"/>
<path d="M52.7621 75.222C47.6781 73.782 42.4541 71.822 38.9981 67.822C35.5421 63.822 32.8141 57.502 36.3561 53.572C38.2121 51.516 41.8201 52.752 43.4761 55.456C47.2461 61.618 48.4921 69.41 52.7621 75.222Z" fill="#0A7EA4"/>
<path d="M52.7621 75.222C47.6781 73.782 42.4541 71.822 38.9981 67.822C35.5421 63.822 32.8141 57.502 36.3561 53.572C38.2121 51.516 41.8201 52.752 43.4761 55.456C47.2461 61.618 48.4921 69.41 52.7621 75.222Z" stroke="white" stroke-width="2" stroke-linecap="round" stroke-linejoin="round"/>
<path d="M52.1998 48.86C54.3458 48.5 55.7498 46.184 55.3338 43.684C54.9178 41.184 52.8398 39.444 50.6938 39.804C48.5478 40.16 47.1438 42.476 47.5598 44.976C47.9758 47.476 50.0538 49.216 52.1998 48.858V48.86Z" fill="#0A7EA4"/>
<path d="M52.1998 48.86C54.3458 48.5 55.7498 46.184 55.3338 43.684C54.9178 41.184 52.8398 39.444 50.6938 39.804C48.5478 40.16 47.1438 42.476 47.5598 44.976C47.9758 47.476 50.0538 49.216 52.1998 48.858V48.86Z" stroke="white" stroke-width="2" stroke-linecap="round" stroke-linejoin="round"/>
<path d="M37.448 41.174C38.2129 41.174 38.9464 40.8702 39.4873 40.3293C40.0281 39.7884 40.332 39.0549 40.332 38.29C40.332 37.5251 40.0281 36.7916 39.4873 36.2507C38.9464 35.7099 38.2129 35.406 37.448 35.406C36.6831 35.406 35.9495 35.7099 35.4087 36.2507C34.8678 36.7916 34.564 37.5251 34.564 38.29C34.564 39.0549 34.8678 39.7884 35.4087 40.3293C35.9495 40.8702 36.6831 41.174 37.448 41.174Z" fill="#0A7EA4"/>
<path d="M37.448 41.174C38.2129 41.174 38.9464 40.8702 39.4873 40.3293C40.0281 39.7884 40.332 39.0549 40.332 38.29C40.332 37.5251 40.0281 36.7916 39.4873 36.2507C38.9464 35.7099 38.2129 35.406 37.448 35.406C36.6831 35.406 35.9495 35.7099 35.4087 36.2507C34.8678 36.7916 34.564 37.5251 34.564 38.29C34.564 39.0549 34.8678 39.7884 35.4087 40.3293C35.9495 40.8702 36.6831 41.174 37.448 41.174Z" stroke="white" stroke-width="2" stroke-linecap="round" stroke-linejoin="round"/>
<path d="M34.8238 201.888L31.1178 216.314L42.8658 206.612C63.1198 214.098 86.0838 199.012 83.2298 180.526C81.2438 167.668 67.1838 159.194 51.8298 161.598C29.1818 165.146 19.5118 188.574 34.8238 201.888Z" stroke="white" stroke-width="2" stroke-linecap="round" stroke-linejoin="round"/>
<path d="M54.5737 172.58V188.754" stroke="white" stroke-width="2" stroke-linecap="round" stroke-linejoin="round"/>
<path d="M54.5737 191.804V195.148" stroke="white" stroke-width="2" stroke-linecap="round" stroke-linejoin="round"/>
<path d="M247.318 17.6001C250.871 19.7577 253.626 23.0119 255.168 26.8721C256.708 30.7321 256.952 34.9881 255.862 39.0001" stroke="white" stroke-width="2" stroke-linecap="round" stroke-linejoin="round"/>
<path d="M242.8 24.45C244.695 25.6017 246.165 27.3385 246.987 29.3984C247.809 31.4583 247.939 33.7296 247.358 35.8699" stroke="white" stroke-width="2" stroke-linecap="round" stroke-linejoin="round"/>
<path d="M252.054 10C257.469 13.2854 261.669 18.2445 264.016 24.1277C266.364 30.0109 266.733 36.4985 265.068 42.61" stroke="white" stroke-width="2" stroke-linecap="round" stroke-linejoin="round"/>
<path d="M224.86 14.1999L211.046 19.8199C210.198 20.3179 209.577 21.1247 209.311 22.0711C209.046 23.0174 209.157 24.0299 209.622 24.8959L221.16 53.2599C221.431 54.2057 222.057 55.0097 222.908 55.5028C223.76 55.9959 224.769 56.1397 225.724 55.9039L239.538 50.2859C240.386 49.788 241.008 48.9808 241.274 48.034C241.539 47.0871 241.427 46.0742 240.962 45.2079L229.424 16.8499C229.153 15.9039 228.527 15.0995 227.676 14.6054C226.825 14.1113 225.816 13.966 224.86 14.1999Z" stroke="white" stroke-width="2" stroke-linecap="round" stroke-linejoin="round"/>
<path d="M240.962 45.2141L221.162 53.2661" stroke="white" stroke-width="2" stroke-linecap="round" stroke-linejoin="round"/>
<path d="M209.622 24.9001L229.422 16.8501" stroke="white" stroke-width="2" stroke-linecap="round" stroke-linejoin="round"/>
<path d="M230.624 51.6621L233.07 50.6621" stroke="white" stroke-width="2" stroke-linecap="round" stroke-linejoin="round"/>
</svg>
