<svg width="402" height="113" viewBox="0 0 402 113" fill="none" xmlns="http://www.w3.org/2000/svg">
<path d="M143.141 33.6574L140.812 47.2588H162.146L160.003 59.2765H138.669L136.061 73.9026H160.189L157.953 86.4792H117.895L129.446 21.0809H169.505L167.269 33.6574H143.141Z" fill="white"/>
<path d="M188.884 43.9051C191.306 40.7997 194.07 38.3776 197.175 36.6386C200.343 34.8375 203.634 33.9369 207.05 33.9369L204.069 50.7989H199.691C195.716 50.7989 192.579 51.6684 190.281 53.4074C187.984 55.0843 186.462 58.0654 185.717 62.3507L181.431 86.4792H165.501L174.631 34.4959H190.561L188.884 43.9051Z" fill="white"/>
<path d="M231.62 33.7506C235.284 33.7506 238.39 34.4959 240.936 35.9864C243.482 37.477 245.252 39.4334 246.246 41.8555L247.55 34.4959H263.481L254.351 86.386C253.481 91.1682 251.742 95.4847 249.134 99.3353C246.588 103.248 243.141 106.353 238.793 108.651C234.508 110.949 229.508 112.098 223.794 112.098C216.093 112.098 210.162 110.266 206.001 106.602C201.84 103 199.976 98.0931 200.411 91.8825H216.155C216.342 93.8699 217.242 95.4225 218.857 96.5405C220.534 97.7205 222.739 98.3105 225.471 98.3105C228.763 98.3105 231.558 97.3478 233.856 95.4225C236.154 93.5593 237.675 90.5472 238.421 86.386L239.725 79.0264C237.737 81.4485 235.222 83.436 232.179 84.9886C229.198 86.4792 225.875 87.2245 222.211 87.2245C218.546 87.2245 215.286 86.386 212.429 84.7091C209.634 83.0323 207.429 80.6411 205.814 77.5358C204.262 74.4305 203.485 70.7972 203.485 66.6361C203.485 64.7108 203.672 62.6302 204.044 60.3944C204.976 55.0532 206.808 50.3641 209.541 46.3272C212.274 42.2903 215.565 39.1849 219.416 37.0112C223.267 34.8375 227.335 33.7506 231.62 33.7506ZM242.985 60.4875C243.172 59.3696 243.265 58.3449 243.265 57.4133C243.265 54.37 242.364 51.9789 240.563 50.2399C238.824 48.5009 236.588 47.6315 233.856 47.6315C230.688 47.6315 227.8 48.7804 225.192 51.0784C222.583 53.3142 220.938 56.4195 220.254 60.3944C220.068 61.5123 219.975 62.5371 219.975 63.4687C219.975 66.5119 220.844 68.934 222.583 70.7351C224.384 72.4741 226.62 73.3436 229.291 73.3436C232.458 73.3436 235.346 72.1946 237.955 69.8967C240.563 67.5988 242.24 64.4624 242.985 60.4875Z" fill="white"/>
<path d="M286.744 87.2245C282.272 87.2245 278.297 86.3239 274.819 84.5228C271.341 82.7217 268.64 80.1753 266.714 76.8837C264.851 73.592 263.92 69.7725 263.92 65.425C263.92 59.5249 265.317 54.1527 268.112 49.3083C270.907 44.464 274.757 40.6755 279.664 37.9428C284.57 35.148 290.035 33.7506 296.06 33.7506C300.532 33.7506 304.506 34.6822 307.984 36.5454C311.524 38.3465 314.257 40.8929 316.182 44.1845C318.108 47.4762 319.07 51.2957 319.07 55.6432C319.07 61.6055 317.642 67.0087 314.785 71.8531C311.99 76.6353 308.109 80.3927 303.14 83.1254C298.234 85.8581 292.768 87.2245 286.744 87.2245ZM288.98 73.5299C291.588 73.5299 293.917 72.7536 295.967 71.2009C298.078 69.5862 299.693 67.5366 300.811 65.0524C301.991 62.506 302.581 59.8665 302.581 57.1338C302.581 54.0284 301.743 51.6373 300.066 49.9605C298.389 48.2836 296.277 47.4451 293.731 47.4451C291.06 47.4451 288.7 48.2525 286.651 49.8673C284.663 51.42 283.111 53.4695 281.993 56.0159C280.875 58.5622 280.316 61.2328 280.316 64.0276C280.316 67.0708 281.123 69.4309 282.738 71.1078C284.353 72.7225 286.433 73.5299 288.98 73.5299Z" fill="white"/>
<path d="M354.261 17.5408L345.625 49.1756L335.44 86.4792H319.51L338.331 17.5408H354.261Z" fill="white"/>
<path fill-rule="evenodd" clip-rule="evenodd" d="M354.261 17.5408L342.03 34.4959L345.625 49.1756L354.261 17.5408Z" fill="white"/>
<path fill-rule="evenodd" clip-rule="evenodd" d="M346.356 52.1627L354.327 84.7091L337.744 111.167H354.886L401 34.4959H383.765L366.065 67.0087L355 20.636L346.356 52.1627Z" fill="white"/>
<rect x="1" y="1" width="100.924" height="100.923" rx="14.0787" fill="url(#paint0_linear_252_227)"/>
<path fill-rule="evenodd" clip-rule="evenodd" d="M41.1882 86.4792H25.2578L44.0789 17.5408H60.0093L51.5434 48.5501L41.1882 86.4792ZM52.1017 50.7241L61.2845 86.4792L77.2758 86.386L60.5871 19.8445L52.1017 50.7241Z" fill="white"/>
<defs>
<linearGradient id="paint0_linear_252_227" x1="51.4618" y1="1" x2="51.4618" y2="101.923" gradientUnits="userSpaceOnUse">
<stop stop-color="#45B0D2"/>
<stop offset="1" stop-color="#0A7EA4"/>
</linearGradient>
</defs>
</svg>
