<svg width="400" height="400" viewBox="0 0 400 400" fill="none" xmlns="http://www.w3.org/2000/svg">
<path d="M184.648 228.728L224.434 223.572V161.962L102.644 177.922V186.606L184.648 228.728Z" fill="white"/>
<path d="M184.648 228.728L224.434 223.572V161.962L102.644 177.922V186.606L184.648 228.728Z" stroke="white" stroke-width="2" stroke-linecap="round" stroke-linejoin="round"/>
<path d="M184.648 228.728L261.408 218.778V180.238L139.618 196.2V205.6L184.648 228.73V228.728Z" fill="white"/>
<path d="M184.648 228.728L261.408 218.778V180.238L139.618 196.2V205.6L184.648 228.73V228.728Z" stroke="white" stroke-width="2" stroke-linecap="round" stroke-linejoin="round"/>
<path d="M184.648 228.728L297.584 214.088V198.518L175.794 214.478V224.18L184.648 228.728Z" fill="white"/>
<path d="M184.648 228.728L297.584 214.088V198.518L175.794 214.478V224.18L184.648 228.728Z" stroke="white" stroke-width="2" stroke-linecap="round" stroke-linejoin="round"/>
<path d="M224.434 152.12V161.92L102.644 177.88C111.554 172.558 112.552 171.65 115.146 171.344L174.426 163.44L185.408 150.14C186.74 148.537 188.625 147.493 190.69 147.214L215.01 143.908C216.183 143.746 217.378 143.837 218.513 144.176C219.648 144.514 220.697 145.092 221.59 145.87C222.483 146.648 223.199 147.609 223.69 148.687C224.18 149.765 224.434 150.936 224.434 152.12Z" fill="#0A7EA4"/>
<path d="M224.434 152.12V161.92L102.644 177.88C111.554 172.558 112.552 171.65 115.146 171.344L174.426 163.44L185.408 150.14C186.74 148.537 188.625 147.493 190.69 147.214L215.01 143.908C216.183 143.746 217.378 143.837 218.513 144.176C219.648 144.514 220.697 145.092 221.59 145.87C222.483 146.648 223.199 147.609 223.69 148.687C224.18 149.765 224.434 150.936 224.434 152.12Z" stroke="white" stroke-width="2" stroke-linecap="round" stroke-linejoin="round"/>
<path d="M261.4 170.4V180.24L139.6 196.2C148.51 190.878 149.508 189.97 152.102 189.664L211.4 181.76L222.382 168.46C223.714 166.857 225.599 165.813 227.664 165.534L251.984 162.228C253.154 162.064 254.346 162.153 255.478 162.488C256.611 162.823 257.659 163.397 258.551 164.172C259.444 164.946 260.16 165.903 260.651 166.977C261.142 168.051 261.398 169.219 261.4 170.4Z" fill="#0A7EA4"/>
<path d="M261.4 170.4V180.24L139.6 196.2C148.51 190.878 149.508 189.97 152.102 189.664L211.4 181.76L222.382 168.46C223.714 166.857 225.599 165.813 227.664 165.534L251.984 162.228C253.154 162.064 254.346 162.153 255.478 162.488C256.611 162.823 257.659 163.397 258.551 164.172C259.444 164.946 260.16 165.903 260.651 166.977C261.142 168.051 261.398 169.219 261.4 170.4Z" stroke="white" stroke-width="2" stroke-linecap="round" stroke-linejoin="round"/>
<path d="M297.584 188.676V198.476L175.8 214.44C184.71 209.118 185.708 208.21 188.302 207.904L247.582 200.038L258.564 186.738C259.896 185.135 261.781 184.091 263.846 183.812L288.166 180.506C289.336 180.342 290.527 180.43 291.66 180.765C292.793 181.1 293.841 181.674 294.734 182.448C295.626 183.222 296.342 184.179 296.834 185.253C297.326 186.327 297.581 187.494 297.584 188.676Z" fill="#0A7EA4"/>
<path d="M297.584 188.676V198.476L175.8 214.44C184.71 209.118 185.708 208.21 188.302 207.904L247.582 200.038L258.564 186.738C259.896 185.135 261.781 184.091 263.846 183.812L288.166 180.506C289.336 180.342 290.527 180.43 291.66 180.765C292.793 181.1 293.841 181.674 294.734 182.448C295.626 183.222 296.342 184.179 296.834 185.253C297.326 186.327 297.581 187.494 297.584 188.676Z" stroke="white" stroke-width="2" stroke-linecap="round" stroke-linejoin="round"/>
<path d="M184.648 228.728V299.788L303.664 284.36V213.3L184.648 228.728Z" stroke="white" stroke-width="2" stroke-linecap="round" stroke-linejoin="round"/>
<path d="M95.6519 183.014L184.648 228.728V299.826L95.6519 254.112V183.012V183.014Z" stroke="white" stroke-width="2" stroke-linecap="round" stroke-linejoin="round"/>
<path d="M247.652 262.472C248.962 262.472 250.219 261.952 251.145 261.025C252.071 260.099 252.592 258.842 252.592 257.532C252.592 256.222 252.071 254.965 251.145 254.039C250.219 253.113 248.962 252.592 247.652 252.592C246.342 252.592 245.085 253.113 244.159 254.039C243.232 254.965 242.712 256.222 242.712 257.532C242.712 258.842 243.232 260.099 244.159 261.025C245.085 261.952 246.342 262.472 247.652 262.472Z" fill="#0A7EA4"/>
<path d="M247.652 262.472C248.962 262.472 250.219 261.952 251.145 261.025C252.071 260.099 252.592 258.842 252.592 257.532C252.592 256.222 252.071 254.965 251.145 254.039C250.219 253.113 248.962 252.592 247.652 252.592C246.342 252.592 245.085 253.113 244.159 254.039C243.232 254.965 242.712 256.222 242.712 257.532C242.712 258.842 243.232 260.099 244.159 261.025C245.085 261.952 246.342 262.472 247.652 262.472Z" stroke="white" stroke-width="2" stroke-linecap="round" stroke-linejoin="round"/>
<path d="M160.024 105.456C178.094 105.456 192.742 90.808 192.742 72.738C192.742 54.668 178.094 40.02 160.024 40.02C141.954 40.02 127.306 54.668 127.306 72.738C127.306 90.808 141.954 105.456 160.024 105.456Z" stroke="white" stroke-width="2" stroke-linecap="round" stroke-linejoin="round"/>
<path d="M160.024 67.7981C161.596 67.7981 163.104 67.1736 164.216 66.0619C165.328 64.9502 165.952 63.4423 165.952 61.8701C165.952 60.2979 165.328 58.7901 164.216 57.6784C163.104 56.5667 161.596 55.9421 160.024 55.9421C158.452 55.9421 156.944 56.5667 155.832 57.6784C154.721 58.7901 154.096 60.2979 154.096 61.8701C154.096 63.4423 154.721 64.9502 155.832 66.0619C156.944 67.1736 158.452 67.7981 160.024 67.7981Z" fill="white"/>
<path d="M160.024 67.7981C161.596 67.7981 163.104 67.1736 164.216 66.0619C165.328 64.9502 165.952 63.4423 165.952 61.8701C165.952 60.2979 165.328 58.7901 164.216 57.6784C163.104 56.5667 161.596 55.9421 160.024 55.9421C158.452 55.9421 156.944 56.5667 155.832 57.6784C154.721 58.7901 154.096 60.2979 154.096 61.8701C154.096 63.4423 154.721 64.9502 155.832 66.0619C156.944 67.1736 158.452 67.7981 160.024 67.7981Z" stroke="white" stroke-width="2" stroke-linecap="round" stroke-linejoin="round"/>
<path d="M142.582 89.534C142.582 89.534 146.952 75.36 160.024 75.55C173.096 75.74 177.504 89.534 177.504 89.534" stroke="white" stroke-width="2" stroke-linecap="round" stroke-linejoin="round"/>
<path d="M42.718 197.454C60.788 197.454 75.436 182.806 75.436 164.736C75.436 146.666 60.788 132.018 42.718 132.018C24.648 132.018 10 146.666 10 164.736C10 182.806 24.648 197.454 42.718 197.454Z" stroke="white" stroke-width="2" stroke-linecap="round" stroke-linejoin="round"/>
<path d="M42.718 159.796C43.4965 159.796 44.2674 159.643 44.9866 159.345C45.7058 159.047 46.3593 158.61 46.9098 158.06C47.4602 157.509 47.8969 156.856 48.1948 156.136C48.4927 155.417 48.646 154.646 48.646 153.868C48.646 153.089 48.4927 152.319 48.1948 151.599C47.8969 150.88 47.4602 150.227 46.9098 149.676C46.3593 149.126 45.7058 148.689 44.9866 148.391C44.2674 148.093 43.4965 147.94 42.718 147.94C41.1458 147.94 39.638 148.564 38.5263 149.676C37.4146 150.788 36.79 152.296 36.79 153.868C36.79 155.44 37.4146 156.948 38.5263 158.06C39.638 159.171 41.1458 159.796 42.718 159.796Z" fill="white"/>
<path d="M42.718 159.796C43.4965 159.796 44.2674 159.643 44.9866 159.345C45.7058 159.047 46.3593 158.61 46.9098 158.06C47.4602 157.509 47.8969 156.856 48.1948 156.136C48.4927 155.417 48.646 154.646 48.646 153.868C48.646 153.089 48.4927 152.319 48.1948 151.599C47.8969 150.88 47.4602 150.227 46.9098 149.676C46.3593 149.126 45.7058 148.689 44.9866 148.391C44.2674 148.093 43.4965 147.94 42.718 147.94C41.1458 147.94 39.638 148.564 38.5263 149.676C37.4146 150.788 36.79 152.296 36.79 153.868C36.79 155.44 37.4146 156.948 38.5263 158.06C39.638 159.171 41.1458 159.796 42.718 159.796Z" stroke="white" stroke-width="2" stroke-linecap="round" stroke-linejoin="round"/>
<path d="M25.2378 181.532C25.2378 181.532 29.6078 167.358 42.6798 167.548C55.7518 167.738 60.1598 181.532 60.1598 181.532" stroke="white" stroke-width="2" stroke-linecap="round" stroke-linejoin="round"/>
<path d="M42.718 355.534C60.788 355.534 75.436 340.886 75.436 322.816C75.436 304.746 60.788 290.098 42.718 290.098C24.648 290.098 10 304.746 10 322.816C10 340.886 24.648 355.534 42.718 355.534Z" stroke="white" stroke-width="2" stroke-linecap="round" stroke-linejoin="round"/>
<path d="M42.7039 317.864C44.2761 317.864 45.7839 317.239 46.8956 316.128C48.0073 315.016 48.6319 313.508 48.6319 311.936C48.6319 310.364 48.0073 308.856 46.8956 307.744C45.7839 306.633 44.2761 306.008 42.7039 306.008C41.1317 306.008 39.6239 306.633 38.5121 307.744C37.4004 308.856 36.7759 310.364 36.7759 311.936C36.7759 313.508 37.4004 315.016 38.5121 316.128C39.6239 317.239 41.1317 317.864 42.7039 317.864Z" fill="white"/>
<path d="M42.7039 317.864C44.2761 317.864 45.7839 317.239 46.8956 316.128C48.0073 315.016 48.6319 313.508 48.6319 311.936C48.6319 310.364 48.0073 308.856 46.8956 307.744C45.7839 306.633 44.2761 306.008 42.7039 306.008C41.1317 306.008 39.6239 306.633 38.5121 307.744C37.4004 308.856 36.7759 310.364 36.7759 311.936C36.7759 313.508 37.4004 315.016 38.5121 316.128C39.6239 317.239 41.1317 317.864 42.7039 317.864Z" stroke="white" stroke-width="2" stroke-linecap="round" stroke-linejoin="round"/>
<path d="M25.2378 339.612C25.2378 339.612 29.6078 325.438 42.6798 325.628C55.7518 325.818 60.1598 339.612 60.1598 339.612" stroke="white" stroke-width="2" stroke-linecap="round" stroke-linejoin="round"/>
<path d="M357.282 252.174C375.352 252.174 390 237.526 390 219.456C390 201.386 375.352 186.736 357.282 186.736C339.212 186.736 324.564 201.386 324.564 219.456C324.564 237.526 339.212 252.174 357.282 252.174Z" stroke="white" stroke-width="2" stroke-linecap="round" stroke-linejoin="round"/>
<path d="M357.282 214.516C358.854 214.516 360.362 213.891 361.474 212.78C362.585 211.668 363.21 210.16 363.21 208.588C363.21 207.016 362.585 205.508 361.474 204.396C360.362 203.284 358.854 202.66 357.282 202.66C355.71 202.66 354.202 203.284 353.09 204.396C351.979 205.508 351.354 207.016 351.354 208.588C351.354 210.16 351.979 211.668 353.09 212.78C354.202 213.891 355.71 214.516 357.282 214.516Z" fill="white"/>
<path d="M357.282 214.516C358.854 214.516 360.362 213.891 361.474 212.78C362.585 211.668 363.21 210.16 363.21 208.588C363.21 207.016 362.585 205.508 361.474 204.396C360.362 203.284 358.854 202.66 357.282 202.66C355.71 202.66 354.202 203.284 353.09 204.396C351.979 205.508 351.354 207.016 351.354 208.588C351.354 210.16 351.979 211.668 353.09 212.78C354.202 213.891 355.71 214.516 357.282 214.516Z" stroke="white" stroke-width="2" stroke-linecap="round" stroke-linejoin="round"/>
<path d="M339.84 236.252C339.84 236.252 344.21 222.078 357.282 222.268C370.354 222.458 374.762 236.252 374.762 236.252" stroke="white" stroke-width="2" stroke-linecap="round" stroke-linejoin="round"/>
<path d="M160.024 131.98H357.282V186.738" stroke="white" stroke-width="2" stroke-linecap="round" stroke-linejoin="round"/>
<path d="M42.7178 197.416V290.098" stroke="white" stroke-width="2" stroke-linecap="round" stroke-linejoin="round"/>
<path d="M75.4355 322.816H247.652V291.618" stroke="white" stroke-width="2" stroke-linecap="round" stroke-linejoin="round"/>
<path d="M160.024 105.418V165.192" stroke="white" stroke-width="2" stroke-linecap="round" stroke-linejoin="round"/>
<path d="M303.664 334.254L303.626 359.98" stroke="white" stroke-width="2" stroke-linecap="round" stroke-linejoin="round"/>
<path d="M316.508 347.136L290.782 347.098" stroke="white" stroke-width="2" stroke-linecap="round" stroke-linejoin="round"/>
<path d="M70.7998 77.4121C71.4236 77.4121 72.0412 77.2892 72.6175 77.0505C73.1938 76.8118 73.7175 76.4619 74.1586 76.0209C74.5996 75.5798 74.9495 75.0561 75.1882 74.4799C75.4269 73.9036 75.5498 73.2859 75.5498 72.6621C75.5498 72.0383 75.4269 71.4207 75.1882 70.8444C74.9495 70.2681 74.5996 69.7444 74.1586 69.3034C73.7175 68.8623 73.1938 68.5124 72.6175 68.2737C72.0412 68.035 71.4236 67.9121 70.7998 67.9121C69.54 67.9121 68.3318 68.4126 67.441 69.3034C66.5502 70.1942 66.0498 71.4023 66.0498 72.6621C66.0498 73.9219 66.5502 75.1301 67.441 76.0209C68.3318 76.9117 69.54 77.4121 70.7998 77.4121Z" stroke="white" stroke-width="2" stroke-linecap="round" stroke-linejoin="round"/>
</svg>
