<svg width="400" height="400" viewBox="0 0 400 400" fill="none" xmlns="http://www.w3.org/2000/svg">
<path d="M200.828 87.4509C203.766 86.7253 206.823 86.6212 209.803 87.1453C212.784 87.6694 215.622 88.8105 218.136 90.4949C220.65 92.1792 222.784 94.3705 224.403 96.9275C226.021 99.4845 227.088 102.351 227.535 105.344L227.847 107.437L229.718 106.45C234.076 104.15 239.087 103.398 243.928 104.32C248.769 105.242 253.153 107.783 256.36 111.524C259.567 115.265 261.406 119.986 261.578 124.911C261.749 129.836 260.242 134.673 257.302 138.628L255.901 140.513L258.201 140.991C261.566 141.69 264.719 143.177 267.398 145.331C269.91 147.35 271.939 149.9 273.342 152.796L273.615 153.38C275.022 156.516 275.665 159.942 275.491 163.376C275.329 166.572 274.462 169.69 272.958 172.509C259.394 174.618 247.004 181.459 237.997 191.839C228.825 202.407 223.774 215.93 223.773 229.924C223.752 244.91 229.54 259.31 239.905 270.108C239.205 275.327 237.045 280.247 233.665 284.296C230.135 288.523 225.434 291.612 220.154 293.176C214.873 294.739 209.248 294.706 203.986 293.081C198.724 291.456 194.059 288.312 190.58 284.044L189.417 282.617L188.254 284.043C184.301 288.892 178.834 292.273 172.729 293.643C166.624 295.013 160.236 294.293 154.589 291.598C148.943 288.904 144.365 284.391 141.589 278.784C138.814 273.177 138.003 266.8 139.285 260.677L139.764 258.386L137.484 258.906C134.524 259.58 131.434 259.427 128.555 258.464C125.676 257.5 123.118 255.763 121.16 253.443C119.202 251.123 117.92 248.308 117.455 245.307C116.989 242.307 117.357 239.237 118.52 236.432L119.161 234.887L117.555 234.418C112.258 232.871 107.569 229.721 104.134 225.402C100.699 221.083 98.6865 215.805 98.3716 210.296C98.0568 204.786 99.455 199.314 102.375 194.632C105.296 189.949 109.596 186.286 114.682 184.145L117.582 182.925L114.807 181.44C110.528 179.15 107.138 175.495 105.175 171.056C103.37 166.973 102.87 162.442 103.724 158.079H125.286C128.378 158.079 131.344 156.85 133.531 154.663C135.718 152.476 136.947 149.51 136.947 146.418V104.03C141.141 103.617 145.375 104.453 149.11 106.446L150.985 107.447L151.3 105.345C151.899 101.344 153.602 97.5895 156.218 94.5037C158.835 91.4177 162.261 89.1222 166.11 87.8767C169.959 86.6313 174.079 86.4846 178.007 87.4529C181.935 88.4212 185.516 90.4663 188.345 93.3582L189.417 94.4548L190.49 93.3582C193.319 90.4659 196.899 88.4207 200.827 87.4519L200.828 87.4509Z" fill="#243044" stroke="white" stroke-width="3"/>
<path d="M161.259 134.099C159.06 131.63 157.839 128.443 157.824 125.137C157.81 121.83 159.003 118.633 161.18 116.144C163.357 113.656 166.367 112.047 169.646 111.622C172.925 111.196 176.246 111.983 178.986 113.833" stroke="white" stroke-width="3" stroke-linecap="round" stroke-linejoin="round"/>
<path d="M151.938 158.807C149.34 157.749 147.217 155.78 145.968 153.269C144.718 150.757 144.428 147.876 145.151 145.166C145.874 142.456 147.56 140.102 149.895 138.547C152.229 136.992 155.051 136.342 157.83 136.718" stroke="white" stroke-width="3" stroke-linecap="round" stroke-linejoin="round"/>
<path d="M138.862 193.875C136.257 192.822 134.126 190.854 132.871 188.341C131.616 185.827 131.323 182.941 132.047 180.227C132.772 177.512 134.463 175.156 136.803 173.601C139.143 172.047 141.971 171.401 144.754 171.786" stroke="white" stroke-width="3" stroke-linecap="round" stroke-linejoin="round"/>
<path d="M181.071 280.307C179.031 281.286 176.704 281.489 174.524 280.878C172.345 280.267 170.463 278.884 169.228 276.987C167.994 275.09 167.493 272.808 167.817 270.568C168.142 268.328 169.27 266.283 170.992 264.814" stroke="white" stroke-width="3" stroke-linecap="round" stroke-linejoin="round"/>
<path d="M168.16 193.25C171.201 194.914 173.531 197.631 174.712 200.89C175.894 204.149 175.846 207.727 174.578 210.953C173.31 214.18 170.909 216.833 167.825 218.415C164.74 219.998 161.185 220.401 157.824 219.55" stroke="white" stroke-width="3" stroke-linecap="round" stroke-linejoin="round"/>
<path d="M137.928 215.558C134.943 217.329 132.708 220.128 131.642 223.431C130.576 226.733 130.753 230.312 132.139 233.493C133.526 236.674 136.026 239.24 139.171 240.707C142.316 242.175 145.889 242.443 149.218 241.462L150.734 240.224C149.854 243.577 150.228 247.136 151.785 250.233C153.342 253.33 155.976 255.752 159.191 257.046C162.407 258.341 165.985 258.418 169.254 257.263C172.523 256.107 175.258 253.799 176.946 250.771" stroke="white" stroke-width="3" stroke-linecap="round" stroke-linejoin="round"/>
<path d="M164.202 150.105C165.954 149.369 167.847 149.03 169.746 149.115C171.644 149.199 173.5 149.703 175.18 150.592C176.86 151.48 178.322 152.731 179.46 154.252C180.598 155.774 181.384 157.53 181.761 159.392C182.138 161.255 182.097 163.178 181.641 165.022C181.185 166.867 180.326 168.588 179.124 170.06C177.922 171.532 176.409 172.719 174.693 173.536C172.977 174.352 171.101 174.777 169.201 174.781" stroke="white" stroke-width="3" stroke-linecap="round" stroke-linejoin="round"/>
<path d="M273.911 173.879C275.747 170.696 276.802 167.122 276.988 163.451C277.174 159.781 276.486 156.119 274.982 152.766C273.478 149.413 271.201 146.464 268.337 144.162C265.473 141.859 262.104 140.269 258.506 139.522C261.649 135.294 263.261 130.123 263.077 124.858C262.894 119.594 260.927 114.547 257.498 110.548C254.07 106.548 249.384 103.833 244.209 102.847C239.034 101.861 233.677 102.664 229.019 105.123C228.541 101.923 227.401 98.8585 225.671 96.1249C223.941 93.3913 221.659 91.0492 218.971 89.2486C216.283 87.448 213.249 86.2285 210.063 85.6682C206.877 85.1079 203.609 85.2193 200.468 85.9951C196.269 87.0307 192.442 89.2175 189.418 92.3093C186.393 89.218 182.566 87.0318 178.367 85.9966C174.168 84.9615 169.763 85.1185 165.648 86.4499C161.533 87.7813 157.872 90.2344 155.075 93.5332C152.278 96.832 150.457 100.846 149.817 105.123C145.417 102.775 140.372 101.928 135.447 102.711" stroke="white" stroke-width="3" stroke-linecap="round" stroke-linejoin="round"/>
<path d="M102.522 156.578C101.255 161.609 101.706 166.919 103.804 171.663C105.902 176.408 109.526 180.315 114.1 182.763C108.728 185.024 104.188 188.893 101.103 193.838C98.0185 198.783 96.541 204.563 96.8736 210.382C97.2062 216.201 99.3326 221.774 102.96 226.336C106.588 230.897 111.54 234.224 117.135 235.858C115.866 238.917 115.464 242.266 115.972 245.538C116.48 248.81 117.878 251.879 120.013 254.41C122.149 256.941 124.939 258.835 128.079 259.886C131.219 260.937 134.588 261.104 137.817 260.369C136.466 266.822 137.321 273.541 140.245 279.45C143.17 285.358 147.994 290.113 153.944 292.952C159.894 295.792 166.625 296.55 173.057 295.107C179.49 293.663 185.251 290.101 189.417 284.991C193.084 289.489 197.999 292.802 203.543 294.514C209.088 296.226 215.015 296.261 220.579 294.614C226.144 292.967 231.097 289.711 234.816 285.257C238.535 280.802 240.854 275.347 241.482 269.579" stroke="white" stroke-width="3" stroke-linecap="round" stroke-linejoin="round"/>
<path d="M189.417 284.991V92.3093" stroke="white" stroke-width="3" stroke-linecap="round" stroke-linejoin="round"/>
<path d="M217.574 134.099C219.212 132.256 220.316 130.001 220.768 127.577C221.221 125.153 221.004 122.651 220.141 120.341C219.278 118.031 217.802 116 215.872 114.466C213.941 112.932 211.629 111.953 209.184 111.634C205.909 111.207 202.591 111.989 199.851 113.833" stroke="white" stroke-width="3" stroke-linecap="round" stroke-linejoin="round"/>
<path d="M226.895 158.807C229.496 157.752 231.623 155.783 232.875 153.271C234.127 150.758 234.419 147.875 233.695 145.163C232.972 142.45 231.283 140.095 228.946 138.541C226.608 136.986 223.784 136.338 221.002 136.718" stroke="white" stroke-width="3" stroke-linecap="round" stroke-linejoin="round"/>
<path d="M246.923 185.402C247.276 183.606 247.196 181.751 246.689 179.992C246.181 178.234 245.261 176.622 244.005 175.29C242.749 173.959 241.193 172.946 239.467 172.337C237.741 171.728 235.895 171.54 234.081 171.788" stroke="white" stroke-width="3" stroke-linecap="round" stroke-linejoin="round"/>
<path d="M197.761 280.307C199.285 281.041 200.98 281.347 202.665 281.192C204.349 281.037 205.96 280.427 207.324 279.426C208.688 278.426 209.754 277.073 210.408 275.513C211.062 273.952 211.279 272.244 211.037 270.57C210.706 268.326 209.57 266.28 207.841 264.814" stroke="white" stroke-width="3" stroke-linecap="round" stroke-linejoin="round"/>
<path d="M210.668 193.25C207.624 194.912 205.291 197.628 204.108 200.888C202.924 204.148 202.97 207.728 204.239 210.957C205.507 214.185 207.91 216.839 210.997 218.421C214.083 220.003 217.641 220.405 221.002 219.55" stroke="white" stroke-width="3" stroke-linecap="round" stroke-linejoin="round"/>
<path d="M228.079 247.583C227.337 250.316 225.797 252.766 223.656 254.619C221.514 256.472 218.869 257.645 216.058 257.987C213.247 258.328 210.398 257.825 207.874 256.542C205.35 255.258 203.266 253.252 201.887 250.779" stroke="white" stroke-width="3" stroke-linecap="round" stroke-linejoin="round"/>
<path d="M214.631 150.105C212.878 149.367 210.984 149.028 209.084 149.111C207.185 149.195 205.327 149.699 203.646 150.587C201.965 151.476 200.502 152.726 199.363 154.248C198.224 155.771 197.437 157.527 197.059 159.39C196.682 161.254 196.724 163.178 197.181 165.024C197.638 166.869 198.499 168.59 199.702 170.063C200.905 171.535 202.42 172.722 204.138 173.538C205.855 174.354 207.732 174.779 209.634 174.781" stroke="white" stroke-width="3" stroke-linecap="round" stroke-linejoin="round"/>
<path d="M118.653 324.757C116.931 324.757 115.225 325.096 113.634 325.755C112.043 326.414 110.597 327.379 109.379 328.597C108.161 329.815 107.195 331.26 106.536 332.851C105.876 334.442 105.537 336.147 105.537 337.869C105.536 339.592 105.875 341.297 106.534 342.888C107.193 344.479 108.159 345.925 109.376 347.143C110.594 348.361 112.039 349.327 113.63 349.987C115.221 350.646 116.927 350.985 118.649 350.986C122.127 350.986 125.463 349.605 127.922 347.146C130.382 344.687 131.764 341.351 131.765 337.873C131.765 334.395 130.384 331.06 127.925 328.6C125.466 326.14 122.131 324.758 118.653 324.757Z" stroke="white" stroke-width="3" stroke-linecap="round" stroke-linejoin="round"/>
<path d="M264.537 355.628C266.564 355.628 268.571 355.229 270.444 354.453C272.317 353.678 274.018 352.541 275.451 351.108C276.884 349.674 278.021 347.973 278.797 346.1C279.573 344.228 279.972 342.221 279.972 340.194C279.972 338.167 279.573 336.16 278.797 334.287C278.021 332.415 276.884 330.713 275.451 329.28C274.018 327.847 272.317 326.71 270.444 325.934C268.571 325.159 266.564 324.759 264.537 324.759C260.444 324.759 256.518 326.385 253.624 329.28C250.729 332.174 249.103 336.1 249.103 340.194C249.103 344.287 250.729 348.213 253.624 351.108C256.518 354.002 260.444 355.628 264.537 355.628Z" stroke="white" stroke-width="3" stroke-linecap="round" stroke-linejoin="round"/>
<path d="M218.481 309.436C216.158 309.436 213.931 310.359 212.288 312.001C210.646 313.644 209.723 315.872 209.723 318.194C209.723 320.517 210.646 322.745 212.288 324.387C213.931 326.03 216.158 326.952 218.481 326.952C220.804 326.952 223.032 326.03 224.674 324.387C226.316 322.745 227.239 320.517 227.239 318.194C227.239 315.872 226.316 313.644 224.674 312.001C223.032 310.359 220.804 309.436 218.481 309.436Z" stroke="white" stroke-width="3" stroke-linecap="round" stroke-linejoin="round"/>
<path d="M179.304 338.6C175.937 338.602 172.646 339.602 169.847 341.473C167.048 343.345 164.866 346.004 163.578 349.115C162.29 352.226 161.952 355.648 162.608 358.951C163.264 362.253 164.885 365.287 167.264 367.67C169.046 369.448 171.199 370.809 173.57 371.656C175.94 372.503 178.469 372.814 180.974 372.567C183.479 372.32 185.898 371.522 188.058 370.229C190.218 368.936 192.064 367.18 193.465 365.089C195.177 362.524 196.161 359.543 196.312 356.463C196.463 353.383 195.775 350.32 194.321 347.601C192.867 344.882 190.703 342.608 188.058 341.023C185.413 339.437 182.387 338.6 179.304 338.6Z" stroke="white" stroke-width="3" stroke-linecap="round" stroke-linejoin="round"/>
<path d="M130.533 343.424L162.274 352.351" stroke="white" stroke-width="3" stroke-linecap="round" stroke-linejoin="round"/>
<path d="M212.668 324.757L192.688 345.105" stroke="white" stroke-width="3" stroke-linecap="round" stroke-linejoin="round"/>
<path d="M226.604 321.496L250.649 333.45" stroke="white" stroke-width="3" stroke-linecap="round" stroke-linejoin="round"/>
<path d="M44.7559 305.458V321.026" stroke="white" stroke-width="3" stroke-linecap="round" stroke-linejoin="round"/>
<path d="M52.539 313.241H36.9712" stroke="white" stroke-width="3" stroke-linecap="round" stroke-linejoin="round"/>
<path d="M296.773 293.868V309.436" stroke="white" stroke-width="3" stroke-linecap="round" stroke-linejoin="round"/>
<path d="M304.557 301.653H288.989" stroke="white" stroke-width="3" stroke-linecap="round" stroke-linejoin="round"/>
<path d="M226.266 55.53V71.0978" stroke="white" stroke-width="3" stroke-linecap="round" stroke-linejoin="round"/>
<path d="M234.049 63.3149H218.481" stroke="white" stroke-width="3" stroke-linecap="round" stroke-linejoin="round"/>
<path d="M305.348 39.2932V82.6008H262.042V39.2932H305.348Z" fill="#243044" stroke="white" stroke-width="3"/>
<path d="M306.847 37.7932H260.542V84.1005H306.847V37.7932Z" stroke="white" stroke-width="3" stroke-linecap="round" stroke-linejoin="round"/>
<path d="M293.401 29.0029C293.479 28.9249 293.778 28.7395 294.51 28.916C295.215 29.0858 296.086 29.5572 296.883 30.3545C297.681 31.1521 298.152 32.0228 298.322 32.7266C298.498 33.4585 298.313 33.7565 298.235 33.835C298.157 33.913 297.858 34.0996 297.125 33.9229C296.422 33.7531 295.552 33.2816 294.754 32.4844C293.957 31.6866 293.484 30.8153 293.314 30.1113C293.137 29.3783 293.323 29.0805 293.401 29.0029Z" fill="#0A7EA4" stroke="white" stroke-width="3"/>
<path d="M285.164 43.2796L295.389 32.0002" stroke="white" stroke-width="3" stroke-linecap="round" stroke-linejoin="round"/>
<path d="M268.464 51.3152H298.925" stroke="white" stroke-width="3" stroke-linecap="round" stroke-linejoin="round"/>
<path d="M268.464 59.3528H298.925" stroke="white" stroke-width="3" stroke-linecap="round" stroke-linejoin="round"/>
<path d="M273.523 67.3884H293.865" stroke="white" stroke-width="3" stroke-linecap="round" stroke-linejoin="round"/>
<path d="M344.753 95.0869V138.393H316.136L301.448 122.207V95.0869H344.753Z" fill="#243044" stroke="white" stroke-width="3"/>
<path d="M299.948 93.5869H346.253V139.892H315.472L299.948 122.786V93.5869Z" stroke="white" stroke-width="3" stroke-linecap="round" stroke-linejoin="round"/>
<path d="M313.972 124.286V136.007L303.334 124.286H313.972Z" fill="#0A7EA4" stroke="white" stroke-width="3"/>
<path d="M315.472 139.892L299.948 122.786H315.472V139.892Z" stroke="white" stroke-width="3" stroke-linecap="round" stroke-linejoin="round"/>
<path d="M331.991 84.7942C332.067 84.7179 332.364 84.5311 333.098 84.7083C333.802 84.8785 334.674 85.3511 335.472 86.1487C336.269 86.946 336.74 87.8162 336.91 88.5198C337.087 89.2526 336.9 89.5511 336.822 89.6292C336.743 89.7078 336.445 89.8931 335.714 89.717C335.011 89.5476 334.14 89.0766 333.343 88.2786C332.545 87.4803 332.074 86.6081 331.904 85.9036C331.727 85.1693 331.915 84.8719 331.991 84.7952V84.7942Z" fill="#0A7EA4" stroke="white" stroke-width="3"/>
<path d="M323.752 99.0733L333.977 87.7939" stroke="white" stroke-width="3" stroke-linecap="round" stroke-linejoin="round"/>
<path d="M309.981 107.037H336.22" stroke="white" stroke-width="3" stroke-linecap="round" stroke-linejoin="round"/>
<path d="M337.298 122.362C337.298 123.974 336.713 125.53 335.651 126.743C334.589 127.955 333.123 128.74 331.526 128.952C329.928 129.164 328.308 128.788 326.967 127.895C325.626 127.002 324.655 125.652 324.235 124.096C323.815 122.54 323.974 120.885 324.683 119.438C325.392 117.991 326.603 116.851 328.09 116.23C329.577 115.609 331.239 115.549 332.766 116.062C334.294 116.575 335.583 117.625 336.395 119.017" stroke="white" stroke-width="3" stroke-linecap="round" stroke-linejoin="round"/>
<path d="M328.864 120.906L331.469 124.73L340.575 114.167" stroke="white" stroke-width="3" stroke-linecap="round" stroke-linejoin="round"/>
<path d="M382.892 301.25L383.092 301.425C385.168 303.242 386.448 305.802 386.654 308.554C386.861 311.305 385.978 314.028 384.196 316.135C382.414 318.242 379.876 319.565 377.128 319.817C374.552 320.054 371.985 319.334 369.914 317.804L369.507 317.486L318.923 274.679C324.368 270.167 328.948 264.704 332.439 258.555L382.892 301.25Z" fill="#0A7EA4" stroke="white" stroke-width="3"/>
<path d="M384.087 300.296L332.007 256.224C328.232 263.395 322.967 269.677 316.566 274.649L368.557 318.648C370.998 320.643 374.126 321.6 377.265 321.311C380.405 321.022 383.305 319.511 385.341 317.104C387.377 314.697 388.386 311.586 388.15 308.442C387.914 305.298 386.452 302.372 384.079 300.296H384.087Z" stroke="white" stroke-width="3" stroke-linecap="round" stroke-linejoin="round"/>
<path d="M281.873 286.527C313.133 286.527 338.474 261.187 338.474 229.926C338.474 198.665 313.133 173.324 281.873 173.324C250.612 173.324 225.271 198.665 225.271 229.926C225.271 261.187 250.612 286.527 281.873 286.527Z" stroke="white" stroke-width="3" stroke-linecap="round" stroke-linejoin="round"/>
<path d="M281.872 276.058C307.35 276.058 328.005 255.404 328.005 229.926C328.005 204.448 307.35 183.794 281.872 183.794C256.394 183.794 235.74 204.448 235.74 229.926C235.74 255.404 256.394 276.058 281.872 276.058Z" stroke="white" stroke-width="3" stroke-linecap="round" stroke-linejoin="round"/>
<path d="M277.907 185.489C285.031 184.847 292.2 185.927 298.814 188.63C300.455 194.024 301.048 199.684 300.551 205.304C300.034 211.151 298.352 216.837 295.604 222.024C292.855 227.211 289.095 231.795 284.546 235.505C279.996 239.215 274.749 241.976 269.115 243.624L267.508 244.094L268.151 245.641C269.969 250.004 270.631 254.762 270.075 259.455C269.563 263.772 268.034 267.899 265.624 271.504C257.45 268.306 250.391 262.768 245.34 255.57C240.069 248.057 237.241 239.104 237.24 229.927C237.249 222.545 239.087 215.28 242.591 208.781C246.094 202.283 251.154 196.754 257.317 192.69C263.48 188.625 270.554 186.15 277.907 185.489Z" fill="#0A7EA4" stroke="white" stroke-width="3"/>
<path d="M235.74 229.926C235.741 239.411 238.664 248.666 244.112 256.431C249.56 264.196 257.268 270.094 266.187 273.322C269.126 269.296 270.978 264.581 271.565 259.632C272.152 254.682 271.453 249.665 269.536 245.064C275.363 243.359 280.789 240.504 285.493 236.667C290.198 232.831 294.086 228.09 296.929 222.726C299.771 217.362 301.511 211.483 302.045 205.436C302.58 199.389 301.898 193.296 300.041 187.517C293.023 184.521 285.372 183.311 277.773 183.995C270.173 184.679 262.861 187.236 256.491 191.437C250.121 195.638 244.892 201.353 241.271 208.069C237.649 214.786 235.749 222.295 235.74 229.926Z" stroke="white" stroke-width="3" stroke-linecap="round" stroke-linejoin="round"/>
<path d="M125.295 52.5232H26.3665C23.6717 52.5232 21.0872 53.5937 19.1816 55.4993C17.2761 57.4048 16.2056 59.9893 16.2056 62.6841V146.417C16.2056 149.112 17.2761 151.697 19.1816 153.602C21.0872 155.508 23.6717 156.578 26.3665 156.578H125.295C126.63 156.578 127.951 156.315 129.184 155.805C130.417 155.294 131.537 154.546 132.48 153.602C133.424 152.659 134.172 151.539 134.683 150.306C135.194 149.073 135.456 147.752 135.456 146.417V62.6841C135.456 59.9893 134.386 57.4048 132.48 55.4993C130.575 53.5937 127.99 52.5232 125.295 52.5232Z" stroke="white" stroke-width="3" stroke-linecap="round" stroke-linejoin="round"/>
<path d="M87.7383 138.171H123.753" stroke="white" stroke-width="3" stroke-linecap="round" stroke-linejoin="round"/>
<path d="M98.0723 143.633H123.753" stroke="white" stroke-width="3" stroke-linecap="round" stroke-linejoin="round"/>
<path d="M56.4653 67.1321C59.4795 66.7465 62.5297 67.2262 65.2681 68.4963L57.2144 82.3225L55.9009 84.5774H74.5073C74.2257 87.5832 73.1047 90.4602 71.2534 92.8704C69.096 95.679 66.0717 97.6964 62.6499 98.6096C59.2279 99.5227 55.5996 99.2806 52.3296 97.9202C49.0598 96.5597 46.3303 94.1579 44.5659 91.0872C42.8015 88.0163 42.1013 84.4479 42.5728 80.9377C43.0443 77.4277 44.6612 74.1715 47.1733 71.675C49.6855 69.1786 52.9523 67.5815 56.4653 67.1321Z" fill="#243044" stroke="white" stroke-width="3"/>
<path d="M67.3564 67.8939C64.0112 65.9437 60.1155 65.1529 56.2747 65.6443C52.4338 66.1357 48.8627 67.8817 46.1161 70.6111C43.3694 73.3405 41.6011 76.9006 41.0856 80.7383C40.5702 84.576 41.3365 88.4766 43.2656 91.834C45.1947 95.1914 48.1786 97.8178 51.7537 99.3052C55.3288 100.793 59.295 101.058 63.0363 100.059C66.7776 99.0611 70.0844 96.8552 72.4432 93.7844C74.802 90.7136 76.0807 86.9497 76.0806 83.0776H58.5109L67.3564 67.8939Z" stroke="white" stroke-width="3" stroke-linecap="round" stroke-linejoin="round"/>
<path d="M79.5127 63.8074C81.3811 65.1432 82.9473 66.8666 84.0977 68.8679C85.2479 70.8692 85.9492 73.09 86.1631 75.3767H72.7695L79.5127 63.8074Z" fill="#0A7EA4" stroke="white" stroke-width="3"/>
<path d="M79.0077 61.6951L70.1582 76.8768H87.7339C87.7347 73.804 86.9292 70.7848 85.398 68.1208C83.8667 65.4567 81.6633 63.241 79.0077 61.6951Z" stroke="white" stroke-width="3" stroke-linecap="round" stroke-linejoin="round"/>
<path d="M32.3701 143.633L56.9586 115.039L68.2518 126.33L87.5568 107.027L96.1178 115.584L115.934 95.7659" stroke="white" stroke-width="3" stroke-linecap="round" stroke-linejoin="round"/>
<path d="M105.057 95.4058L115.932 95.766L115.564 106.96" stroke="white" stroke-width="3" stroke-linecap="round" stroke-linejoin="round"/>
<path d="M57.7846 195.318C66.0122 196.536 73.6601 200.274 79.6759 206.018C85.6917 211.761 89.7798 219.228 91.3778 227.39C92.5731 233.492 92.338 239.788 90.6909 245.784C89.0437 251.779 86.0294 257.311 81.8845 261.946C77.7396 266.581 72.577 270.192 66.8018 272.495C61.0266 274.799 54.796 275.733 48.5992 275.224C42.4023 274.715 36.4079 272.776 31.0862 269.56C25.7646 266.345 21.2608 261.939 17.9281 256.69C14.5955 251.441 12.5248 245.491 11.8785 239.307C11.2323 233.123 12.0282 226.873 14.2036 221.048" stroke="white" stroke-width="3" stroke-linecap="round" stroke-linejoin="round"/>
<path d="M43.9738 190.627L16.7168 208.796C15.7451 209.444 14.9105 210.276 14.2607 211.246C13.6108 212.216 13.1584 213.305 12.9292 214.45C12.7001 215.595 12.6987 216.774 12.9252 217.919C13.1517 219.065 13.6015 220.154 14.2492 221.126L40.4495 260.433C41.7576 262.394 43.7911 263.756 46.103 264.218C48.4148 264.68 50.8157 264.206 52.7775 262.898L80.0366 244.729C81.0082 244.082 81.8428 243.249 82.4927 242.279C83.1425 241.309 83.5949 240.22 83.8241 239.076C84.0532 237.931 84.0546 236.752 83.8281 235.606C83.6017 234.461 83.1518 233.371 82.5042 232.399L56.3018 193.095C55.6543 192.123 54.8217 191.289 53.8516 190.639C52.8815 189.989 51.7928 189.537 50.6479 189.307C49.5029 189.078 48.3241 189.077 47.1786 189.303C46.0331 189.53 44.9434 189.98 43.9718 190.627H43.9738Z" stroke="white" stroke-width="3" stroke-linecap="round" stroke-linejoin="round"/>
<path d="M40.3311 196.834L23.8447 207.823L20.1309 202.249L25.1016 198.936L26.3232 198.122L25.5342 196.882C25.0966 196.195 24.9459 195.362 25.1143 194.565C25.2827 193.767 25.7573 193.068 26.4355 192.616C27.1138 192.164 27.9422 191.996 28.7432 192.147C29.5438 192.298 30.2534 192.757 30.7197 193.425L31.5596 194.629L32.7812 193.816L36.6201 191.261L40.3311 196.834Z" fill="#0A7EA4" stroke="white" stroke-width="3"/>
<path d="M31.9504 192.568C31.2595 191.577 30.2081 190.897 29.0216 190.673C27.8351 190.448 26.608 190.698 25.6032 191.368C24.5985 192.037 23.8961 193.074 23.6467 194.255C23.3973 195.437 23.6207 196.669 24.269 197.688L18.6193 201.455C18.5444 201.504 18.48 201.568 18.4301 201.642C18.3802 201.717 18.3458 201.801 18.3288 201.889C18.3111 201.977 18.311 202.067 18.3284 202.156C18.3458 202.244 18.3804 202.327 18.4303 202.402L23.0511 209.335C23.1008 209.41 23.1648 209.474 23.2393 209.524C23.3139 209.574 23.3975 209.609 23.4855 209.626C23.5735 209.644 23.6641 209.644 23.752 209.626C23.84 209.609 23.9237 209.574 23.9983 209.524L41.8426 197.63C41.9173 197.58 41.9814 197.516 42.0313 197.442C42.0812 197.367 42.116 197.284 42.1335 197.196C42.1511 197.108 42.1511 197.017 42.1337 196.929C42.1162 196.841 42.0815 196.757 42.0317 196.683L37.4169 189.75C37.3673 189.675 37.3034 189.611 37.2289 189.56C37.1544 189.51 37.0707 189.476 36.9826 189.458C36.8946 189.44 36.8039 189.44 36.7159 189.458C36.6278 189.476 36.5442 189.511 36.4696 189.561L31.9504 192.568Z" stroke="white" stroke-width="3" stroke-linecap="round" stroke-linejoin="round"/>
<path d="M26.1475 224.507L37.8546 216.704" stroke="white" stroke-width="3" stroke-linecap="round" stroke-linejoin="round"/>
<path d="M29.1782 229.054L37.3611 223.6" stroke="white" stroke-width="3" stroke-linecap="round" stroke-linejoin="round"/>
<path d="M37.3613 241.328L49.0665 233.526" stroke="white" stroke-width="3" stroke-linecap="round" stroke-linejoin="round"/>
<path d="M40.3901 245.876L48.575 240.421" stroke="white" stroke-width="3" stroke-linecap="round" stroke-linejoin="round"/>
<path d="M50.9526 206.654C51.4623 206.315 52.0865 206.192 52.687 206.312C53.2128 206.418 53.6839 206.701 54.021 207.112L54.1567 207.296L55.4224 209.194V209.195C55.5908 209.448 55.7081 209.731 55.7671 210.028C55.8261 210.326 55.8255 210.632 55.7661 210.93C55.7067 211.227 55.5901 211.511 55.4214 211.763C55.2528 212.015 55.0358 212.231 54.7837 212.399L52.8853 213.665C52.3752 214.004 51.7515 214.127 51.1509 214.007C50.55 213.887 50.0205 213.533 49.6802 213.023L48.4155 211.126L48.2993 210.931C48.1925 210.731 48.1151 210.515 48.0708 210.292C48.0118 209.994 48.0124 209.688 48.0718 209.391C48.1312 209.093 48.2487 208.81 48.4175 208.558C48.5862 208.306 48.8029 208.089 49.0552 207.921L49.0542 207.92L50.9526 206.654Z" fill="#243044" stroke="white" stroke-width="3"/>
<path d="M50.1211 205.407L48.2226 206.673C47.8063 206.951 47.4488 207.308 47.1705 207.724C46.8921 208.14 46.6985 208.606 46.6005 209.097C46.5026 209.588 46.5023 210.093 46.5996 210.584C46.697 211.075 46.8901 211.542 47.1679 211.958L48.4336 213.857C48.9946 214.697 49.8661 215.28 50.8567 215.478C51.8473 215.676 52.876 215.473 53.717 214.913L55.6155 213.648C56.0318 213.37 56.3893 213.013 56.6676 212.597C56.946 212.181 57.1396 211.714 57.2376 211.223C57.3355 210.733 57.3358 210.227 57.2384 209.736C57.1411 209.245 56.948 208.779 56.6702 208.362L55.4045 206.464C54.8439 205.623 53.9723 205.04 52.9816 204.842C51.9908 204.643 50.9619 204.847 50.1211 205.407Z" stroke="white" stroke-width="3" stroke-linecap="round" stroke-linejoin="round"/>
<path d="M63.415 223.757C63.7128 223.698 64.0195 223.697 64.3174 223.756C64.6154 223.816 64.8989 223.934 65.1514 224.103C65.4039 224.272 65.6209 224.49 65.7891 224.743L65.79 224.744L67.0557 226.642C67.3952 227.152 67.5185 227.775 67.3984 228.375C67.2934 228.901 67.0091 229.371 66.5986 229.708L66.415 229.844L64.5146 231.112H64.5137C64.2614 231.28 63.9783 231.398 63.6807 231.457C63.3831 231.516 63.0768 231.515 62.7793 231.456C62.4817 231.396 62.1984 231.279 61.9463 231.11C61.6942 230.941 61.4777 230.724 61.3096 230.471L60.0439 228.573C59.8757 228.32 59.759 228.037 59.7002 227.739C59.6415 227.441 59.6415 227.135 59.7012 226.837C59.7609 226.54 59.8788 226.256 60.0479 226.004C60.217 225.752 60.4348 225.536 60.6875 225.368L60.6885 225.367L62.5771 224.107L62.5811 224.104C62.8333 223.935 63.1171 223.817 63.415 223.757Z" fill="#243044" stroke="white" stroke-width="3"/>
<path d="M59.8561 224.119L61.7447 222.859C62.1609 222.58 62.6284 222.385 63.1201 222.287C63.6119 222.188 64.1183 222.188 64.6101 222.286C65.102 222.383 65.5697 222.577 65.9864 222.857C66.403 223.136 66.7604 223.494 67.0381 223.912L68.3037 225.81C68.8639 226.651 69.0672 227.68 68.8691 228.67C68.6709 229.66 68.0874 230.532 67.247 231.092L65.3466 232.36C64.9302 232.638 64.4632 232.831 63.9721 232.928C63.4811 233.025 62.9757 233.025 62.4848 232.927C61.9939 232.829 61.5272 232.635 61.1113 232.356C60.6954 232.077 60.3386 231.72 60.0611 231.303L58.7955 229.404C58.5179 228.988 58.3252 228.521 58.2283 228.029C58.1314 227.538 58.1322 227.033 58.2307 226.542C58.3292 226.051 58.5235 225.584 58.8024 225.169C59.0813 224.753 59.4393 224.396 59.8561 224.119Z" stroke="white" stroke-width="3" stroke-linecap="round" stroke-linejoin="round"/>
<path d="M50.0137 210.075L53.4245 211.25L54.8653 199.126" stroke="white" stroke-width="3" stroke-linecap="round" stroke-linejoin="round"/>
<path d="M61.5317 227.351L64.9406 228.525L66.3814 216.402" stroke="white" stroke-width="3" stroke-linecap="round" stroke-linejoin="round"/>
<path d="M66.3813 156.578V197.568" stroke="white" stroke-width="3" stroke-linecap="round" stroke-linejoin="round"/>
</svg>
