<svg width="400" height="400" viewBox="0 0 400 400" fill="none" xmlns="http://www.w3.org/2000/svg">
<path d="M288.2 103.534L261.044 134.6L282.894 151.9C295.054 145.168 300.976 127.7 312.078 119.34C304.424 113.624 296.452 108.347 288.2 103.534Z" fill="white"/>
<path d="M288.2 103.534L261.044 134.6L282.894 151.9C295.054 145.168 300.976 127.7 312.078 119.34C304.424 113.624 296.452 108.347 288.2 103.534Z" stroke="white" stroke-width="2" stroke-linecap="round" stroke-linejoin="round"/>
<path d="M280.908 89.3721L258.228 123.844L282.228 138.016C293.36 129.692 296.854 111.584 306.718 101.786C298.357 97.1625 289.74 93.0178 280.908 89.3721Z" fill="white"/>
<path d="M280.908 89.3721L258.228 123.844L282.228 138.016C293.36 129.692 296.854 111.584 306.718 101.786C298.357 97.1625 289.74 93.0178 280.908 89.3721Z" stroke="white" stroke-width="2" stroke-linecap="round" stroke-linejoin="round"/>
<path d="M280.908 81.8501L258.228 116.318L282.228 130.488C293.36 122.168 296.854 104.058 306.718 94.2581C298.356 89.6378 289.739 85.4952 280.908 81.8501Z" fill="white"/>
<path d="M280.908 81.8501L258.228 116.318L282.228 130.488C293.36 122.168 296.854 104.058 306.718 94.2581C298.356 89.6378 289.739 85.4952 280.908 81.8501Z" stroke="white" stroke-width="2" stroke-linecap="round" stroke-linejoin="round"/>
<path d="M278.268 99.416L289.008 104.816" stroke="white" stroke-width="2" stroke-linecap="round" stroke-linejoin="round"/>
<path d="M275.882 103.47L286.622 108.87" stroke="white" stroke-width="2" stroke-linecap="round" stroke-linejoin="round"/>
<path d="M273.4 107.512L284.14 112.912" stroke="white" stroke-width="2" stroke-linecap="round" stroke-linejoin="round"/>
<path d="M254.424 123.462V138.012" stroke="white" stroke-width="2" stroke-linecap="round" stroke-linejoin="round"/>
<path d="M254.424 76.2959V90.8459" stroke="white" stroke-width="2" stroke-linecap="round" stroke-linejoin="round"/>
<path d="M287.474 156.51V171.062" stroke="white" stroke-width="2" stroke-linecap="round" stroke-linejoin="round"/>
<path d="M263.664 180.32V194.872" stroke="white" stroke-width="2" stroke-linecap="round" stroke-linejoin="round"/>
<path d="M198.854 50.656V65.206" stroke="white" stroke-width="2" stroke-linecap="round" stroke-linejoin="round"/>
<path d="M170.868 143.494V158.046" stroke="white" stroke-width="2" stroke-linecap="round" stroke-linejoin="round"/>
<path d="M170.868 67.6001V76.3041" stroke="white" stroke-width="2" stroke-linecap="round" stroke-linejoin="round"/>
<path d="M229.49 187.412L229.126 187.518C229.265 188.466 229.198 189.432 228.929 190.352C228.661 191.271 228.198 192.122 227.571 192.846C226.944 193.57 226.169 194.151 225.298 194.549C224.426 194.946 223.48 195.151 222.522 195.15C221.564 195.15 220.618 194.943 219.747 194.545C218.876 194.147 218.101 193.566 217.474 192.842C216.847 192.119 216.384 191.269 216.115 190.35C215.846 189.431 215.778 188.465 215.916 187.518C215.572 187.422 215.23 187.318 214.89 187.206C209.927 187.16 204.963 187.137 200 187.136C122.466 187.136 59.6118 192.736 59.6118 199.656C59.6118 206.576 122.466 212.178 200 212.178C277.534 212.178 340.388 206.578 340.388 199.656C340.388 193.644 292.866 188.62 229.49 187.412Z" fill="#0A7EA4"/>
<path d="M170.666 264.474V298.674C170.666 300.898 183.8 302.704 200.004 302.704C216.208 302.704 229.34 300.904 229.34 298.674V264.474" stroke="white" stroke-width="2" stroke-linecap="round" stroke-linejoin="round"/>
<path d="M61.02 217.53L170.666 264.474C170.666 266.698 183.8 268.504 200.004 268.504C216.208 268.504 229.34 266.704 229.34 264.474L338.986 217.53" stroke="white" stroke-width="2" stroke-linecap="round" stroke-linejoin="round"/>
<path d="M59.6118 199.656V215.656C59.6118 222.572 122.466 228.178 200 228.178C277.534 228.178 340.388 222.578 340.388 215.656V199.656" stroke="white" stroke-width="2" stroke-linecap="round" stroke-linejoin="round"/>
<path d="M214.89 187.2C209.927 187.155 204.963 187.131 200 187.13C122.466 187.13 59.6118 192.73 59.6118 199.65C59.6118 206.57 122.466 212.172 200 212.172C277.534 212.172 340.388 206.572 340.388 199.65C340.388 193.638 292.866 188.614 229.49 187.406" stroke="white" stroke-width="2" stroke-linecap="round" stroke-linejoin="round"/>
<path d="M141.078 179.43L136.636 192.93L127.312 182.4C94.8096 183.588 68.8396 151.2 81.6596 126.082C90.5636 108.634 114.728 103.134 135.632 113.806C166.318 129.47 169.486 167.436 141.078 179.43Z" fill="white"/>
<path d="M141.078 179.43L136.636 192.93L127.312 182.4C94.8096 183.588 68.8396 151.2 81.6596 126.082C90.5636 108.634 114.728 103.134 135.632 113.806C166.318 129.47 169.486 167.436 141.078 179.43Z" stroke="white" stroke-width="2" stroke-linecap="round" stroke-linejoin="round"/>
<path d="M110.922 131.704L135.648 144.32" stroke="white" stroke-width="2" stroke-linecap="round" stroke-linejoin="round"/>
<path d="M107.186 139.026L131.912 151.642" stroke="white" stroke-width="2" stroke-linecap="round" stroke-linejoin="round"/>
<path d="M103.384 146.476L128.112 159.092" stroke="white" stroke-width="2" stroke-linecap="round" stroke-linejoin="round"/>
<path d="M181.106 115.952L135.434 91.9641L111.836 89.3441L137.534 82.1561L205.086 70.2961" stroke="white" stroke-width="2" stroke-linecap="round" stroke-linejoin="round"/>
<path d="M196.24 95.3861C202.344 83.8261 207.368 71.4961 205.086 70.2961C202.804 69.0961 195.47 80.2481 189.422 91.8541C191.984 92.361 194.349 93.586 196.242 95.3861H196.24Z" fill="#0A7EA4"/>
<path d="M186.778 97.1243C182.258 106.504 179.224 114.964 181.106 115.952C182.986 116.94 188.222 109.66 193.366 100.628C190.892 100.082 188.614 98.8706 186.778 97.1243Z" fill="#0A7EA4"/>
<path d="M196.24 95.3862C202.344 83.8282 207.368 71.4962 205.086 70.2962C200.54 67.8962 176.578 113.574 181.106 115.952C182.996 116.952 188.222 109.66 193.366 100.628" stroke="white" stroke-width="2" stroke-linecap="round" stroke-linejoin="round"/>
<path d="M196.362 95.5021C194.448 93.6369 192.034 92.3681 189.412 91.8501C188.51 93.5942 187.634 95.3518 186.784 97.1221C188.65 98.9105 190.983 100.136 193.514 100.658C198.17 101.6 199.686 98.7721 196.362 95.5021Z" stroke="white" stroke-width="2" stroke-linecap="round" stroke-linejoin="round"/>
<path d="M209.85 97.6803L228.3 96.9363" stroke="white" stroke-width="2" stroke-linecap="round" stroke-linejoin="round"/>
<path d="M206.478 104.1L225.4 114.036" stroke="white" stroke-width="2" stroke-linecap="round" stroke-linejoin="round"/>
<path d="M203.564 109.644L212.938 124.412" stroke="white" stroke-width="2" stroke-linecap="round" stroke-linejoin="round"/>
<path d="M257.6 32.1721L262.92 23.9361L253.23 23.4981C239.8 5.55012 211.136 5.61012 203.2 23.4001C197.694 35.7421 205.218 51.1001 220.01 57.7001C241.718 67.3821 263.484 52.6201 257.6 32.1721Z" stroke="white" stroke-width="2" stroke-linecap="round" stroke-linejoin="round"/>
<path d="M236.078 24.5601L227.8 39.2961" stroke="white" stroke-width="2" stroke-linecap="round" stroke-linejoin="round"/>
<path d="M225.508 43.374L223.956 46.136" stroke="white" stroke-width="2" stroke-linecap="round" stroke-linejoin="round"/>
<path d="M202.28 331.642C188.176 326.842 177.964 319.344 179.426 314.86L176.506 323.448C174.984 327.928 185.21 335.448 199.35 340.262C213.49 345.076 226.184 345.334 227.706 340.862L230.636 332.242C229.114 336.714 216.418 336.448 202.28 331.642Z" stroke="white" stroke-width="2" stroke-linecap="round" stroke-linejoin="round"/>
<path d="M230.634 332.234C232.158 327.754 221.932 320.224 207.794 315.418C193.654 310.612 180.96 310.346 179.436 314.826C177.914 319.308 188.14 326.836 202.278 331.642C216.416 336.448 229.112 336.714 230.634 332.234Z" stroke="white" stroke-width="2" stroke-linecap="round" stroke-linejoin="round"/>
<path d="M196.826 322.186C197.5 323.651 198.582 324.89 199.942 325.756C202.742 327.818 206.076 328.944 207.404 328.272C208.732 327.6 207.542 325.386 204.748 323.326C201.954 321.266 200.764 319.048 202.09 318.378C203.742 317.542 209.444 319.764 212.146 323.432" stroke="white" stroke-width="2" stroke-linecap="round" stroke-linejoin="round"/>
<path d="M211.228 320.046L198.308 326.584" stroke="white" stroke-width="2" stroke-linecap="round" stroke-linejoin="round"/>
<path d="M248.056 355.052L244.296 346.906C246.046 351.24 236.712 359.692 223.282 365.89C209.726 372.146 197.128 373.736 195.142 369.442L198.956 377.71C200.938 382.006 213.536 380.418 227.096 374.16C240.656 367.902 250.038 359.348 248.056 355.052Z" stroke="white" stroke-width="2" stroke-linecap="round" stroke-linejoin="round"/>
<path d="M216.102 350.332C229.662 344.074 242.26 342.484 244.244 346.78C246.228 351.076 236.844 359.632 223.282 365.89C209.72 372.148 197.126 373.738 195.142 369.442C193.158 365.146 202.544 356.588 216.102 350.332Z" stroke="white" stroke-width="2" stroke-linecap="round" stroke-linejoin="round"/>
<path d="M212.812 362.8C214.309 363.399 215.947 363.552 217.53 363.24C220.976 362.81 224.172 361.328 224.672 359.924C225.172 358.52 222.782 357.736 219.338 358.168C215.894 358.6 213.504 357.812 214.004 356.412C214.626 354.668 220.288 352.35 224.774 353.15" stroke="white" stroke-width="2" stroke-linecap="round" stroke-linejoin="round"/>
<path d="M221.774 351.322L216.914 364.964" stroke="white" stroke-width="2" stroke-linecap="round" stroke-linejoin="round"/>
<path d="M246.704 168.16C247.188 165.458 247.212 162.696 246.78 159.986C247.724 159.742 248.603 159.295 249.356 158.675C250.109 158.055 250.717 157.278 251.138 156.398C251.77 155.07 251.947 153.571 251.639 152.132C251.332 150.694 250.558 149.397 249.438 148.444C248.694 147.813 247.821 147.352 246.88 147.094C245.939 146.837 244.953 146.788 243.992 146.952C243.032 147.116 242.118 147.49 241.316 148.046C238.134 144.263 233.886 141.528 229.126 140.198C229.264 139.251 229.197 138.284 228.929 137.365C228.661 136.445 228.197 135.595 227.571 134.87C226.944 134.146 226.169 133.565 225.297 133.168C224.426 132.77 223.479 132.565 222.522 132.566C221.564 132.567 220.618 132.773 219.747 133.171C218.876 133.57 218.101 134.15 217.474 134.874C216.847 135.598 216.383 136.448 216.115 137.366C215.846 138.285 215.778 139.251 215.916 140.198C211.21 141.514 207.003 144.204 203.834 147.922C202.625 147.15 201.2 146.789 199.769 146.891C198.339 146.994 196.98 147.555 195.894 148.492C194.991 149.27 194.312 150.275 193.929 151.404C193.546 152.532 193.472 153.743 193.715 154.909C193.959 156.076 194.51 157.156 195.312 158.038C196.114 158.919 197.137 159.57 198.276 159.922C197.832 162.635 197.849 165.403 198.328 168.11C196.929 168.519 195.702 169.374 194.836 170.545C193.969 171.716 193.509 173.139 193.527 174.596C193.546 176.053 194.04 177.464 194.936 178.613C195.832 179.762 197.079 180.587 198.488 180.96C199.421 181.209 200.397 181.251 201.349 181.086C202.301 180.92 203.205 180.55 204 180C207.149 183.618 211.29 186.234 215.91 187.526C215.771 188.474 215.838 189.441 216.106 190.36C216.375 191.28 216.838 192.13 217.465 192.855C218.092 193.579 218.868 194.16 219.739 194.557C220.611 194.955 221.558 195.16 222.516 195.158C223.958 195.157 225.362 194.689 226.516 193.823C227.67 192.958 228.514 191.742 228.92 190.358C229.19 189.438 229.258 188.474 229.12 187.526C233.704 186.244 237.818 183.658 240.96 180.082C241.954 180.735 243.106 181.11 244.294 181.167C245.483 181.225 246.665 180.964 247.718 180.41C248.771 179.857 249.657 179.031 250.284 178.02C250.911 177.008 251.255 175.848 251.282 174.658C251.316 173.227 250.888 171.824 250.063 170.654C249.237 169.485 248.057 168.613 246.698 168.166L246.704 168.158V168.16ZM222.522 176.722C220.582 176.723 218.667 176.294 216.913 175.465C215.16 174.636 213.612 173.429 212.381 171.93C211.151 170.431 210.268 168.677 209.797 166.796C209.326 164.915 209.279 162.952 209.658 161.05C210.284 157.849 212.081 154.996 214.698 153.049C217.315 151.102 220.563 150.201 223.809 150.521C227.056 150.84 230.066 152.359 232.252 154.779C234.439 157.2 235.644 160.348 235.634 163.61C235.633 167.088 234.251 170.422 231.793 172.881C229.334 175.34 225.999 176.722 222.522 176.722Z" stroke="white" stroke-width="2" stroke-linecap="round" stroke-linejoin="round"/>
<path d="M123.54 379.722V381.432C123.54 386.164 135.646 390 150.58 390C165.514 390 177.618 386.164 177.618 381.432V372.326" stroke="white" stroke-width="2" stroke-linecap="round" stroke-linejoin="round"/>
<path d="M169.918 366.34V373.74C169.918 376.408 166.07 378.79 160.038 380.362C170.306 379.146 177.616 376.01 177.616 372.332C177.618 370 174.682 367.884 169.918 366.34Z" fill="white"/>
<path d="M160.04 380.356C170.308 379.14 177.618 376.004 177.618 372.326C177.618 369.996 174.682 367.884 169.918 366.34" stroke="white" stroke-width="2" stroke-linecap="round" stroke-linejoin="round"/>
<path d="M115.842 364.684V373.734C115.842 378.466 127.948 382.302 142.88 382.302C157.812 382.302 169.92 378.466 169.92 373.734V366.046" stroke="white" stroke-width="2" stroke-linecap="round" stroke-linejoin="round"/>
<path d="M147.306 369.914C132.374 369.914 120.268 366.078 120.268 361.346V359.93C117.468 361.278 115.842 362.894 115.842 364.628C115.842 369.36 127.946 373.196 142.88 373.196C156.032 373.196 166.99 370.222 169.416 366.28C162.351 368.912 154.842 370.146 147.306 369.914Z" fill="white"/>
<path d="M120.268 359.93C117.468 361.278 115.842 362.894 115.842 364.628C115.842 369.36 127.946 373.196 142.88 373.196C156.032 373.196 166.99 370.222 169.416 366.28" stroke="white" stroke-width="2" stroke-linecap="round" stroke-linejoin="round"/>
<path d="M147.306 360.81C132.372 360.81 120.268 356.974 120.268 352.242V361.346C120.268 366.078 132.374 369.914 147.306 369.914C162.238 369.914 174.344 366.078 174.344 361.346V352.242C174.344 356.974 162.24 360.81 147.306 360.81Z" stroke="white" stroke-width="2" stroke-linecap="round" stroke-linejoin="round"/>
<path d="M147.306 343.674C162.24 343.674 174.344 347.51 174.344 352.242C174.344 356.974 162.24 360.81 147.306 360.81C132.372 360.81 120.268 356.972 120.268 352.242C120.268 347.512 132.374 343.674 147.306 343.674Z" stroke="white" stroke-width="2" stroke-linecap="round" stroke-linejoin="round"/>
<path d="M139.1 353.6C140.209 354.77 141.633 355.596 143.2 355.978C146.508 357.03 150.032 357.022 151.072 355.958C152.112 354.894 150.272 353.18 146.966 352.134C143.66 351.088 141.818 349.37 142.858 348.308C144.154 346.986 150.258 347.252 154.004 349.858" stroke="white" stroke-width="2" stroke-linecap="round" stroke-linejoin="round"/>
<path d="M152.044 346.946L141.916 357.298" stroke="white" stroke-width="2" stroke-linecap="round" stroke-linejoin="round"/>
<path d="M250.236 336.938H271.854" stroke="white" stroke-width="2" stroke-linecap="round" stroke-linejoin="round"/>
<path d="M261.044 347.746V326.128" stroke="white" stroke-width="2" stroke-linecap="round" stroke-linejoin="round"/>
<path d="M283.62 369.914H295.412" stroke="white" stroke-width="2" stroke-linecap="round" stroke-linejoin="round"/>
<path d="M289.516 375.81V364.018" stroke="white" stroke-width="2" stroke-linecap="round" stroke-linejoin="round"/>
<path d="M163.596 39.3222L170.28 50.3462L178.14 33.8762" stroke="white" stroke-width="2" stroke-linecap="round" stroke-linejoin="round"/>
</svg>
