<svg width="400" height="400" viewBox="0 0 400 400" fill="none" xmlns="http://www.w3.org/2000/svg">
<path d="M153.025 177.19L160.703 183.113L160.713 183.121L160.723 183.128C161.376 183.613 162.193 183.825 163 183.716C163.011 183.714 163.023 183.71 163.035 183.709V316.985H96.0786C92.8296 316.985 89.713 315.694 87.4155 313.396C85.1181 311.099 83.8277 307.984 83.8276 304.734V177.19H153.025ZM90.0454 307.519H156.773V293.489H90.0454V307.519ZM90.0454 282.7H156.773V268.67H90.0454V282.7ZM90.0454 257.843H156.773V243.812H90.0454V257.843ZM90.0454 232.986H156.773V218.955H90.0454V232.986ZM122.418 204.351H156.773V193.949H122.418V204.351ZM93.1372 182.799C92.3172 182.799 91.5305 183.125 90.9507 183.705C90.371 184.285 90.0454 185.071 90.0454 185.891V201.239C90.0516 202.056 90.3785 202.834 90.9526 203.41H90.9536C91.5332 203.991 92.3143 204.312 93.1235 204.32H115.502C116.219 204.317 116.907 204.064 117.454 203.615L117.679 203.41C118.255 202.834 118.582 202.055 118.587 201.237V185.891C118.587 185.071 118.261 184.285 117.681 183.705C117.101 183.125 116.315 182.799 115.495 182.799H93.1372ZM122.418 191.054H156.773V182.767H122.418V191.054Z" fill="#243044" stroke="white" stroke-width="3"/>
<path d="M318.213 221.955V236.484H209.546V221.955H318.213Z" fill="#243044" stroke="white" stroke-width="3"/>
<path d="M318.213 293.277V307.805H209.546V293.277H318.213Z" fill="#243044" stroke="white" stroke-width="3"/>
<path d="M352.156 45.3411C353.132 44.9371 354.205 44.8313 355.241 45.0374C356.277 45.2435 357.229 45.7518 357.977 46.4993L357.979 46.5022C358.475 46.9965 358.87 47.5848 359.141 48.2336C359.408 48.8803 359.547 49.574 359.547 50.2747C359.547 50.9753 359.409 51.669 359.141 52.3157C358.87 52.9645 358.475 53.5529 357.979 54.0471L357.977 54.0491C357.229 54.7966 356.277 55.3049 355.241 55.511C354.205 55.7171 353.132 55.6122 352.156 55.2083C351.181 54.8041 350.347 54.1194 349.762 53.2424L349.761 53.2405L349.553 52.9045C349.099 52.1042 348.859 51.1982 348.859 50.2747C348.859 49.2191 349.173 48.1862 349.761 47.3079L349.762 47.3069C350.274 46.5396 350.975 45.919 351.797 45.5051L352.156 45.3411Z" fill="#243044" stroke="white" stroke-width="3"/>
<path d="M187.919 140.317C189.293 139.852 190.775 139.804 192.176 140.18C193.577 140.557 194.835 141.34 195.791 142.431C196.747 143.522 197.357 144.873 197.546 146.311C197.734 147.75 197.493 149.213 196.851 150.513C196.248 151.733 195.319 152.76 194.17 153.48L193.938 153.62C192.759 154.299 191.416 154.637 190.061 154.597L189.789 154.585C188.341 154.489 186.954 153.967 185.804 153.083L185.801 153.08L185.52 152.853C184.877 152.31 184.332 151.66 183.909 150.93C183.487 150.201 183.195 149.404 183.045 148.576L182.989 148.219L182.951 147.861C182.883 147.022 182.96 146.177 183.18 145.363C183.431 144.433 183.864 143.562 184.453 142.8L184.456 142.796C185.34 141.645 186.545 140.783 187.919 140.317Z" fill="#243044" stroke="white" stroke-width="3"/>
<path d="M248.43 55.2317C250.298 55.2318 252.124 55.7854 253.676 56.8225V56.8235C255.23 57.8606 256.44 59.3343 257.154 61.0588L257.155 61.0598C257.871 62.7844 258.058 64.6831 257.694 66.5149V66.5159C257.333 68.3451 256.433 70.0271 255.115 71.3489C253.341 73.1184 250.936 74.1125 248.43 74.1125C245.925 74.1125 243.52 73.1186 241.745 71.3489C240.426 70.0279 239.529 68.3461 239.167 66.5159L239.166 66.5149L239.104 66.1702C238.828 64.446 239.034 62.6765 239.705 61.0598L239.706 61.0588C240.42 59.3344 241.631 57.8606 243.185 56.8235L243.186 56.8225C244.738 55.7853 246.563 55.2317 248.43 55.2317Z" fill="#243044" stroke="white" stroke-width="3"/>
<path d="M290.945 89.3708C292.5 88.986 294.134 89.0714 295.64 89.615C297.053 90.1248 298.294 91.0159 299.227 92.1873L299.409 92.4255C300.36 93.7147 300.907 95.2569 300.98 96.8562C301.054 98.4551 300.652 100.041 299.826 101.413C298.998 102.785 297.782 103.88 296.333 104.561H296.332C295.371 105.014 294.328 105.272 293.266 105.322C292.203 105.372 291.141 105.212 290.141 104.85C289.14 104.489 288.22 103.934 287.435 103.218C286.649 102.501 286.013 101.636 285.562 100.673C284.881 99.2218 284.644 97.6027 284.884 96.0203C285.124 94.4364 285.827 92.9586 286.905 91.7751C287.918 90.6655 289.216 89.8611 290.655 89.448L290.945 89.3708Z" fill="#243044" stroke="white" stroke-width="3"/>
<path d="M101.05 50.8486C102.454 50.6532 103.882 50.8519 105.175 51.4199L105.432 51.5381C106.707 52.155 107.784 53.1136 108.544 54.3047L108.692 54.5459C109.457 55.8485 109.819 57.3492 109.732 58.8574C109.644 60.366 109.111 61.815 108.201 63.0205C107.29 64.2262 106.042 65.1355 104.615 65.6318H104.613C103.666 65.9626 102.662 66.1034 101.661 66.0459C100.659 65.9884 99.6781 65.7339 98.7749 65.2969C97.9848 64.9147 97.2675 64.3985 96.6538 63.7734L96.397 63.499L96.1538 63.2119C95.6046 62.5295 95.1767 61.7563 94.8892 60.9268L94.8882 60.9258L94.8003 60.6562C94.3859 59.3056 94.3541 57.8641 94.7104 56.4932C95.0906 55.0309 95.8954 53.7138 97.0239 52.709C98.1524 51.7043 99.5539 51.057 101.05 50.8486Z" fill="#243044" stroke="white" stroke-width="3"/>
<path d="M247.979 382.805C248.466 382.804 248.948 382.899 249.399 383.085L249.401 383.086C249.85 383.271 250.259 383.544 250.602 383.888L250.605 383.892C250.95 384.235 251.222 384.643 251.407 385.092L251.408 385.094C251.595 385.545 251.69 386.027 251.688 386.514V387.55H164.404V386.521C164.406 385.537 164.798 384.592 165.494 383.896C166.191 383.199 167.135 382.806 168.118 382.805H247.979Z" fill="#0A7EA4" stroke="white" stroke-width="3"/>
<path d="M234.784 329.051L239.458 379.805H176.635L181.272 329.051H234.784Z" fill="#0A7EA4" stroke="white" stroke-width="3"/>
<path d="M95.7412 156.906H95.7461C96.095 156.904 96.4411 156.972 96.7637 157.104C97.0866 157.237 97.3796 157.432 97.626 157.677C97.8732 157.924 98.0698 158.217 98.2031 158.54C98.3363 158.862 98.4043 159.208 98.4033 159.556V159.561C98.4033 160.086 98.2474 160.6 97.9561 161.036C97.6644 161.472 97.2502 161.812 96.7656 162.013C96.3416 162.189 95.8797 162.252 95.4258 162.197L95.2324 162.166C94.7176 162.064 94.2446 161.812 93.873 161.441C93.5481 161.117 93.3133 160.715 93.1904 160.274L93.1445 160.083C93.0543 159.632 93.0821 159.167 93.2246 158.733L93.293 158.55C93.493 158.064 93.8326 157.649 94.2686 157.356C94.7041 157.064 95.2165 156.907 95.7412 156.906Z" fill="#0A7EA4" stroke="white" stroke-width="3"/>
<path d="M295.164 102.021L294.897 101.491L294.341 101.784C294.421 101.916 294.545 102.014 294.694 102.06L294.812 102.084C294.892 102.093 294.973 102.086 295.051 102.065L295.164 102.021ZM295.164 102.021C295.273 101.966 295.363 101.881 295.425 101.778L295.477 101.668C295.532 101.515 295.526 101.346 295.46 101.197M295.164 102.021L294.898 101.491L295.46 101.197M295.46 101.197L295.112 101.349L295.444 101.174C295.449 101.182 295.456 101.188 295.46 101.197ZM295.054 100.878L294.879 101.451M295.054 100.878C294.909 100.848 294.754 100.872 294.62 100.937L294.879 101.452V101.451M295.054 100.878L294.879 101.451M295.054 100.878C295.055 100.879 295.057 100.879 295.059 100.879M294.879 101.451H294.88L294.882 101.45M295.059 100.879L294.882 101.45M295.059 100.879C295.201 100.91 295.331 100.996 295.427 101.147L294.896 101.445L294.882 101.45M295.059 100.879L294.882 101.45M294.619 100.937L294.878 101.452L294.303 101.706C294.159 101.366 294.345 101.069 294.619 100.937Z" fill="#0A7EA4" stroke="white" stroke-width="3"/>
<path d="M29.479 249.808V268.432" stroke="white" stroke-width="3" stroke-linecap="round" stroke-linejoin="round"/>
<path d="M38.8102 259.119H20.1479" stroke="white" stroke-width="3" stroke-linecap="round" stroke-linejoin="round"/>
<path d="M235.699 133.834H172.876" stroke="white" stroke-width="3" stroke-linecap="round" stroke-linejoin="round"/>
<path d="M310.117 133.797H321.903C327.463 133.797 332.797 136.006 336.727 139.938C340.659 143.87 342.868 149.203 342.868 154.763V306.584C342.87 309.339 342.327 312.065 341.274 314.61C340.221 317.155 338.677 319.468 336.731 321.414C334.785 323.362 332.472 324.908 329.929 325.961C327.384 327.016 324.658 327.559 321.903 327.559H92.9041C90.1501 327.559 87.4234 327.016 84.8792 325.961C82.3352 324.908 80.0238 323.362 78.077 321.414C76.1302 319.468 74.586 317.155 73.533 314.61C72.4799 312.065 71.9385 309.339 71.9395 306.584V154.801C71.9395 149.241 74.1482 143.908 78.0798 139.976C82.0112 136.044 87.3438 133.835 92.9041 133.834H122.446" stroke="white" stroke-width="3" stroke-linecap="round" stroke-linejoin="round"/>
<path d="M239.967 142.939H197.96" stroke="white" stroke-width="3" stroke-linecap="round" stroke-linejoin="round"/>
<path d="M310.457 142.939H320.009C323.655 142.94 327.153 144.389 329.732 146.967C332.309 149.546 333.758 153.043 333.76 156.69V304.734C333.76 308.381 332.311 311.878 329.732 314.457C327.153 317.036 323.657 318.485 320.009 318.485H96.0785C92.4317 318.485 88.9344 317.036 86.3558 314.457C83.7772 311.878 82.3282 308.381 82.3276 304.734V156.69C82.3282 153.043 83.7772 149.546 86.3558 146.967C88.9344 144.388 92.4317 142.939 96.0785 142.939H115.425" stroke="white" stroke-width="3" stroke-linecap="round" stroke-linejoin="round"/>
<path d="M168.419 175.69H333.766" stroke="white" stroke-width="3" stroke-linecap="round" stroke-linejoin="round"/>
<path d="M82.3276 175.69H153.536" stroke="white" stroke-width="3" stroke-linecap="round" stroke-linejoin="round"/>
<path d="M99.903 159.561C99.903 160.383 99.6592 161.187 99.2027 161.87C98.7462 162.553 98.0973 163.086 97.3379 163.4C96.5787 163.715 95.7433 163.797 94.9373 163.637C94.1312 163.476 93.3909 163.081 92.8098 162.499C92.2288 161.918 91.8329 161.178 91.6726 160.372C91.5124 159.566 91.5945 158.731 91.909 157.971C92.2236 157.212 92.7561 156.563 93.4395 156.107C94.1226 155.65 94.926 155.406 95.7479 155.406C96.2939 155.405 96.835 155.511 97.3399 155.719C97.8447 155.928 98.3034 156.234 98.6895 156.62C99.0757 157.006 99.3816 157.465 99.59 157.969C99.7981 158.474 99.9046 159.015 99.903 159.561Z" stroke="white" stroke-width="3" stroke-linecap="round" stroke-linejoin="round"/>
<path d="M112.512 159.561C112.512 160.384 112.269 161.188 111.812 161.872C111.356 162.555 110.707 163.088 109.947 163.403C109.188 163.718 108.352 163.801 107.545 163.641C106.739 163.481 105.998 163.085 105.416 162.504C104.835 161.922 104.438 161.182 104.278 160.375C104.117 159.569 104.199 158.733 104.514 157.973C104.829 157.213 105.362 156.564 106.045 156.107C106.729 155.65 107.533 155.406 108.355 155.406C108.901 155.405 109.442 155.511 109.947 155.719C110.452 155.928 110.911 156.234 111.297 156.62C111.684 157.006 111.99 157.465 112.198 157.969C112.407 158.474 112.513 159.015 112.512 159.561Z" stroke="white" stroke-width="3" stroke-linecap="round" stroke-linejoin="round"/>
<path d="M125.176 159.561C125.176 160.383 124.932 161.187 124.476 161.87C124.019 162.553 123.37 163.086 122.611 163.4C121.852 163.715 121.016 163.797 120.21 163.637C119.404 163.476 118.664 163.081 118.083 162.499C117.502 161.918 117.106 161.178 116.945 160.372C116.785 159.566 116.867 158.731 117.182 157.971C117.497 157.212 118.029 156.563 118.712 156.107C119.396 155.65 120.199 155.406 121.021 155.406C121.567 155.405 122.108 155.511 122.613 155.719C123.118 155.928 123.576 156.234 123.962 156.62C124.349 157.006 124.655 157.465 124.863 157.969C125.071 158.474 125.178 159.015 125.176 159.561Z" stroke="white" stroke-width="3" stroke-linecap="round" stroke-linejoin="round"/>
<path d="M164.491 180.789V318.447" stroke="white" stroke-width="3" stroke-linecap="round" stroke-linejoin="round"/>
<path d="M164.491 211.389H333.766" stroke="white" stroke-width="3" stroke-linecap="round" stroke-linejoin="round"/>
<path d="M164.491 247.087H333.766" stroke="white" stroke-width="3" stroke-linecap="round" stroke-linejoin="round"/>
<path d="M164.491 282.748H333.766" stroke="white" stroke-width="3" stroke-linecap="round" stroke-linejoin="round"/>
<path d="M196.072 202.285H178.544V184.757H196.072V202.285Z" stroke="white" stroke-width="3" stroke-linecap="round" stroke-linejoin="round"/>
<path d="M319.713 202.285H208.046V184.757H319.713V202.285Z" stroke="white" stroke-width="3" stroke-linecap="round" stroke-linejoin="round"/>
<path d="M319.713 237.983H208.046V220.455H319.713V237.983Z" stroke="white" stroke-width="3" stroke-linecap="round" stroke-linejoin="round"/>
<path d="M319.713 273.682H208.046V256.154H319.713V273.682Z" stroke="white" stroke-width="3" stroke-linecap="round" stroke-linejoin="round"/>
<path d="M319.713 309.305H208.046V291.777H319.713V309.305Z" stroke="white" stroke-width="3" stroke-linecap="round" stroke-linejoin="round"/>
<path d="M196.072 237.983H178.544V220.455H196.072V237.983Z" stroke="white" stroke-width="3" stroke-linecap="round" stroke-linejoin="round"/>
<path d="M196.072 273.682H178.544V256.154H196.072V273.682Z" stroke="white" stroke-width="3" stroke-linecap="round" stroke-linejoin="round"/>
<path d="M196.072 309.38H178.544V291.853H196.072V309.38Z" stroke="white" stroke-width="3" stroke-linecap="round" stroke-linejoin="round"/>
<path d="M178.544 254.114L187.949 267.374L197.393 250.865" stroke="white" stroke-width="3" stroke-linecap="round" stroke-linejoin="round"/>
<path d="M178.544 289.813L187.949 303.072L197.393 286.563" stroke="white" stroke-width="3" stroke-linecap="round" stroke-linejoin="round"/>
<path d="M178.544 218.416L187.949 231.675L197.393 215.168" stroke="white" stroke-width="3" stroke-linecap="round" stroke-linejoin="round"/>
<path d="M178.544 182.717L187.949 195.976L197.393 179.469" stroke="white" stroke-width="3" stroke-linecap="round" stroke-linejoin="round"/>
<path d="M174.992 381.305L179.903 327.551H236.152L241.101 381.305" stroke="white" stroke-width="3" stroke-linecap="round" stroke-linejoin="round"/>
<path d="M247.975 381.305H168.079C166.697 381.309 165.373 381.858 164.396 382.835C163.419 383.812 162.869 385.138 162.867 386.519V389.012H253.189V386.519C253.187 385.138 252.636 383.812 251.659 382.835C250.681 381.858 249.356 381.307 247.975 381.305Z" stroke="white" stroke-width="3" stroke-linecap="round" stroke-linejoin="round"/>
<path d="M106.353 389.012H309.701" stroke="white" stroke-width="3" stroke-linecap="round" stroke-linejoin="round"/>
<path d="M349.366 55.0723L321.375 83.0258C321.082 83.3235 320.919 83.7235 320.919 84.1402C320.919 84.5569 321.082 84.9571 321.375 85.2546L343.738 107.664C344.037 107.956 344.437 108.119 344.853 108.119C345.269 108.119 345.669 107.956 345.967 107.664L377.708 75.9633C378 75.6656 378.163 75.2652 378.163 74.8479C378.163 74.4308 378 74.0302 377.708 73.7325L359.083 55.0723" stroke="white" stroke-width="3" stroke-linecap="round" stroke-linejoin="round"/>
<path d="M321.223 83.971L349.516 79.5134L353.144 57.0364" stroke="white" stroke-width="3" stroke-linecap="round" stroke-linejoin="round"/>
<path d="M349.365 55.1102C350.323 56.067 351.54 56.7185 352.868 56.9826C354.195 57.2466 355.57 57.1113 356.82 56.5937C358.07 56.0761 359.138 55.1993 359.889 54.0746C360.641 52.9498 361.043 51.6273 361.043 50.2745C361.043 48.9217 360.641 47.5991 359.889 46.4744C359.138 45.3496 358.07 44.473 356.82 43.9552C355.57 43.4376 354.195 43.3023 352.868 43.5664C351.54 43.8305 350.323 44.482 349.365 45.4388C348.729 46.0724 348.221 46.8258 347.877 47.6558C347.531 48.4857 347.354 49.3756 347.354 50.2745C347.354 51.1734 347.531 52.0633 347.877 52.8933C348.221 53.7232 348.729 54.4766 349.365 55.1102Z" stroke="white" stroke-width="3" stroke-linecap="round" stroke-linejoin="round"/>
<path d="M351.746 47.781L356.657 52.7301" stroke="white" stroke-width="3" stroke-linecap="round" stroke-linejoin="round"/>
<path d="M356.695 47.8188L351.746 52.7302" stroke="white" stroke-width="3" stroke-linecap="round" stroke-linejoin="round"/>
<path d="M183.304 141.892L142.509 110.424C142.172 110.173 141.75 110.064 141.333 110.12C140.916 110.177 140.538 110.394 140.28 110.727L114.779 143.771C114.527 144.108 114.418 144.53 114.474 144.946C114.53 145.363 114.748 145.741 115.079 145.999L161.619 181.925C161.957 182.175 162.379 182.284 162.795 182.227C163.212 182.171 163.59 181.954 163.848 181.622L184.89 154.31" stroke="white" stroke-width="3" stroke-linecap="round" stroke-linejoin="round"/>
<path d="M141.522 110.414L152.063 146.151L181.451 147.094" stroke="white" stroke-width="3" stroke-linecap="round" stroke-linejoin="round"/>
<path d="M183.266 141.892C182.202 143.278 181.572 144.948 181.457 146.692C181.341 148.436 181.746 150.174 182.619 151.688C183.492 153.202 184.794 154.423 186.361 155.197C187.927 155.971 189.689 156.263 191.421 156.035C193.154 155.808 194.78 155.073 196.095 153.921C197.409 152.77 198.353 151.254 198.806 149.567C199.26 147.879 199.202 146.095 198.641 144.44C198.081 142.785 197.042 141.333 195.656 140.268C194.737 139.559 193.687 139.038 192.566 138.736C191.445 138.433 190.275 138.355 189.124 138.506C187.972 138.657 186.862 139.034 185.857 139.615C184.852 140.196 183.972 140.97 183.266 141.892Z" stroke="white" stroke-width="3" stroke-linecap="round" stroke-linejoin="round"/>
<path d="M193.011 143.733L187.535 150.873" stroke="white" stroke-width="3" stroke-linecap="round" stroke-linejoin="round"/>
<path d="M193.843 150.041L186.703 144.527" stroke="white" stroke-width="3" stroke-linecap="round" stroke-linejoin="round"/>
<path d="M240.724 56.8852L195.316 11.4038C195.018 11.1121 194.618 10.9487 194.201 10.9487C193.785 10.9487 193.385 11.1121 193.087 11.4038L155.874 48.5372C155.582 48.8349 155.419 49.2349 155.419 49.6516C155.419 50.0683 155.582 50.4685 155.874 50.766L207.928 102.904C208.227 103.196 208.627 103.359 209.043 103.359C209.459 103.359 209.859 103.196 210.157 102.904L240.72 72.4192" stroke="white" stroke-width="3" stroke-linecap="round" stroke-linejoin="round"/>
<path d="M194.373 11.2524L201.624 57.1498L237.625 62.9287" stroke="white" stroke-width="3" stroke-linecap="round" stroke-linejoin="round"/>
<path d="M240.685 72.4113C242.216 73.9406 244.166 74.9818 246.289 75.4028C248.413 75.8241 250.611 75.6066 252.611 74.7778C254.611 73.9489 256.319 72.5462 257.521 70.7464C258.723 68.9469 259.365 66.8313 259.365 64.6672C259.365 62.5031 258.723 60.3875 257.521 58.5879C256.319 56.7884 254.611 55.3854 252.611 54.5566C250.611 53.7278 248.413 53.5103 246.289 53.9315C244.166 54.3528 242.216 55.3938 240.685 56.9231C238.634 58.978 237.481 61.7632 237.481 64.6672C237.481 67.5712 238.634 70.3564 240.685 72.4113Z" stroke="white" stroke-width="3" stroke-linecap="round" stroke-linejoin="round"/>
<path d="M250.469 61.3428C250.158 61.653 249.764 61.8642 249.334 61.9499C248.904 62.0355 248.457 61.9917 248.053 61.824C247.647 61.6562 247.3 61.372 247.058 61.0075C246.813 60.6429 246.684 60.2143 246.684 59.7757C246.684 59.3373 246.813 58.9086 247.058 58.5439C247.3 58.1793 247.647 57.8951 248.053 57.7274C248.457 57.5598 248.904 57.5158 249.334 57.6016C249.764 57.6872 250.158 57.8985 250.469 58.2085C250.676 58.4139 250.839 58.6581 250.952 58.9269C251.064 59.196 251.121 59.4843 251.121 59.7757C251.121 60.067 251.064 60.3553 250.952 60.6244C250.839 60.8932 250.676 61.1374 250.469 61.3428Z" stroke="white" stroke-width="3" stroke-linecap="round" stroke-linejoin="round"/>
<path d="M250.507 71.5436C250.196 71.8535 249.802 72.0646 249.372 72.15C248.942 72.2354 248.497 72.1914 248.091 72.0236C247.687 71.8557 247.341 71.5715 247.096 71.2071C246.853 70.8426 246.724 70.4139 246.724 69.9755C246.724 69.5371 246.853 69.1087 247.096 68.7441C247.341 68.3795 247.687 68.0954 248.091 67.9276C248.497 67.7599 248.942 67.7159 249.372 67.8012C249.802 67.8866 250.196 68.0976 250.507 68.4074C250.923 68.8237 251.155 69.3877 251.155 69.9755C251.155 70.5636 250.923 71.1273 250.507 71.5436Z" stroke="white" stroke-width="3" stroke-linecap="round" stroke-linejoin="round"/>
<path d="M241.818 64.8372H256.099" stroke="white" stroke-width="3" stroke-linecap="round" stroke-linejoin="round"/>
<path d="M284.166 101.272L233.357 125.108C232.977 125.289 232.684 125.614 232.543 126.01C232.4 126.407 232.422 126.843 232.601 127.224L252.017 168.628C252.198 169.008 252.523 169.301 252.921 169.442C253.317 169.584 253.755 169.562 254.135 169.382L312.233 142.119C312.613 141.938 312.905 141.614 313.047 141.217C313.19 140.821 313.168 140.384 312.989 140.004L297.009 105.873" stroke="white" stroke-width="3" stroke-linecap="round" stroke-linejoin="round"/>
<path d="M232.902 125.978L272.794 133.61L288.244 105.616" stroke="white" stroke-width="3" stroke-linecap="round" stroke-linejoin="round"/>
<path d="M284.203 101.31C285.009 103.028 286.309 104.468 287.934 105.449C289.558 106.429 291.439 106.905 293.335 106.818C295.232 106.73 297.059 106.082 298.587 104.955C300.115 103.828 301.273 102.274 301.918 100.489C302.563 98.7034 302.662 96.767 302.207 94.9244C301.751 93.0817 300.76 91.4157 299.357 90.1369C297.954 88.8583 296.203 88.0241 294.326 87.7403C292.45 87.4564 290.529 87.7354 288.812 88.5421C287.67 89.0772 286.645 89.832 285.795 90.7635C284.945 91.6949 284.289 92.7848 283.861 93.9706C283.433 95.1565 283.242 96.4149 283.302 97.6744C283.359 98.9337 283.666 100.169 284.203 101.31Z" stroke="white" stroke-width="3" stroke-linecap="round" stroke-linejoin="round"/>
<path d="M93.4716 61.3806L43.1246 78.7951C42.9254 78.8578 42.7409 78.9601 42.5823 79.096C42.4235 79.2319 42.2941 79.3985 42.2014 79.5857C42.1089 79.7728 42.0551 79.977 42.0434 80.1853C42.0318 80.3939 42.0625 80.6026 42.1335 80.799L56.2625 121.711C56.3258 121.91 56.4285 122.094 56.5646 122.251C56.7007 122.409 56.8673 122.537 57.0542 122.629C57.2412 122.721 57.4448 122.774 57.653 122.784C57.8609 122.795 58.0689 122.764 58.2645 122.693L115.797 102.793C115.996 102.729 116.18 102.627 116.338 102.491C116.495 102.355 116.624 102.188 116.716 102.001C116.808 101.814 116.861 101.611 116.872 101.403C116.883 101.195 116.852 100.986 116.78 100.791L105.107 67.0481" stroke="white" stroke-width="3" stroke-linecap="round" stroke-linejoin="round"/>
<path d="M42.5493 79.5891L79.4578 90.8087L96.8723 65.9138" stroke="white" stroke-width="3" stroke-linecap="round" stroke-linejoin="round"/>
<path d="M93.4714 61.4184C94.0651 63.1252 95.1514 64.6175 96.5932 65.7068C98.0349 66.7964 99.7672 67.4337 101.571 67.5388C103.375 67.6439 105.17 67.2117 106.728 66.2969C108.287 65.3821 109.539 64.0259 110.326 62.3994C111.114 60.7732 111.402 58.95 111.154 57.16C110.905 55.3702 110.132 53.6942 108.931 52.3438C107.73 50.9934 106.156 50.0294 104.407 49.5735C102.659 49.1178 100.814 49.1906 99.1071 49.7828C97.972 50.1753 96.9255 50.7878 96.0276 51.5854C95.1297 52.383 94.398 53.3501 93.8744 54.4309C93.3509 55.5119 93.0458 56.6856 92.9765 57.8845C92.9075 59.0835 93.0756 60.2845 93.4714 61.4184Z" stroke="white" stroke-width="3" stroke-linecap="round" stroke-linejoin="round"/>
<path d="M100.574 54.0156L103.634 62.8174" stroke="white" stroke-width="3" stroke-linecap="round" stroke-linejoin="round"/>
<path d="M106.504 56.9231L97.7021 59.9459" stroke="white" stroke-width="3" stroke-linecap="round" stroke-linejoin="round"/>
<path d="M329.458 361.134L338.035 357.885" stroke="white" stroke-width="3" stroke-linecap="round" stroke-linejoin="round"/>
<path d="M353.221 352.106L361.796 348.818" stroke="white" stroke-width="3" stroke-linecap="round" stroke-linejoin="round"/>
<path d="M339.47 338.846L342.717 347.384" stroke="white" stroke-width="3" stroke-linecap="round" stroke-linejoin="round"/>
<path d="M348.536 362.607L351.784 371.144" stroke="white" stroke-width="3" stroke-linecap="round" stroke-linejoin="round"/>
<path d="M329.836 347.913L338.222 351.652" stroke="white" stroke-width="3" stroke-linecap="round" stroke-linejoin="round"/>
<path d="M353.031 358.301L361.417 362.078" stroke="white" stroke-width="3" stroke-linecap="round" stroke-linejoin="round"/>
<path d="M352.691 339.224L348.952 347.572" stroke="white" stroke-width="3" stroke-linecap="round" stroke-linejoin="round"/>
<path d="M342.303 362.418L338.562 370.766" stroke="white" stroke-width="3" stroke-linecap="round" stroke-linejoin="round"/>
<path d="M379.853 172.556C379.853 173.169 379.672 173.768 379.331 174.278C378.991 174.787 378.506 175.184 377.94 175.419C377.373 175.653 376.75 175.714 376.149 175.595C375.548 175.475 374.997 175.18 374.563 174.747C374.13 174.314 373.835 173.762 373.716 173.161C373.596 172.56 373.658 171.936 373.893 171.37C374.126 170.804 374.524 170.32 375.033 169.98C375.542 169.639 376.141 169.458 376.754 169.458C377.574 169.462 378.36 169.79 378.941 170.37C379.52 170.95 379.849 171.735 379.853 172.556Z" stroke="white" stroke-width="3" stroke-linecap="round" stroke-linejoin="round"/>
<path d="M115.495 184.303H93.131C92.255 184.303 91.5449 185.013 91.5449 185.889V201.238C91.5449 202.113 92.255 202.824 93.131 202.824H115.495C116.371 202.824 117.081 202.113 117.081 201.238V185.889C117.081 185.013 116.371 184.303 115.495 184.303Z" stroke="white" stroke-width="3" stroke-linecap="round" stroke-linejoin="round"/>
<path d="M92.1123 184.679L104.313 193.558L116.555 184.715" stroke="white" stroke-width="3" stroke-linecap="round" stroke-linejoin="round"/>
<path d="M155.273 189.555H123.918V184.267H155.273V189.555Z" stroke="white" stroke-width="3" stroke-linecap="round" stroke-linejoin="round"/>
<path d="M155.273 202.852H123.918V195.449H155.273V202.852Z" stroke="white" stroke-width="3" stroke-linecap="round" stroke-linejoin="round"/>
<path d="M155.273 231.486H91.5449V220.455H155.273V231.486Z" stroke="white" stroke-width="3" stroke-linecap="round" stroke-linejoin="round"/>
<path d="M155.273 256.343H91.5449V245.312H155.273V256.343Z" stroke="white" stroke-width="3" stroke-linecap="round" stroke-linejoin="round"/>
<path d="M155.273 281.2H91.5449V270.169H155.273V281.2Z" stroke="white" stroke-width="3" stroke-linecap="round" stroke-linejoin="round"/>
<path d="M155.273 306.019H91.5449V295.027H155.273V306.019Z" stroke="white" stroke-width="3" stroke-linecap="round" stroke-linejoin="round"/>
<path d="M293.648 99.119C292.74 97.3061 294.346 95.2763 293.383 93.2644C293.254 92.9815 293.069 92.7283 292.836 92.522C292.603 92.3154 292.33 92.16 292.034 92.0657C291.737 91.9713 291.425 91.9405 291.116 91.9747C290.808 92.0089 290.51 92.1076 290.241 92.2645C289.972 92.4213 289.739 92.6326 289.558 92.8851C289.377 93.1375 289.25 93.425 289.186 93.7295C289.123 94.0338 289.125 94.348 289.19 94.6519C289.256 94.9557 289.385 95.2423 289.568 95.4932" stroke="white" stroke-width="3" stroke-linecap="round" stroke-linejoin="round"/>
</svg>
