<svg width="400" height="400" viewBox="0 0 400 400" fill="none" xmlns="http://www.w3.org/2000/svg">
<path d="M389.89 242.86C387.402 186.926 340.49 142.328 282.976 142.328C223.868 142.328 175.952 189.428 175.952 247.528C175.952 310.094 231.274 359.148 295.152 352.042L323.732 381.876V344.834C343.96 336.78 361.19 322.642 373.04 304.376C384.892 286.11 390.778 264.616 389.89 242.86Z" stroke="white" stroke-width="2" stroke-linecap="round" stroke-linejoin="round"/>
<path d="M247.6 326.304C249.456 327.394 251.546 328.022 253.694 328.132" stroke="white" stroke-width="2" stroke-linecap="round" stroke-linejoin="round"/>
<path d="M287.858 284.418L274.84 279.944L268.162 225.476L257.94 224.18L203.71 239.166C201.676 239.728 199.908 241 198.726 242.75C197.545 244.5 197.028 246.614 197.268 248.71L204.752 305.456L235.862 320.596" stroke="white" stroke-width="2" stroke-linecap="round" stroke-linejoin="round"/>
<path d="M313.136 293.108L302.08 289.308" stroke="white" stroke-width="2" stroke-linecap="round" stroke-linejoin="round"/>
<path d="M287.45 315.058L314.344 303.684C315.616 303.146 316.748 302.322 317.65 301.276C318.552 300.23 319.2 298.99 319.544 297.652" stroke="white" stroke-width="2" stroke-linecap="round" stroke-linejoin="round"/>
<path d="M342.092 230.83C342.092 230.83 346.19 233.562 352.54 227.288L356.078 245.18C360.612 239.126 366.194 233.93 372.558 229.842L365.65 216.206C365.65 216.206 351.8 189.082 331.92 196.066C331.92 196.066 330.554 226.276 342.092 230.83Z" stroke="white" stroke-width="2" stroke-linecap="round" stroke-linejoin="round"/>
<path d="M350.364 168.438C350.364 168.438 337.84 168.438 333.438 176.18C329.036 183.922 321.598 177.85 315.828 182.252C310.028 186.682 312.982 203.252 331.974 203.666C331.774 199.232 331.92 196.066 331.92 196.066C331.92 196.066 340.12 194.092 342.546 197.888C344.972 201.684 346.19 213.068 347.1 213.22C348.01 213.372 348.922 206.238 353.172 207.452C357.422 208.666 351.654 215.802 350.592 217.776C350.172 218.554 351.08 219.776 352.472 220.96C360.53 227.76 367.534 222.018 367.328 217.688C367.1 214.996 367.612 212.292 368.81 209.868C371.542 205.024 381.106 168.438 350.364 168.438Z" fill="#0A7EA4"/>
<path d="M350.364 168.438C350.364 168.438 337.84 168.438 333.438 176.18C329.036 183.922 321.598 177.85 315.828 182.252C310.028 186.682 312.982 203.252 331.974 203.666C331.774 199.232 331.92 196.066 331.92 196.066C331.92 196.066 340.12 194.092 342.546 197.888C344.972 201.684 346.19 213.068 347.1 213.22C348.01 213.372 348.922 206.238 353.172 207.452C357.422 208.666 351.654 215.802 350.592 217.776C350.172 218.554 351.08 219.776 352.472 220.96C360.53 227.76 367.534 222.018 367.328 217.688C367.1 214.996 367.612 212.292 368.81 209.868C371.542 205.024 381.106 168.438 350.364 168.438Z" stroke="white" stroke-width="2" stroke-linecap="round" stroke-linejoin="round"/>
<path d="M268.162 225.476L208.894 242.018C206.808 242.6 205.004 243.918 203.814 245.728C202.624 247.538 202.132 249.718 202.426 251.862L209.26 301.8L274.84 279.94L268.162 225.476ZM240.562 281.654C230.646 281.654 222.608 272.764 222.608 261.798C222.608 250.832 230.646 241.942 240.562 241.942C250.478 241.942 258.516 250.832 258.516 261.798C258.516 272.764 250.482 281.654 240.566 281.654H240.562Z" fill="#0A7EA4"/>
<path d="M209.26 301.8L202.426 251.858C202.132 249.714 202.624 247.534 203.814 245.724C205.004 243.914 206.808 242.596 208.894 242.014L268.162 225.472L274.84 279.94L209.26 301.8Z" stroke="white" stroke-width="2" stroke-linecap="round" stroke-linejoin="round"/>
<path d="M285.766 309.478L317.13 296.524" stroke="white" stroke-width="2" stroke-linecap="round" stroke-linejoin="round"/>
<path d="M277.896 312.728L279.956 311.876" stroke="white" stroke-width="2" stroke-linecap="round" stroke-linejoin="round"/>
<path d="M242.348 316.944L247.636 319.364" stroke="white" stroke-width="2" stroke-linecap="round" stroke-linejoin="round"/>
<path d="M209.26 301.804L231.208 311.846" stroke="white" stroke-width="2" stroke-linecap="round" stroke-linejoin="round"/>
<path d="M284.266 302.804L290.592 300.05L281.672 295.808L259.118 304.594" stroke="white" stroke-width="2" stroke-linecap="round" stroke-linejoin="round"/>
<path d="M272.352 307.992L278.906 305.138" stroke="white" stroke-width="2" stroke-linecap="round" stroke-linejoin="round"/>
<path d="M258.52 261.8C258.52 272.766 250.482 281.656 240.566 281.656C230.65 281.656 222.612 272.766 222.612 261.8C222.612 250.834 230.65 241.944 240.566 241.944C250.482 241.944 258.52 250.832 258.52 261.8Z" stroke="white" stroke-width="2" stroke-linecap="round" stroke-linejoin="round"/>
<path d="M235.836 253.418C237.958 251.16 245.648 249.194 244.62 254.658C243.774 256.942 242.188 258.874 240.112 260.146C239.638 260.42 239.224 260.784 238.89 261.216C237.616 263.186 239.158 266.436 239.928 268.338" stroke="white" stroke-width="2" stroke-linecap="round" stroke-linejoin="round"/>
<path d="M241.564 273.34C242.276 273.34 242.854 272.764 242.854 272.05C242.854 271.338 242.276 270.76 241.564 270.76C240.852 270.76 240.274 271.338 240.274 272.05C240.274 272.764 240.852 273.34 241.564 273.34Z" fill="#0A7EA4"/>
<path d="M373.212 229.464C365.552 234.194 359 240.514 354 248C347.946 256.73 343.552 266.5 341.034 276.82C335.342 299.394 335.234 324.248 335.868 339C352.92 329.58 367.01 315.592 376.552 298.608C386.096 281.624 390.716 262.318 389.896 242.852C384.784 237.132 378.2 230.748 373.212 229.464Z" stroke="white" stroke-width="2" stroke-linecap="round" stroke-linejoin="round"/>
<path d="M375.6 272.144C370.496 262.442 363.078 254.148 354 248C352.18 250.59 350.516 253.286 349.016 256.074C356.512 261.318 369.03 273.364 376.668 298.406C383.22 286.792 387.462 274.018 389.16 260.792C383.444 265.564 378.6 269.628 375.6 272.144Z" fill="#0A7EA4"/>
<path d="M375.6 272.144C370.496 262.442 363.078 254.148 354 248C352.18 250.59 350.516 253.286 349.016 256.074C356.512 261.318 369.03 273.364 376.668 298.406C383.22 286.792 387.462 274.018 389.16 260.792C383.444 265.564 378.6 269.628 375.6 272.144Z" stroke="white" stroke-width="2" stroke-linecap="round" stroke-linejoin="round"/>
<path d="M329.4 342.344C329.4 342.344 301.4 335.368 296.372 331.798C291.344 328.228 275.8 308.288 270.342 307.028C264.884 305.768 238.854 300.206 237.804 300.73C236.754 301.254 236.754 305.664 240.744 307.13C244.734 308.596 261.21 311.854 261.21 311.854C261.21 311.854 233.396 309.44 231.716 310.174C230.036 310.908 232.136 315.108 235.496 315.948C238.856 316.788 258.166 318.572 258.166 318.572C258.166 318.572 232.136 320.25 231.822 321.616C231.508 322.982 233.712 325.708 236.022 326.016C238.332 326.324 256.91 326.33 256.91 326.33C256.91 326.33 241.166 335.042 240.746 335.672C240.326 336.302 242.11 338.926 247.882 337.872C253.654 336.818 261.738 332.624 264.152 332.834C266.43 333.034 276.552 350.708 277.594 352.59C283.45 352.868 289.32 352.68 295.148 352.03L323.728 381.864V344.834C325.642 344.056 327.534 343.226 329.4 342.344Z" stroke="white" stroke-width="2" stroke-linecap="round" stroke-linejoin="round"/>
<path d="M291.566 327.256C291.566 327.256 285.566 310.282 285.032 306.294C284.498 302.306 282.724 298.212 281.254 298.422C279.784 298.632 278.42 303.88 279.054 307.972C279.596 310.912 280.458 313.782 281.624 316.532L291.566 327.256Z" stroke="white" stroke-width="2" stroke-linecap="round" stroke-linejoin="round"/>
<path d="M338.2 290.894C338.2 290.894 321.6 274.256 317.558 272.05C313.516 269.844 285.236 272.05 285.236 272.05L280.264 272.144C280.264 272.144 279.028 277.132 285.236 277.744C291.444 278.356 301.972 277.144 305.21 278.756" stroke="white" stroke-width="2" stroke-linecap="round" stroke-linejoin="round"/>
<path d="M315.12 280.982L287.858 284.418C287.858 284.418 288.402 287.858 293.858 288.872C299.314 289.886 310.458 288.872 310.458 288.872C310.458 288.872 314.506 299.05 325.234 298.414" stroke="white" stroke-width="2" stroke-linecap="round" stroke-linejoin="round"/>
<path d="M280.494 274.92H277.422C277.422 274.92 276.662 278.984 282.128 280.72C287.02 282.278 298.508 282.438 303.62 282.426" stroke="white" stroke-width="2" stroke-linecap="round" stroke-linejoin="round"/>
<path d="M315.294 303.208L335.624 323.24" stroke="white" stroke-width="2" stroke-linecap="round" stroke-linejoin="round"/>
<path d="M169.158 53.2402C95.268 20.5842 10 73.0702 10 153.328C9.99912 178.291 18.674 202.478 34.54 221.75L18.894 260.504L57.638 243.026C76.7674 256.2 99.4596 263.224 122.686 263.164C184.818 263.164 235.37 214.054 235.37 153.328C235.358 125.741 224.78 99.2062 205.81 79.1762" stroke="white" stroke-width="2" stroke-linecap="round" stroke-linejoin="round"/>
<path d="M225.82 109.01L161.77 115.912L154.508 213.98L222.44 204.454C230.318 189.881 234.722 173.684 235.31 157.128C235.896 140.571 232.648 124.104 225.82 109.01Z" stroke="white" stroke-width="2" stroke-linecap="round" stroke-linejoin="round"/>
<path d="M182.628 209.988L222.468 204.402C230.986 188.656 235.422 171.025 235.37 153.122C211.252 164.754 192.415 185.064 182.628 209.988Z" fill="white"/>
<path d="M182.628 209.988L222.468 204.402C230.986 188.656 235.422 171.025 235.37 153.122C211.252 164.754 192.415 185.064 182.628 209.988Z" stroke="white" stroke-width="2" stroke-linecap="round" stroke-linejoin="round"/>
<path d="M222.468 204.4L182.628 209.986C177.639 222.822 175.264 236.524 175.642 250.292C195.485 240.016 211.794 224.03 222.468 204.4Z" fill="#0A7EA4"/>
<path d="M222.468 204.4L182.628 209.986C177.639 222.822 175.264 236.524 175.642 250.292C195.485 240.016 211.794 224.03 222.468 204.4Z" stroke="white" stroke-width="2" stroke-linecap="round" stroke-linejoin="round"/>
<path d="M216.016 167.32C220.278 167.32 223.732 163.649 223.732 159.122C223.732 154.594 220.278 150.924 216.016 150.924C211.754 150.924 208.3 154.594 208.3 159.122C208.3 163.649 211.754 167.32 216.016 167.32Z" fill="white"/>
<path d="M216.016 167.32C220.278 167.32 223.732 163.649 223.732 159.122C223.732 154.594 220.278 150.924 216.016 150.924C211.754 150.924 208.3 154.594 208.3 159.122C208.3 163.649 211.754 167.32 216.016 167.32Z" stroke="white" stroke-width="2" stroke-linecap="round" stroke-linejoin="round"/>
<path d="M224.366 140.56C223.396 140.606 222.452 140.895 221.622 141.399C220.792 141.904 220.1 142.608 219.612 143.448C219.124 144.287 218.854 145.236 218.826 146.207C218.798 147.178 219.012 148.141 219.452 149.008C220.422 148.961 221.366 148.672 222.196 148.168C223.026 147.664 223.718 146.959 224.206 146.12C224.694 145.28 224.964 144.331 224.992 143.36C225.02 142.389 224.806 141.426 224.366 140.56Z" fill="white"/>
<path d="M224.366 140.56C223.396 140.606 222.452 140.895 221.622 141.399C220.792 141.904 220.1 142.608 219.612 143.448C219.124 144.287 218.854 145.236 218.826 146.207C218.798 147.178 219.012 148.141 219.452 149.008C220.422 148.961 221.366 148.672 222.196 148.168C223.026 147.664 223.718 146.959 224.206 146.12C224.694 145.28 224.964 144.331 224.992 143.36C225.02 142.389 224.806 141.426 224.366 140.56Z" stroke="white" stroke-width="2" stroke-linecap="round" stroke-linejoin="round"/>
<path d="M186.716 79.176V101.642H121.288V56.708H169.158" stroke="white" stroke-width="2" stroke-linecap="round" stroke-linejoin="round"/>
<path d="M121.288 65.6641H169.158" stroke="white" stroke-width="2" stroke-linecap="round" stroke-linejoin="round"/>
<path d="M234.586 34.2402H169.158V79.1742H234.586V34.2402Z" stroke="white" stroke-width="2" stroke-linecap="round" stroke-linejoin="round"/>
<path d="M169.158 43.1963H234.586" stroke="white" stroke-width="2" stroke-linecap="round" stroke-linejoin="round"/>
<path d="M220.988 39.9847C221.694 39.9847 222.266 39.4125 222.266 38.7067C222.266 38.0007 221.694 37.4287 220.988 37.4287C220.282 37.4287 219.71 38.0007 219.71 38.7067C219.71 39.4125 220.282 39.9847 220.988 39.9847Z" fill="#0A7EA4"/>
<path d="M227.97 39.9847C228.676 39.9847 229.248 39.4125 229.248 38.7067C229.248 38.0007 228.676 37.4287 227.97 37.4287C227.264 37.4287 226.692 38.0007 226.692 38.7067C226.692 39.4125 227.264 39.9847 227.97 39.9847Z" fill="#0A7EA4"/>
<path d="M201.872 46.4102L206.068 54.9122L215.45 56.2762L208.662 62.8942L210.264 72.2382L201.872 67.8262L193.48 72.2382L195.084 62.8942L188.294 56.2762L197.676 54.9122L201.872 46.4102Z" fill="white"/>
<path d="M201.872 46.4102L206.068 54.9122L215.45 56.2762L208.662 62.8942L210.264 72.2382L201.872 67.8262L193.48 72.2382L195.084 62.8942L188.294 56.2762L197.676 54.9122L201.872 46.4102Z" stroke="white" stroke-width="2" stroke-linecap="round" stroke-linejoin="round"/>
<path d="M129.738 72.6982H159.898" stroke="white" stroke-width="2" stroke-linecap="round" stroke-linejoin="round"/>
<path d="M129.738 79.7324H159.898" stroke="white" stroke-width="2" stroke-linecap="round" stroke-linejoin="round"/>
<path d="M129.738 86.7666H142.186" stroke="white" stroke-width="2" stroke-linecap="round" stroke-linejoin="round"/>
<path d="M129.738 93.8008H142.186" stroke="white" stroke-width="2" stroke-linecap="round" stroke-linejoin="round"/>
<path d="M149.448 86.7666H161.896" stroke="white" stroke-width="2" stroke-linecap="round" stroke-linejoin="round"/>
<path d="M149.448 93.8008H161.896" stroke="white" stroke-width="2" stroke-linecap="round" stroke-linejoin="round"/>
<path d="M169.158 86.7666H181.606" stroke="white" stroke-width="2" stroke-linecap="round" stroke-linejoin="round"/>
<path d="M169.158 93.8008H181.606" stroke="white" stroke-width="2" stroke-linecap="round" stroke-linejoin="round"/>
<path d="M109.104 279.26V304.156" stroke="white" stroke-width="2" stroke-linecap="round" stroke-linejoin="round"/>
<path d="M121.552 291.708H96.6558" stroke="white" stroke-width="2" stroke-linecap="round" stroke-linejoin="round"/>
<path d="M326.226 114.278V133.03" stroke="white" stroke-width="2" stroke-linecap="round" stroke-linejoin="round"/>
<path d="M335.6 123.654H316.85" stroke="white" stroke-width="2" stroke-linecap="round" stroke-linejoin="round"/>
<path d="M148.93 18.1221V31.608" stroke="white" stroke-width="2" stroke-linecap="round" stroke-linejoin="round"/>
<path d="M155.672 24.8643H142.186" stroke="white" stroke-width="2" stroke-linecap="round" stroke-linejoin="round"/>
<path d="M155.85 310.61C159.218 310.61 161.948 307.88 161.948 304.512C161.948 301.144 159.218 298.414 155.85 298.414C152.482 298.414 149.752 301.144 149.752 304.512C149.752 307.88 152.482 310.61 155.85 310.61Z" stroke="white" stroke-width="2" stroke-linecap="round" stroke-linejoin="round"/>
<path d="M266.32 120.376C269.688 120.376 272.418 117.646 272.418 114.278C272.418 110.91 269.688 108.18 266.32 108.18C262.952 108.18 260.222 110.91 260.222 114.278C260.222 117.646 262.952 120.376 266.32 120.376Z" stroke="white" stroke-width="2" stroke-linecap="round" stroke-linejoin="round"/>
<path d="M291.566 172.715C294.934 172.715 297.664 169.984 297.664 166.617C297.664 163.249 294.934 160.519 291.566 160.519C288.198 160.519 285.468 163.249 285.468 166.617C285.468 169.984 288.198 172.715 291.566 172.715Z" stroke="white" stroke-width="2" stroke-linecap="round" stroke-linejoin="round"/>
<path d="M134.486 227.658C134.29 227.642 134.093 227.682 133.921 227.776C133.748 227.872 133.607 228.014 133.515 228.188C133.424 228.364 133.385 228.56 133.406 228.756C133.426 228.952 133.503 229.138 133.628 229.29C134.944 230.902 136.11 232.426 137.124 233.862L141.37 232.572C137.044 229 135.816 227.8 134.486 227.658Z" fill="#0A7EA4"/>
<path d="M98.7678 64.8781C96.6038 63.4021 91.1219 61.0101 89.4999 64.4261C88.0999 67.3541 91.7499 70.3321 88.0819 73.8961C87.4541 74.4233 86.7888 74.9045 86.0918 75.3361C85.0918 66.4361 72.9338 63.116 71.1298 70.852C70.4738 73.662 71.6618 76.7661 69.9618 79.2881C68.1858 81.9241 65.2038 81.5781 62.5758 82.6721C55.8378 85.4721 49.4458 90.6601 49.0358 97.9101C48.8994 100.999 49.3056 104.088 50.2358 107.036C46.284 107.251 42.4932 108.673 39.3758 111.112C36.2584 113.55 33.9648 116.887 32.8048 120.671C31.6448 124.455 31.6744 128.504 32.8898 132.27C34.105 136.037 36.4472 139.339 39.5998 141.732C45.1258 139.64 50.9416 138.414 56.8418 138.098L58.6558 136.814C59.8862 135.943 60.93 134.835 61.7258 133.555C62.5216 132.275 63.0534 130.849 63.2898 129.36L65.7998 113.506C62.7498 112.264 59.0158 107.646 61.6458 106.026C64.2758 104.406 67.5078 108.37 67.5078 108.37C67.5078 108.37 70.5498 93.2541 78.2379 94.4621C80.8379 94.8621 82.6798 97.7821 83.9198 101.642C87.232 101.733 90.5229 101.086 93.5539 99.7481C106.14 94.0001 111.292 73.4321 98.7678 64.8781Z" fill="#0A7EA4"/>
<path d="M98.7678 64.8781C96.6038 63.4021 91.1219 61.0101 89.4999 64.4261C88.0999 67.3541 91.7499 70.3321 88.0819 73.8961C87.4541 74.4233 86.7888 74.9045 86.0918 75.3361C85.0918 66.4361 72.9338 63.116 71.1298 70.852C70.4738 73.662 71.6618 76.7661 69.9618 79.2881C68.1858 81.9241 65.2038 81.5781 62.5758 82.6721C55.8378 85.4721 49.4458 90.6601 49.0358 97.9101C48.8994 100.999 49.3056 104.088 50.2358 107.036C46.284 107.251 42.4932 108.673 39.3758 111.112C36.2584 113.55 33.9648 116.887 32.8048 120.671C31.6448 124.455 31.6744 128.504 32.8898 132.27C34.105 136.037 36.4472 139.339 39.5998 141.732C45.1258 139.64 50.9416 138.414 56.8418 138.098L58.6558 136.814C59.8862 135.943 60.93 134.835 61.7258 133.555C62.5216 132.275 63.0534 130.849 63.2898 129.36L65.7998 113.506C62.7498 112.264 59.0158 107.646 61.6458 106.026C64.2758 104.406 67.5078 108.37 67.5078 108.37C67.5078 108.37 70.5498 93.2541 78.2379 94.4621C80.8379 94.8621 82.6798 97.7821 83.9198 101.642C87.232 101.733 90.5229 101.086 93.5539 99.7481C106.14 94.0001 111.292 73.4321 98.7678 64.8781Z" stroke="white" stroke-width="2" stroke-linecap="round" stroke-linejoin="round"/>
<path d="M67.5165 108.37C67.5165 108.37 64.2825 104.402 61.6545 106.026C59.0265 107.65 62.7585 112.266 65.8085 113.506L63.2825 129.36C63.0461 130.849 62.5143 132.275 61.7185 133.555C60.9227 134.835 59.8789 135.943 58.6485 136.814L56.8345 138.098C56.8345 138.098 66.8465 161 78.0485 160.14C87.2485 159.438 84.4365 142.324 82.1245 136.456C81.0705 133.784 79.3425 131.056 79.3425 127.656C80.6317 127.76 81.9171 127.415 82.9805 126.679C84.0441 125.943 84.8199 124.861 85.1765 123.618C87.0925 118.924 85.9365 95.6722 78.2465 94.4642C70.5565 93.2562 67.5165 108.37 67.5165 108.37Z" stroke="white" stroke-width="2" stroke-linecap="round" stroke-linejoin="round"/>
<path d="M79.342 127.654C77.3058 127.469 75.3496 126.772 73.656 125.626C73.656 125.626 72.08 130.926 80.5 132.728C79.7814 131.13 79.3878 129.405 79.342 127.654Z" fill="#0A7EA4"/>
<path d="M79.342 127.654C77.3058 127.469 75.3496 126.772 73.656 125.626C73.656 125.626 72.08 130.926 80.5 132.728C79.7814 131.13 79.3878 129.405 79.342 127.654Z" stroke="white" stroke-width="2" stroke-linecap="round" stroke-linejoin="round"/>
<path d="M56.8342 138.098C56.8342 138.098 22.8162 138.636 11.2002 169.324C14.3323 188.518 22.3722 206.578 34.5402 221.75L18.8942 260.504L57.6382 243.026C57.6382 243.026 66.7542 249.826 85.9882 257.208C85.9882 257.208 104.156 252.846 112.354 243.008C112.805 242.528 113.361 242.162 113.978 241.934C114.595 241.708 115.257 241.626 115.91 241.7C117.564 241.988 119.31 243.084 121.592 246.456C125.04 251.53 127.082 254.148 128.702 253.44C130.322 252.732 131.03 246.102 121.82 236.792C121.82 236.792 121.02 236.032 122.63 236.438C124.24 236.844 133.256 250.116 136.19 250.108C139.124 250.1 139.024 248.48 139.024 247.368C139.024 246.256 128.702 233.098 128.702 233.098C128.702 233.098 139.328 247.368 141.96 247.57C144.52 247.77 142.862 240.582 133.628 229.28C132.978 228.48 133.672 226.766 135.988 228.24C138.214 229.656 148.84 239.372 150.562 238.866C152.788 238.212 149.646 232.944 149.136 232.176C146.43 228.098 139.272 222.956 137.194 221.512C136.384 220.95 137.248 221.256 114.394 216.228C114.394 216.228 84.0322 231.984 72.6642 231.174C61.2962 230.364 39.4382 212.766 44.5002 172.486" stroke="white" stroke-width="2" stroke-linecap="round" stroke-linejoin="round"/>
<path d="M56.8342 138.098C50.362 138.452 43.9954 139.892 38.0002 142.356C38.0002 142.356 37.8282 148.512 48.5562 148.556C48.5562 148.556 44.2042 152.648 44.7102 155.684C45.2162 158.72 52.1982 157.708 56.1462 154.774C56.1462 154.774 55.6642 161.316 61.5182 163.494C66.6682 165.408 72.0042 162.17 72.6742 158.844C63.8282 154.092 56.8342 138.098 56.8342 138.098Z" fill="white"/>
<path d="M56.8342 138.098C50.362 138.452 43.9954 139.892 38.0002 142.356C38.0002 142.356 37.8282 148.512 48.5562 148.556C48.5562 148.556 44.2042 152.648 44.7102 155.684C45.2162 158.72 52.1982 157.708 56.1462 154.774C56.1462 154.774 55.6642 161.316 61.5182 163.494C66.6682 165.408 72.0042 162.17 72.6742 158.844C63.8282 154.092 56.8342 138.098 56.8342 138.098Z" stroke="white" stroke-width="2" stroke-linecap="round" stroke-linejoin="round"/>
<path d="M98.6821 144C102.897 146.467 106.681 149.606 109.882 153.294C121.62 166.822 113.12 194.746 131.742 199.304C150.364 203.862 155.322 203.06 155.322 203.06" stroke="white" stroke-width="2" stroke-linecap="round" stroke-linejoin="round"/>
<path d="M100.364 156.496C100.364 156.496 108.866 169.574 101.78 203.112C106.386 207.084 110.61 211.478 114.396 216.238" stroke="white" stroke-width="2" stroke-linecap="round" stroke-linejoin="round"/>
<path d="M101.78 203.112C101.78 203.112 81.4582 212.48 48.2002 208.574" stroke="white" stroke-width="2" stroke-linecap="round" stroke-linejoin="round"/>
<path d="M78.6904 160.188L79.9964 177.826" stroke="white" stroke-width="2" stroke-linecap="round" stroke-linejoin="round"/>
<path d="M81.27 158.98C82.1882 160.057 83.3322 160.919 84.6208 161.504C85.9092 162.089 87.3108 162.384 88.726 162.366C93.432 162.214 95.102 155.756 91.914 151.166C91.914 151.166 98.138 151.284 99.048 149.766C99.958 148.248 93.584 144 93.584 144H98.682C98.682 144 89.444 137.418 82.682 137.4C82.688 137.4 87.478 154.6 81.27 158.98Z" fill="white"/>
<path d="M81.27 158.98C82.1882 160.057 83.3322 160.919 84.6208 161.504C85.9092 162.089 87.3108 162.384 88.726 162.366C93.432 162.214 95.102 155.756 91.914 151.166C91.914 151.166 98.138 151.284 99.048 149.766C99.958 148.248 93.584 144 93.584 144H98.682C98.682 144 89.444 137.418 82.682 137.4C82.688 137.4 87.478 154.6 81.27 158.98Z" stroke="white" stroke-width="2" stroke-linecap="round" stroke-linejoin="round"/>
<path d="M84.118 170.356C85.1508 170.356 85.988 169.519 85.988 168.486C85.988 167.453 85.1508 166.616 84.118 166.616C83.0852 166.616 82.248 167.453 82.248 168.486C82.248 169.519 83.0852 170.356 84.118 170.356Z" fill="#0A7EA4"/>
<path d="M84.118 170.356C85.1508 170.356 85.988 169.519 85.988 168.486C85.988 167.453 85.1508 166.616 84.118 166.616C83.0852 166.616 82.248 167.453 82.248 168.486C82.248 169.519 83.0852 170.356 84.118 170.356Z" stroke="white" stroke-width="2" stroke-linecap="round" stroke-linejoin="round"/>
<path d="M147.99 230.558L179.008 221.128" stroke="white" stroke-width="2" stroke-linecap="round" stroke-linejoin="round"/>
<path d="M107.38 247.606L134.12 262.606" stroke="white" stroke-width="2" stroke-linecap="round" stroke-linejoin="round"/>
<path d="M103.044 250.828L125.842 263.014" stroke="white" stroke-width="2" stroke-linecap="round" stroke-linejoin="round"/>
<path d="M140.118 223.646C142.931 225.704 145.538 228.026 147.904 230.584L161.126 226.564C154.072 226.004 147.058 225.03 140.118 223.646Z" fill="#0A7EA4"/>
<path d="M18.1479 193.956C26.793 196.327 35.8044 197.064 44.72 196.13" stroke="white" stroke-width="2" stroke-linecap="round" stroke-linejoin="round"/>
<path d="M103.966 189.664C103.966 189.664 113.966 188.43 119.002 183.494" stroke="white" stroke-width="2" stroke-linecap="round" stroke-linejoin="round"/>
</svg>
