<svg width="400" height="400" viewBox="0 0 400 400" fill="none" xmlns="http://www.w3.org/2000/svg">
<path d="M374.827 306.77C374.517 288.766 373.466 271.801 371.58 253.308C369.244 230.405 364.901 221.408 356.708 209.14C348.114 197.084 335.398 188.596 320.968 185.28C315.754 184.322 310.483 183.71 305.189 183.447L202.768 184.187V215.96C202.77 216.837 203.118 217.677 203.739 218.298C204.36 218.917 205.2 219.267 206.077 219.267C207.59 219.307 209.066 218.792 210.225 217.819C224.541 204.744 245.887 216.545 245.887 237.981C245.887 259.473 224.499 271.178 210.227 258.144C209.068 257.169 207.592 256.651 206.077 256.693C205.2 256.693 204.36 257.041 203.739 257.662C203.118 258.281 202.77 259.123 202.768 260.001V362.006C202.768 364.905 231.054 368.684 265.947 368.684C300.839 368.684 329.123 364.903 329.123 362.006L329.079 321.517C339.417 321.573 353.731 321.004 362.782 320.196C366.115 319.894 369.21 318.341 371.442 315.85C373.677 313.358 374.887 310.115 374.827 306.77Z" stroke="white" stroke-width="3" stroke-linecap="round" stroke-linejoin="round"/>
<path d="M252.065 219.516C256.93 222.131 260.983 227.748 264.319 235.453C268.109 244.207 270.816 255.289 272.773 266.641C276.424 287.816 277.414 309.52 278.122 318.389C276.887 318.32 275.661 318.251 274.444 318.179H274.445C268.766 317.836 263.434 315.322 259.555 311.16C255.676 306.995 253.546 301.503 253.604 295.812C253.862 270.395 253.391 237.063 252.065 219.516Z" fill="#0A7EA4" stroke="white" stroke-width="3"/>
<path d="M279.767 319.985C278.336 305.428 276.288 225.89 250.369 217.146C251.843 233.774 252.375 269.117 252.104 295.797C252.042 301.872 254.317 307.737 258.458 312.182C262.599 316.626 268.291 319.311 274.354 319.677C276.139 319.782 277.944 319.886 279.767 319.985Z" stroke="white" stroke-width="3" stroke-linecap="round" stroke-linejoin="round"/>
<path d="M329.079 321.517C311.524 321.422 296.879 320.92 279.767 319.985" stroke="white" stroke-width="3" stroke-linecap="round" stroke-linejoin="round"/>
<path d="M356.582 233.966C358.74 233.928 360.838 234.66 362.502 236.023L362.828 236.303C364.538 237.845 365.598 239.98 365.793 242.275V242.276L369.208 282.336C369.316 283.607 369.163 284.887 368.756 286.093L368.755 286.096C368.349 287.306 367.699 288.417 366.846 289.362L366.844 289.365C366.098 290.193 365.208 290.879 364.219 291.393L363.789 291.602C362.629 292.13 361.371 292.414 360.095 292.438L303.278 293.452C300.976 293.493 298.741 292.657 297.032 291.115C295.323 289.573 294.262 287.438 294.067 285.143V285.142L290.65 245.082C290.543 243.81 290.697 242.532 291.104 241.321C291.509 240.114 292.16 239.001 293.016 238.053C293.868 237.108 294.909 236.345 296.07 235.815C297.23 235.287 298.488 235.004 299.763 234.982H299.764L356.582 233.966ZM344.882 263.396L327.995 263.595H325.865L326.597 265.608C328.972 272.138 333.026 276.07 337.391 276.001C341.885 275.931 345.25 271.708 346.378 265.15L346.684 263.375L344.882 263.396ZM306.425 254.105C304.956 254.105 303.798 254.985 303.074 256.052C302.344 257.128 301.94 258.531 301.94 260.006C301.94 261.481 302.342 262.884 303.071 263.96C303.794 265.028 304.951 265.905 306.419 265.908V265.909H306.425V265.908C307.891 265.906 309.048 265.029 309.773 263.962C310.505 262.886 310.91 261.483 310.91 260.006C310.91 258.53 310.507 257.127 309.776 256.051C309.052 254.984 307.894 254.105 306.425 254.105ZM359.737 254.105C358.268 254.105 357.111 254.985 356.387 256.052C355.657 257.128 355.252 258.531 355.252 260.006C355.252 261.481 355.654 262.884 356.384 263.96C357.107 265.028 358.263 265.905 359.731 265.908V265.909H359.737V265.908C361.206 265.905 362.365 265.03 363.09 263.961C363.821 262.884 364.223 261.481 364.223 260.006C364.223 258.53 363.818 257.127 363.088 256.051C362.364 254.984 361.206 254.105 359.737 254.105Z" fill="#0A7EA4" stroke="white" stroke-width="3"/>
<path d="M370.702 282.209L367.287 242.148C367.061 239.474 365.825 236.986 363.833 235.189C361.839 233.392 359.238 232.419 356.555 232.467L299.737 233.482C298.256 233.508 296.796 233.838 295.448 234.451C294.101 235.066 292.893 235.95 291.902 237.048C290.909 238.148 290.153 239.44 289.681 240.843C289.21 242.248 289.031 243.732 289.156 245.209L292.573 285.27C292.8 287.944 294.035 290.432 296.027 292.229C298.019 294.026 300.622 294.999 303.305 294.951L360.123 293.938C361.604 293.91 363.065 293.58 364.412 292.967C365.759 292.352 366.967 291.469 367.958 290.368C368.951 289.27 369.705 287.978 370.177 286.573C370.65 285.17 370.828 283.684 370.702 282.209Z" stroke="white" stroke-width="3" stroke-linecap="round" stroke-linejoin="round"/>
<path d="M306.419 255.605C304.767 255.605 303.434 257.575 303.434 260.007C303.434 262.438 304.773 264.408 306.419 264.408C308.065 264.408 309.404 262.436 309.404 260.007C309.404 257.577 308.069 255.605 306.419 255.605Z" stroke="white" stroke-width="3" stroke-linecap="round" stroke-linejoin="round"/>
<path d="M359.731 255.605C358.079 255.605 356.746 257.575 356.746 260.007C356.746 262.438 358.085 264.408 359.731 264.408C361.377 264.408 362.716 262.436 362.716 260.007C362.716 257.577 361.389 255.605 359.731 255.605Z" stroke="white" stroke-width="3" stroke-linecap="round" stroke-linejoin="round"/>
<path d="M328.007 265.095C332.622 277.783 342.733 277.556 344.894 264.896L328.007 265.095Z" stroke="white" stroke-width="3" stroke-linecap="round" stroke-linejoin="round"/>
<path d="M226.542 93.325C228.683 92.5549 231.033 92.6254 233.122 93.5203C235.211 94.4154 236.883 96.0696 237.8 98.1482L237.801 98.1492L239.735 102.527C240.082 103.314 240.625 103.999 241.305 104.519L241.307 104.521C241.944 105.005 242.685 105.331 243.47 105.477C244.326 105.795 245.241 105.918 246.147 105.833L246.559 105.78C247.658 105.601 248.685 105.123 249.531 104.4L249.583 104.355L249.631 104.305L252.964 100.877H252.965C254.55 99.2453 256.693 98.2749 258.964 98.1628C261.235 98.051 263.463 98.8043 265.201 100.271V100.272C266.828 101.648 267.91 103.555 268.261 105.649L268.322 106.07C268.589 108.328 267.991 110.604 266.647 112.437L266.646 112.439L263.826 116.3L263.786 116.354L263.751 116.412C263.177 117.367 262.879 118.461 262.884 119.572C262.889 120.626 263.172 121.658 263.697 122.57C263.972 123.322 264.419 123.999 265.004 124.546C265.633 125.133 266.399 125.552 267.233 125.764H267.234L271.62 126.875L271.626 126.88L271.875 126.942C274.077 127.501 275.985 128.873 277.216 130.784V130.783C278.446 132.694 278.908 135.001 278.505 137.236C278.128 139.332 277.018 141.222 275.383 142.572L275.049 142.835C273.344 144.111 271.244 144.737 269.126 144.609L268.703 144.574L263.945 144.06H263.942C263.087 143.97 262.221 144.095 261.428 144.427C260.637 144.758 259.94 145.284 259.405 145.956C258.898 146.589 256.712 148.481 257.382 151.452L257.457 151.743L258.758 156.349C259.375 158.536 259.14 160.875 258.101 162.895C257.061 164.915 255.295 166.467 253.157 167.236H253.156C251.02 168.005 248.668 167.936 246.582 167.042V167.041C244.492 166.146 242.82 164.493 241.903 162.416H241.902L239.968 158.038V158.037L239.84 157.768C238.478 155.074 235.704 155.014 234.779 154.821C233.938 154.646 233.065 154.685 232.243 154.935C231.423 155.185 230.674 155.638 230.072 156.256L230.071 156.257L226.734 159.684C225.148 161.312 223.006 162.278 220.737 162.388C218.467 162.499 216.242 161.744 214.505 160.278C212.772 158.812 211.656 156.742 211.385 154.487C211.116 152.231 211.71 149.957 213.049 148.124L215.872 144.263C216.378 143.569 216.703 142.757 216.813 141.904C216.923 141.051 216.816 140.183 216.5 139.382C216.144 138.466 215.576 135.588 212.464 134.799H212.463L207.829 133.624H207.83C205.628 133.065 203.718 131.692 202.489 129.783L202.267 129.421C201.204 127.585 200.823 125.428 201.2 123.332C201.602 121.096 202.837 119.095 204.655 117.733L204.654 117.732C206.473 116.37 208.74 115.749 210.999 115.992V115.993L215.757 116.507C218.98 116.854 220.494 114.341 221.142 113.612L221.141 113.611C221.713 112.97 222.113 112.197 222.306 111.363C222.501 110.523 222.478 109.652 222.249 108.829L222.247 108.824L220.946 104.218L220.945 104.217C220.326 102.031 220.561 99.6906 221.6 97.6687C222.638 95.6476 224.405 94.0958 226.543 93.3259L226.542 93.325ZM240.334 119.905C238.411 119.814 236.502 120.26 234.821 121.189L234.487 121.382C232.729 122.441 231.321 123.999 230.447 125.858C229.573 127.716 229.268 129.793 229.575 131.826C229.88 133.858 230.782 135.753 232.163 137.271C233.545 138.791 235.348 139.867 237.343 140.362V140.361C239.337 140.856 241.432 140.749 243.365 140.053C244.648 139.592 245.83 138.882 246.839 137.964C247.85 137.045 248.666 135.936 249.247 134.703C249.829 133.467 250.158 132.131 250.223 130.77V130.767C250.278 129.576 250.128 128.385 249.78 127.246L249.619 126.76C248.966 124.949 247.824 123.356 246.321 122.159L246.016 121.925C244.364 120.704 242.387 120.002 240.334 119.905Z" fill="#0A7EA4" stroke="white" stroke-width="3"/>
<path d="M272.237 125.484L267.602 124.31C267.013 124.16 266.472 123.865 266.028 123.45C265.584 123.035 265.252 122.515 265.063 121.938C264.623 121.224 264.388 120.403 264.384 119.565C264.38 118.726 264.605 117.903 265.037 117.184L267.857 113.323C269.425 111.183 270.124 108.527 269.811 105.892C269.497 103.257 268.195 100.839 266.169 99.1266C264.142 97.414 261.541 96.5343 258.89 96.665C256.239 96.7957 253.738 97.9275 251.889 99.8313L248.556 103.26C247.919 103.805 247.145 104.165 246.317 104.3C245.491 104.435 244.642 104.34 243.866 104.026C243.267 103.936 242.699 103.695 242.216 103.327C241.734 102.959 241.352 102.475 241.107 101.921L239.173 97.5428C238.102 95.1164 236.15 93.1861 233.713 92.1415C231.275 91.097 228.533 91.0158 226.035 91.9143C223.54 92.8128 221.478 94.6241 220.266 96.983C219.054 99.3419 218.78 102.073 219.502 104.625L220.803 109.232C220.967 109.816 220.983 110.432 220.845 111.024C220.708 111.615 220.425 112.162 220.021 112.615C219.11 113.64 218.187 115.26 215.918 115.015L211.16 114.502C208.523 114.218 205.878 114.943 203.755 116.533C201.634 118.122 200.193 120.457 199.724 123.066C199.254 125.676 199.792 128.366 201.228 130.595C202.663 132.824 204.891 134.426 207.46 135.078L212.095 136.252C214.284 136.807 214.607 138.656 215.104 139.932C215.327 140.497 215.403 141.109 215.325 141.712C215.247 142.315 215.018 142.888 214.66 143.378L211.838 147.239C210.274 149.38 209.582 152.034 209.896 154.666C210.213 157.299 211.514 159.713 213.538 161.424C215.564 163.135 218.161 164.015 220.809 163.886C223.458 163.758 225.958 162.63 227.808 160.731L231.145 157.302C231.569 156.868 232.099 156.547 232.68 156.37C233.261 156.193 233.878 156.165 234.473 156.29C235.818 156.57 237.675 156.56 238.596 158.644L240.53 163.022C241.601 165.447 243.553 167.376 245.991 168.42C248.427 169.464 251.171 169.545 253.664 168.647C256.16 167.749 258.221 165.939 259.435 163.581C260.647 161.223 260.922 158.493 260.201 155.941L258.9 151.334C258.275 149.124 259.793 147.87 260.576 146.893C260.954 146.418 261.447 146.046 262.008 145.811C262.568 145.577 263.178 145.487 263.783 145.552L268.542 146.065C271.178 146.35 273.825 145.625 275.948 144.036C278.07 142.446 279.512 140.111 279.982 137.502C280.452 134.892 279.912 132.201 278.478 129.971C277.041 127.742 274.814 126.14 272.243 125.488L272.237 125.484Z" stroke="white" stroke-width="3" stroke-linecap="round" stroke-linejoin="round"/>
<path d="M248.21 127.269C247.615 125.616 246.542 124.176 245.127 123.131C243.714 122.087 242.023 121.486 240.266 121.403C238.51 121.32 236.769 121.76 235.263 122.667C233.758 123.573 232.554 124.906 231.806 126.497C231.058 128.087 230.797 129.864 231.06 131.602C231.321 133.34 232.093 134.962 233.275 136.262C234.457 137.562 235.999 138.482 237.706 138.906C239.412 139.329 241.205 139.238 242.859 138.642C243.957 138.247 244.966 137.639 245.83 136.853C246.693 136.068 247.392 135.12 247.889 134.064C248.387 133.008 248.671 131.864 248.725 130.699C248.781 129.533 248.606 128.368 248.21 127.269Z" stroke="white" stroke-width="3" stroke-linecap="round" stroke-linejoin="round"/>
<path d="M151.256 39.9441C152.906 39.3497 154.72 39.4033 156.332 40.0935C157.945 40.784 159.236 42.0595 159.944 43.6638L162.332 49.071L162.728 49.9675L163.708 49.9656C168.204 49.9547 172.665 50.7604 176.873 52.3445L177.791 52.6902L178.476 51.9871L182.605 47.7468V47.7458C183.828 46.4896 185.482 45.7438 187.232 45.658C188.983 45.5721 190.701 46.1526 192.041 47.283L198.386 52.6384C199.727 53.7691 200.589 55.3671 200.799 57.1091C201.006 58.8515 200.547 60.6079 199.512 62.0232L196.019 66.7996L195.439 67.5916L195.934 68.4402C198.198 72.322 199.733 76.5857 200.464 81.0203L200.623 81.989L201.575 82.2312L207.314 83.6853H207.315C209.017 84.1158 210.493 85.1761 211.443 86.6511C212.393 88.126 212.748 89.907 212.438 91.6345L210.961 99.8044C210.648 101.53 209.695 103.073 208.293 104.123C206.889 105.173 205.139 105.652 203.396 105.464L197.512 104.829L196.536 104.723L196.049 105.576C193.817 109.479 190.894 112.943 187.423 115.801L186.666 116.424L186.933 117.367L188.541 123.056C189.018 124.744 188.836 126.55 188.034 128.109C187.232 129.668 185.869 130.866 184.219 131.46H184.218L176.407 134.273L176.405 134.274C174.754 134.871 172.938 134.819 171.323 134.129C169.709 133.438 168.416 132.161 167.707 130.554V130.553L165.319 125.146L164.923 124.251L163.943 124.253C159.447 124.264 154.986 123.458 150.778 121.874L149.859 121.527L149.175 122.231L145.052 126.471C143.829 127.728 142.176 128.474 140.425 128.56C138.674 128.646 136.955 128.065 135.615 126.934L129.271 121.578L129.025 121.36C127.825 120.246 127.055 118.739 126.858 117.106C126.649 115.364 127.108 113.606 128.144 112.189L131.638 107.415L132.218 106.622L131.723 105.773C129.458 101.891 127.923 97.6276 127.193 93.1931L127.034 92.2244L126.082 91.9832L120.343 90.5261L120.026 90.4382C118.46 89.961 117.109 88.9424 116.219 87.5593C115.269 86.0843 114.914 84.3044 115.226 82.5779L116.701 74.406C117.014 72.6834 117.969 71.1433 119.372 70.0955C120.776 69.0471 122.524 68.5687 124.266 68.7576L124.268 68.7585L130.152 69.3884L131.127 69.4939L131.614 68.6423C133.846 64.7396 136.768 61.2745 140.238 58.4167L140.994 57.7947L140.729 56.8513L139.122 51.1619C138.645 49.4741 138.827 47.6681 139.629 46.1082C140.431 44.5484 141.794 43.351 143.444 42.7566L151.255 39.9441H151.256ZM164.983 62.573C160.131 62.3445 155.32 63.5604 151.159 66.0662C147.128 68.4937 143.881 72.0263 141.802 76.241L141.604 76.6511C139.537 81.0464 138.819 85.9562 139.541 90.7595V90.7605C140.264 95.5637 142.395 100.045 145.664 103.637C148.934 107.23 153.196 109.773 157.91 110.943C162.624 112.114 167.58 111.86 172.15 110.214C175.185 109.121 177.974 107.441 180.359 105.27C182.745 103.1 184.679 100.48 186.052 97.5623C187.425 94.6439 188.21 91.483 188.361 88.2615C188.513 85.04 188.028 81.8202 186.936 78.7859C185.29 74.2156 182.326 70.2361 178.419 67.3503C174.511 64.4643 169.836 62.8015 164.983 62.573Z" fill="#243044" stroke="white" stroke-width="3"/>
<path d="M207.683 82.2314L201.944 80.7767C201.184 76.1617 199.587 71.7246 197.23 67.6845L200.722 62.9085C201.982 61.1862 202.541 59.0495 202.288 56.9304C202.034 54.8114 200.985 52.8676 199.353 51.4919L193.009 46.1368C191.379 44.7615 189.289 44.0549 187.159 44.1594C185.029 44.2638 183.018 45.1717 181.531 46.7L177.401 50.9407C173.023 49.2926 168.382 48.4538 163.704 48.4651L161.316 43.0583C160.454 41.1065 158.884 39.5543 156.923 38.7143C154.961 37.8745 152.755 37.8099 150.747 38.533L142.937 41.3449C140.929 42.0679 139.271 43.5247 138.295 45.4222C137.319 47.3197 137.099 49.5164 137.679 51.5695L139.285 57.2589C135.674 60.2322 132.633 63.8369 130.312 67.8975L124.428 67.2666C122.309 67.0368 120.182 67.6179 118.474 68.8933C116.767 70.1684 115.606 72.0434 115.226 74.1401L113.749 82.311C113.37 84.4115 113.802 86.5772 114.957 88.3716C116.113 90.1662 117.905 91.4559 119.974 91.9804L125.713 93.4371C126.472 98.0523 128.07 102.489 130.427 106.529L126.933 111.305C125.674 113.029 125.115 115.166 125.37 117.285C125.624 119.404 126.673 121.348 128.304 122.724L134.648 128.081C136.278 129.457 138.368 130.163 140.498 130.059C142.628 129.954 144.639 129.046 146.126 127.518L150.25 123.277C154.628 124.925 159.269 125.764 163.947 125.753L166.335 131.16C167.197 133.114 168.769 134.668 170.733 135.508C172.697 136.348 174.907 136.411 176.916 135.685L184.727 132.871C186.734 132.149 188.392 130.692 189.368 128.795C190.344 126.898 190.564 124.701 189.984 122.648L188.376 116.959C191.988 113.986 195.029 110.381 197.351 106.32L203.235 106.955C205.355 107.184 207.484 106.601 209.192 105.324C210.897 104.047 212.057 102.17 212.437 100.072L213.914 91.9008C214.292 89.7998 213.86 87.6333 212.704 85.8387C211.548 84.0441 209.753 82.755 207.683 82.2314Z" stroke="white" stroke-width="3" stroke-linecap="round" stroke-linejoin="round"/>
<path d="M185.524 79.2945C183.979 75.0032 181.196 71.2666 177.527 68.5568C173.859 65.8472 169.469 64.2865 164.913 64.072C160.357 63.8572 155.839 64.9985 151.932 67.3513C148.025 69.7041 144.903 73.1627 142.961 77.2897C141.02 81.4168 140.346 86.0268 141.024 90.5372C141.703 95.0473 143.703 99.2552 146.773 102.628C149.843 106.001 153.845 108.388 158.271 109.487C162.698 110.586 167.351 110.348 171.642 108.802C177.396 106.73 182.091 102.457 184.694 96.9233C187.297 91.3895 187.596 85.0484 185.524 79.2945Z" stroke="white" stroke-width="3" stroke-linecap="round" stroke-linejoin="round"/>
<path d="M183.817 31.7415L203.126 28.8221L197.689 10.95" stroke="white" stroke-width="3" stroke-linecap="round" stroke-linejoin="round"/>
<path d="M93.5347 87.107C93.5361 74.3539 97.0068 61.8414 103.575 50.9097C110.143 39.978 119.562 31.0391 130.821 25.0504C142.081 19.0617 154.758 16.249 167.493 16.9133C180.229 17.5777 192.545 21.6943 203.12 28.8219" stroke="white" stroke-width="3" stroke-linecap="round" stroke-linejoin="round"/>
<path d="M288.859 121.809L299.096 136.187L311.287 124.505" stroke="white" stroke-width="3" stroke-linecap="round" stroke-linejoin="round"/>
<path d="M231.864 70.0532C272.408 59.1241 309.229 96.1222 299.102 136.187" stroke="white" stroke-width="3" stroke-linecap="round" stroke-linejoin="round"/>
<path d="M169.199 279.363C165.582 279.389 161.989 278.79 158.576 277.592C148.996 273.664 143.977 261.336 135.048 256.1C138.842 251.111 140.866 245.002 140.803 238.735C140.72 234.047 139.134 228.984 135.176 226.477C132.725 225.132 129.964 224.455 127.169 224.517C124.375 224.576 121.645 225.373 119.256 226.823C117.465 228.047 115.997 229.685 114.975 231.597C113.953 233.51 113.409 235.641 113.387 237.81C109.606 238.652 105.001 233.112 103.598 229.502C100.591 221.749 99.1049 213.488 99.2203 205.172C80.4745 204.177 58.0014 197.071 46.2863 182.408C44.2266 188.955 44.5968 190.585 44.0853 219.406L25.8748 252.025C25.5083 252.681 25.2774 253.406 25.1961 254.154C25.1147 254.902 25.1843 255.658 25.401 256.379C25.6175 257.099 25.9767 257.768 26.4569 258.347C26.9373 258.926 27.5291 259.403 28.1972 259.75C33.9423 262.502 39.9404 264.691 46.1072 266.289L48.6763 299.538C48.7951 301.078 49.4563 302.527 50.5425 303.625C51.6286 304.724 53.0694 305.402 54.6085 305.54L85.2405 308.256L86.0266 334.126C86.0266 337.274 109.735 339.827 138.98 339.827C168.108 339.827 191.733 337.296 191.926 334.164V278.842C184.379 279.656 176.776 279.831 169.199 279.363Z" stroke="white" stroke-width="3" stroke-linecap="round" stroke-linejoin="round"/>
<path d="M47.2354 280.688C52.7805 280.571 58.243 279.321 63.2867 277.013" stroke="white" stroke-width="3" stroke-linecap="round" stroke-linejoin="round"/>
<path d="M58.9897 230.191C59.0709 230.246 59.1647 230.315 59.2681 230.404C59.835 230.891 60.4957 231.741 61.0444 232.859L61.0454 232.86C61.5932 233.975 61.86 235.016 61.8979 235.761C61.9048 235.897 61.901 236.013 61.895 236.111C61.8165 236.057 61.7264 235.99 61.6274 235.905C61.061 235.418 60.3997 234.567 59.8511 233.45C59.3012 232.329 59.0305 231.287 58.9897 230.542C58.9823 230.405 58.984 230.289 58.9897 230.191Z" fill="#0A7EA4" stroke="white" stroke-width="3"/>
<path d="M62.3914 232.198C61.1596 229.689 59.293 228.081 58.2124 228.616C57.1318 229.151 57.2731 231.601 58.5049 234.11C59.7367 236.62 61.6033 238.226 62.674 237.692C63.7446 237.159 63.6232 234.705 62.3914 232.198Z" stroke="white" stroke-width="3" stroke-linecap="round" stroke-linejoin="round"/>
<path d="M56.478 221.376C57.9729 221.2 59.917 221.314 62.0679 221.833C65.0883 222.562 68.4114 224.066 71.3628 226.541L56.478 221.376Z" fill="#243044" stroke="white" stroke-width="3"/>
<path d="M52.5845 221.613L76.4884 229.908C68.789 219.026 54.6401 218.135 52.5845 221.613Z" stroke="white" stroke-width="3" stroke-linecap="round" stroke-linejoin="round"/>
<path d="M127.231 243.943C123.16 245.917 119.502 248.649 116.452 251.991" stroke="white" stroke-width="3" stroke-linecap="round" stroke-linejoin="round"/>
<path d="M125.526 240.162L128.869 247.573" stroke="white" stroke-width="3" stroke-linecap="round" stroke-linejoin="round"/>
<path d="M135.048 256.096C133.48 258.175 131.621 260.016 129.528 261.566" stroke="white" stroke-width="3" stroke-linecap="round" stroke-linejoin="round"/>
<path d="M85.2407 308.262L105.827 310.463" stroke="white" stroke-width="3" stroke-linecap="round" stroke-linejoin="round"/>
<path d="M118.608 143.193C147.355 143.193 171.996 154.832 183.757 171.446C188.143 177.744 190.473 185.247 190.425 192.922V192.932L190.438 215.96V215.961C190.443 220.108 192.092 224.083 195.023 227.014C197.951 229.942 201.918 231.588 206.059 231.597V231.598C210.652 231.657 215.103 229.993 218.529 226.933L218.541 226.921C220.183 225.422 221.891 224.758 223.499 224.681C225.117 224.604 226.749 225.115 228.233 226.164C231.216 228.27 233.543 232.525 233.532 237.966V237.969C233.532 243.512 231.172 247.736 228.183 249.807C225.269 251.825 221.67 251.896 218.532 249.029L218.519 249.017L218.194 248.734C214.813 245.855 210.496 244.292 206.044 244.349C201.904 244.358 197.936 246.007 195.009 248.934C192.077 251.866 190.428 255.841 190.423 259.987V277.483C183.397 278.168 176.327 278.292 169.28 277.854L169.229 277.851H169.177C165.747 277.874 162.338 277.307 159.1 276.177C154.713 274.368 151.287 270.607 147.702 266.36C144.552 262.628 141.261 258.493 137.176 255.676C140.444 250.852 142.228 245.168 142.291 239.327V238.697L142.278 238.235C142.098 233.438 140.408 228.011 135.967 225.198L135.927 225.172L135.886 225.15L135.379 224.882C132.997 223.675 130.368 223.031 127.697 223.001L127.124 223.005C124.066 223.071 121.079 223.942 118.465 225.529L118.431 225.55L118.396 225.573C116.407 226.933 114.777 228.756 113.643 230.881H113.642C112.74 232.573 112.174 234.418 111.969 236.315C111.695 236.254 111.4 236.154 111.083 236.007C110.293 235.641 109.453 235.028 108.631 234.238C106.975 232.645 105.603 230.538 104.992 228.954L104.99 228.951C102.052 221.377 100.6 213.308 100.714 205.185L100.734 203.743L99.2939 203.667C81.0191 202.696 59.4347 195.85 47.9609 182.087C55.4219 160.048 83.9565 143.193 118.608 143.193Z" fill="#243044" stroke="white" stroke-width="3"/>
<path d="M217.53 225.814C214.384 228.624 210.296 230.152 206.077 230.099C202.328 230.095 198.735 228.604 196.084 225.953C193.434 223.303 191.943 219.709 191.938 215.96L191.924 192.931C191.974 184.943 189.549 177.134 184.981 170.58C172.866 153.466 147.701 141.693 118.609 141.693C83.2087 141.693 53.6094 159.113 46.2803 182.4C58.0014 197.063 80.4744 204.169 99.2143 205.164C99.0979 213.48 100.584 221.741 103.592 229.494C104.985 233.106 109.6 238.648 113.381 237.802C113.401 235.633 113.945 233.502 114.966 231.587C115.986 229.675 117.454 228.035 119.244 226.811C121.633 225.36 124.363 224.564 127.157 224.505C129.952 224.443 132.713 225.12 135.164 226.465C139.122 228.972 140.708 234.027 140.791 238.723C140.854 244.99 138.83 251.099 135.036 256.088C143.965 261.328 148.984 273.656 158.564 277.58C161.977 278.776 165.57 279.375 169.187 279.351C176.766 279.823 184.372 279.652 191.922 278.838V259.988C191.927 256.239 193.419 252.645 196.07 249.995C198.72 247.344 202.314 245.853 206.063 245.849C210.284 245.796 214.372 247.326 217.52 250.136C224.883 256.866 235.032 249.873 235.032 237.969C235.056 226.268 225.02 218.975 217.53 225.814Z" stroke="white" stroke-width="3" stroke-linecap="round" stroke-linejoin="round"/>
<path d="M334.713 85.0774H355.654" stroke="white" stroke-width="3" stroke-linecap="round" stroke-linejoin="round"/>
<path d="M345.184 95.5487V74.606" stroke="white" stroke-width="3" stroke-linecap="round" stroke-linejoin="round"/>
<path d="M100.707 377.223L112.533 389.05" stroke="white" stroke-width="3" stroke-linecap="round" stroke-linejoin="round"/>
<path d="M100.707 389.05L112.533 377.223" stroke="white" stroke-width="3" stroke-linecap="round" stroke-linejoin="round"/>
<path d="M166.488 360.525L172.52 366.557" stroke="white" stroke-width="3" stroke-linecap="round" stroke-linejoin="round"/>
<path d="M166.488 366.557L172.52 360.525" stroke="white" stroke-width="3" stroke-linecap="round" stroke-linejoin="round"/>
<path d="M341.055 176.808L346.227 185.337L352.307 172.595" stroke="white" stroke-width="3" stroke-linecap="round" stroke-linejoin="round"/>
<path d="M58.8252 100.819H70.2478" stroke="white" stroke-width="3" stroke-linecap="round" stroke-linejoin="round"/>
<path d="M64.5366 106.53V95.1069" stroke="white" stroke-width="3" stroke-linecap="round" stroke-linejoin="round"/>
<path d="M153.866 187.329H170.592" stroke="white" stroke-width="3" stroke-linecap="round" stroke-linejoin="round"/>
<path d="M162.228 195.691V178.965" stroke="white" stroke-width="3" stroke-linecap="round" stroke-linejoin="round"/>
</svg>
